<svg width="1440" height="800" viewBox="0 0 1440 800" fill="none" xmlns="http://www.w3.org/2000/svg">
<g clip-path="url(#clip0_27_2)">
<rect width="1440" height="800" fill="#C85A2B"/>
<path d="M-28 578.347C-10.6024 578.95 26.5191 580.976 66.3919 582.294C96.1211 583.276 145.652 583.009 177.443 582.811C221.988 582.534 244.333 580.587 259.829 579.169C274.91 577.789 283.497 574.708 296.97 572.776C315.377 570.136 333.384 564.155 362.96 560.717C387.869 557.821 417.56 554.017 446.852 551.689C459.561 550.679 467.466 549.562 485.613 547.94C531.537 543.836 565.358 541.833 574.775 541.633C584.379 541.428 607.031 540.616 643.354 541.219C680.114 541.828 710.264 545.673 730.473 547.904C753.584 550.454 787.744 553.177 820.526 557.136C842.69 559.812 860.004 559.883 877.22 561.1C888.815 561.92 899.816 561.916 961.719 563.027C1011.45 563.919 1106.32 563.535 1159.83 563.136C1222.84 562.667 1237.65 560.498 1249.08 559.892C1272.33 558.661 1282.85 557.863 1314.08 556.043C1340.58 554.029 1369.73 552.185 1402.66 551.272C1421.56 550.962 1444.93 550.962 1469 550.962" stroke="white" stroke-width="6" stroke-linecap="round"/>
<path d="M22 173C25.9473 173.407 33.2439 174.022 73.1258 174.435C107.725 174.793 171.56 174.035 205.421 174.029C241.279 174.022 249.21 175.864 269.695 178.928C332.281 188.291 344.245 188.595 353.236 190.853C363.354 193.393 374.149 196.184 385.124 198.962C397.544 202.105 423.83 206.642 471.387 211.684C502.728 215.006 520.998 216.928 564.069 220.31C598.385 223.004 623.189 225.342 641.969 227.094C655 228.31 697.511 228.434 727.315 227.821C734.289 227.678 744.799 227.412 775.879 225.986C806.959 224.56 858.274 221.918 894.907 219.743C952.198 216.343 978.209 213.658 987.499 212.734C999.655 211.525 1016.05 210.991 1037.95 210.061C1087.41 207.96 1102.45 210.979 1114.12 211.902C1124.36 212.713 1134.39 214.465 1142.37 215.598C1153.08 217.118 1176.13 221.228 1211.57 225.12C1230.93 227.247 1254.24 228.607 1274 229.749C1293.76 230.892 1309.55 231.501 1342.02 231.816C1374.5 232.13 1423.18 232.13 1463.06 231.113C1502.94 230.097 1532.55 228.065 1549.44 226.814C1566.34 225.564 1569.63 225.157 1572.31 224.846C1574.99 224.535 1576.97 224.332 1579 224.123" stroke="white" stroke-width="6" stroke-linecap="round"/>
</g>
<defs>
<clipPath id="clip0_27_2">
<rect width="1440" height="800" fill="white"/>
</clipPath>
</defs>
</svg>
