<svg width="207" height="176" viewBox="0 0 207 176" fill="none" xmlns="http://www.w3.org/2000/svg">
<path d="M206.211 64.0118C206.134 63.0378 206.005 62.0608 205.838 61.0868C205.833 61.0548 205.827 61.0238 205.821 60.9918C205.749 60.5768 205.668 60.1618 205.58 59.7488C205.57 59.7018 205.56 59.6538 205.549 59.6068C205.46 59.1998 205.364 58.7938 205.259 58.3888C205.248 58.3458 205.238 58.3028 205.226 58.2598C205.111 57.8198 204.988 57.3818 204.855 56.9458C204.855 56.9458 204.855 56.9458 204.855 56.9448C204.18 54.7328 203.271 52.5778 202.142 50.5458C201.713 49.7738 201.251 49.0198 200.758 48.2868C200.755 48.2828 200.753 48.2788 200.75 48.2748C200.257 47.5418 199.732 46.8318 199.176 46.1468C197.817 44.4728 196.274 42.9518 194.551 41.6388C193.969 41.1948 193.365 40.7768 192.742 40.3828C192.721 40.3698 192.699 40.3558 192.678 40.3428C189.279 38.2078 185.289 36.8378 180.744 36.5938C178.774 36.4878 176.709 36.4778 174.587 36.5388C174.585 36.5368 174.584 36.5348 174.582 36.5328C174.51 36.5348 174.434 36.5428 174.362 36.5448C173.048 36.5858 171.712 36.6578 170.356 36.7578C170.256 36.7648 170.16 36.7658 170.059 36.7738C170.061 36.7758 170.063 36.7788 170.065 36.7808C169.6 36.8168 169.137 36.8478 168.668 36.8898C168.49 36.6028 168.297 36.3188 168.089 36.0348C168.094 36.0348 168.099 36.0348 168.104 36.0348C168.05 35.9608 167.984 35.8888 167.928 35.8148C167.8 35.6468 167.667 35.4808 167.528 35.3148C167.406 35.1698 167.28 35.0258 167.15 34.8828C166.999 34.7168 166.841 34.5538 166.678 34.3908C166.54 34.2528 166.397 34.1168 166.249 33.9818C166.072 33.8198 165.886 33.6598 165.695 33.5018C165.538 33.3728 165.378 33.2448 165.212 33.1188C165.007 32.9638 164.794 32.8118 164.574 32.6618C164.475 32.5938 164.387 32.5218 164.285 32.4548C164.277 32.4558 164.269 32.4558 164.261 32.4568C162.499 31.3138 160.278 30.3568 157.458 29.7408C157.46 29.7398 157.461 29.7388 157.463 29.7378C157.393 29.7228 157.327 29.7048 157.256 29.6908C156.684 29.5708 156.108 29.4838 155.53 29.4188C155.326 29.3958 155.122 29.3878 154.917 29.3708C154.543 29.3408 154.169 29.3138 153.793 29.3058C153.546 29.2998 153.298 29.3048 153.05 29.3078C152.715 29.3118 152.381 29.3208 152.045 29.3418C151.781 29.3578 151.516 29.3778 151.252 29.4028C151.117 29.4158 150.982 29.4188 150.847 29.4338C150.838 29.4398 150.829 29.4468 150.82 29.4538C147.959 29.7798 145.078 30.6218 142.252 31.8428C142.251 31.8428 142.25 31.8438 142.249 31.8438C141.447 32.1898 140.653 32.5748 139.862 32.9748C139.672 33.0708 139.483 33.1698 139.293 33.2688C138.595 33.6338 137.903 34.0148 137.217 34.4148C137.153 34.4518 137.087 34.4838 137.023 34.5218C137.022 34.5228 137.022 34.5248 137.021 34.5268C135.001 35.7148 133.04 37.0388 131.164 38.4328C131.164 38.4318 131.164 38.4308 131.164 38.4298C131.041 38.5208 130.922 38.6158 130.8 38.7078C130.379 39.0238 129.961 39.3408 129.55 39.6628C129.372 39.8018 129.197 39.9428 129.021 40.0828C128.639 40.3868 128.26 40.6898 127.888 40.9968C127.824 41.0498 127.756 41.1018 127.692 41.1548C127.692 41.1558 127.692 41.1578 127.693 41.1598C126.207 42.3888 124.796 43.6308 123.481 44.8498C123.481 44.8488 123.481 44.8488 123.48 44.8478C123.381 44.9388 123.29 45.0278 123.193 45.1188C122.836 45.4518 122.484 45.7828 122.142 46.1098C121.99 46.2548 121.845 46.3968 121.696 46.5408C121.393 46.8338 121.096 47.1238 120.806 47.4098C120.744 47.4708 120.678 47.5338 120.617 47.5948C120.617 47.5958 120.618 47.5968 120.618 47.5978C119.249 48.9598 118.03 50.2348 116.999 51.3558C116.999 51.3558 116.999 51.3558 116.998 51.3548C116.972 51.3838 116.949 51.4098 116.922 51.4378C116.783 51.5888 116.654 51.7318 116.522 51.8768C116.389 52.0228 116.258 52.1668 116.133 52.3068C116.009 52.4448 115.89 52.5778 115.773 52.7088C115.645 52.8528 115.523 52.9898 115.404 53.1248C115.308 53.2338 115.211 53.3438 115.12 53.4468C114.977 53.6098 114.847 53.7608 114.718 53.9088C114.702 53.9268 114.684 53.9478 114.669 53.9658C114.633 53.7958 114.597 53.6228 114.555 53.4278C114.554 53.4238 114.553 53.4188 114.552 53.4148C114.534 53.3308 114.512 53.2358 114.493 53.1468C114.452 52.9608 114.41 52.7708 114.364 52.5658C114.334 52.4308 114.3 52.2868 114.268 52.1438C114.228 51.9678 114.186 51.7898 114.142 51.6028C114.102 51.4338 114.061 51.2618 114.018 51.0828C113.974 50.8988 113.927 50.7088 113.88 50.5158C113.833 50.3238 113.786 50.1348 113.736 49.9338C113.727 49.8978 113.719 49.8658 113.71 49.8298H113.709C113.337 48.3528 112.874 46.6498 112.32 44.7998C112.321 44.7998 112.322 44.7988 112.322 44.7978C112.297 44.7158 112.269 44.6278 112.244 44.5448C112.126 44.1538 112.002 43.7558 111.876 43.3528C111.815 43.1578 111.755 42.9648 111.692 42.7678C111.547 42.3158 111.395 41.8558 111.24 41.3918C111.198 41.2658 111.16 41.1448 111.117 41.0178C111.117 41.0188 111.116 41.0188 111.116 41.0188C110.541 39.3208 109.893 37.5568 109.173 35.7668C109.174 35.7658 109.175 35.7638 109.176 35.7628C109.145 35.6848 109.11 35.6068 109.078 35.5288C108.897 35.0818 108.709 34.6338 108.518 34.1858C108.43 33.9788 108.344 33.7728 108.254 33.5658C108.045 33.0848 107.828 32.6048 107.608 32.1238C107.545 31.9858 107.487 31.8488 107.423 31.7108C107.422 31.7118 107.422 31.7128 107.421 31.7138C106.436 29.5938 105.344 27.4948 104.135 25.4878C104.135 25.4858 104.135 25.4848 104.136 25.4828C104.098 25.4188 104.055 25.3598 104.017 25.2968C103.605 24.6188 103.178 23.9538 102.739 23.3008C102.619 23.1228 102.5 22.9448 102.378 22.7688C101.874 22.0398 101.358 21.3228 100.819 20.6358C100.819 20.6348 100.818 20.6348 100.818 20.6338C98.916 18.2128 96.785 16.0988 94.426 14.4478C94.421 14.4378 94.416 14.4268 94.411 14.4178C94.3 14.3398 94.183 14.2728 94.07 14.1978C93.849 14.0488 93.626 13.9048 93.4 13.7648C93.115 13.5878 92.826 13.4198 92.534 13.2568C92.318 13.1358 92.102 13.0138 91.882 12.9008C91.547 12.7288 91.204 12.5738 90.86 12.4218C90.673 12.3398 90.49 12.2488 90.301 12.1728C89.762 11.9538 89.215 11.7558 88.654 11.5888C88.585 11.5678 88.518 11.5518 88.45 11.5318C88.451 11.5338 88.452 11.5348 88.453 11.5368C85.681 10.7328 83.273 10.5158 81.179 10.6798C81.172 10.6758 81.165 10.6708 81.159 10.6668C81.037 10.6768 80.926 10.6988 80.806 10.7108C80.541 10.7378 80.281 10.7688 80.027 10.8078C79.821 10.8388 79.62 10.8748 79.421 10.9138C79.177 10.9618 78.938 11.0138 78.704 11.0718C78.51 11.1198 78.32 11.1718 78.133 11.2268C77.912 11.2918 77.695 11.3608 77.483 11.4338C77.3 11.4968 77.121 11.5628 76.945 11.6328C76.744 11.7118 76.548 11.7948 76.356 11.8808C76.271 11.9188 76.178 11.9508 76.095 11.9908C76.099 11.9928 76.104 11.9958 76.108 11.9978C75.79 12.1488 75.484 12.3068 75.191 12.4738C74.799 12.2128 74.407 11.9648 74.015 11.7108C74.018 11.7098 74.02 11.7088 74.023 11.7078C73.86 11.6018 73.697 11.5038 73.533 11.3998C73.203 11.1888 72.874 10.9818 72.544 10.7768C72.212 10.5708 71.88 10.3678 71.549 10.1678C71.196 9.95478 70.844 9.74379 70.493 9.53679C70.383 9.47179 70.272 9.4028 70.162 9.3388C70.16 9.3398 70.158 9.34079 70.155 9.34179C68.318 8.27579 66.498 7.29979 64.717 6.45379C63.239 5.75179 61.755 5.21977 60.274 4.82677C58.392 4.32677 56.514 4.06379 54.662 4.01479C53.917 3.99479 53.175 4.01079 52.439 4.05779C52.414 4.05979 52.388 4.0608 52.363 4.0628C51.628 4.1118 50.898 4.19179 50.174 4.30379C47.158 4.77179 44.257 5.7728 41.561 7.1798C41.557 7.1818 41.552 7.18479 41.548 7.18679C40.765 7.59579 40 8.03778 39.254 8.51278C37.292 9.76078 35.466 11.2218 33.817 12.8438C33.154 13.4968 32.521 14.1758 31.918 14.8768C31.902 14.8948 31.886 14.9138 31.871 14.9318C30.919 16.0418 30.041 17.2038 29.257 18.4098C27.834 20.5978 26.7 22.9208 25.851 25.3188C25.83 25.3798 25.808 25.4398 25.787 25.5008C24.689 28.6668 24.1 31.9638 24.051 35.2708C24.051 35.2898 24.05 35.3098 24.05 35.3288C24.031 36.8338 24.117 38.3398 24.324 39.8358C24.567 41.5958 24.975 43.3348 25.525 45.0498C25.559 45.1568 25.595 45.2628 25.63 45.3698C25.846 46.0178 26.079 46.6638 26.337 47.3038V47.3048C27.687 50.6448 29.623 53.8648 32.102 56.9058C32.102 56.9068 32.102 56.9068 32.103 56.9068C33.816 59.0078 35.78 61.0258 38.003 62.9348C38.62 63.4648 39.248 63.9698 39.88 64.4648C40.086 64.6268 40.292 64.7888 40.5 64.9478C40.573 65.0038 40.645 65.0628 40.719 65.1178C40.723 65.1178 40.726 65.1168 40.73 65.1158C42.738 66.6308 44.814 67.9838 46.957 69.1648C46.955 69.1658 46.953 69.1658 46.951 69.1668C47.047 69.2198 47.142 69.2758 47.239 69.3278C47.94 69.7078 48.648 70.0698 49.363 70.4138C49.771 70.6108 50.186 70.7888 50.599 70.9748C50.889 71.1048 51.177 71.2448 51.469 71.3698C51.47 71.3688 51.471 71.3688 51.472 71.3688C53.485 72.2258 55.55 72.9368 57.659 73.5178C57.654 73.5208 57.65 73.5238 57.645 73.5268C57.781 73.5648 57.92 73.5928 58.057 73.6298C58.524 73.7548 58.995 73.8698 59.467 73.9808C59.795 74.0578 60.124 74.1348 60.454 74.2058C60.935 74.3088 61.42 74.4028 61.906 74.4918C62.107 74.5288 62.304 74.5748 62.506 74.6098C62.51 74.6068 62.514 74.6028 62.518 74.5998C64.589 74.9548 66.697 75.1888 68.842 75.2918C68.841 75.2938 68.84 75.2948 68.838 75.2968C69.192 75.3138 69.55 75.3158 69.906 75.3258C70.293 75.3368 70.677 75.3558 71.066 75.3578C71.814 75.3638 72.567 75.3538 73.323 75.3288C73.324 75.3278 73.324 75.3278 73.324 75.3268C75.206 75.2648 77.113 75.1068 79.041 74.8568C79.04 74.8578 79.04 74.8598 79.039 74.8608C79.64 74.7828 80.245 74.6888 80.851 74.5928C81.357 74.5118 81.866 74.4208 82.375 74.3278C82.76 74.2568 83.144 74.1938 83.53 74.1158C83.531 74.1138 83.532 74.1118 83.533 74.1098C84.604 73.8938 85.679 73.6598 86.762 73.3868C87.643 73.1658 88.504 72.9288 89.35 72.6838C90.047 72.4818 90.73 72.2718 91.402 72.0568C91.721 71.9548 92.028 71.8488 92.341 71.7438C92.621 71.6498 92.908 71.5588 93.183 71.4628C93.183 71.4608 93.183 71.4588 93.184 71.4568C94.965 70.8388 96.65 70.1888 98.21 69.5298V69.5308C98.481 69.4158 98.734 69.3018 98.998 69.1868C99.271 69.0688 99.551 68.9498 99.816 68.8318C98.935 69.7978 98.074 70.7828 97.224 71.7758C97.225 71.7708 97.226 71.7658 97.228 71.7618C97.108 71.9028 96.993 72.0468 96.874 72.1878C96.285 72.8818 95.705 73.5798 95.133 74.2838C95.053 74.3818 94.969 74.4778 94.89 74.5768C94.693 74.7148 94.503 74.8528 94.302 74.9908C92.779 76.0318 91.126 77.0648 89.331 78.0658C88.73 78.4018 88.101 78.7358 87.456 79.0688C87.354 79.1218 87.252 79.1748 87.149 79.2268C86.296 78.6828 85.377 78.2158 84.392 77.8468C76.802 75.0068 68.347 78.8568 65.507 86.4458C65.507 86.4468 65.506 86.4478 65.506 86.4488C64.099 86.7168 62.646 86.9598 61.149 87.1778C59.974 87.3478 58.773 87.5028 57.541 87.6388C57.366 87.6578 57.187 87.6748 57.011 87.6928C55.366 86.3638 53.6 85.2948 51.848 84.6138C46.19 82.4158 40 83.9668 36.017 88.0578C35.331 88.0158 34.632 87.9618 33.934 87.9078C33.188 87.8518 32.436 87.7888 31.676 87.7198C29.988 87.5658 28.27 87.3858 26.512 87.1688C25.552 87.0508 24.577 86.9178 23.595 86.7798C23.552 86.7738 23.511 86.7688 23.468 86.7628C23.491 85.6548 23.365 84.5718 23.095 83.5378C22.459 82.5938 21.464 81.6388 19.97 81.3898C19.97 81.3898 21.092 81.3028 22.378 81.5528C22.154 81.0718 21.899 80.6068 21.614 80.1618C20.92 80.1288 20.154 80.2548 19.545 80.7728C19.545 80.7728 19.552 79.7268 20.756 78.9858C18.933 76.7878 16.312 75.2408 13.259 74.8288C12.48 74.7238 11.709 74.6988 10.953 74.7448C9.384 75.0978 7.748 75.8098 6.853 77.2278C6.853 77.2278 7.174 76.2978 8.066 75.2878C4.223 76.5268 1.163 79.7018 0.198 83.8108C0.23 84.1778 0.286998 84.5788 0.356998 84.9898L0.351 84.9888C0.367 85.0798 0.389 85.1738 0.407 85.2658C0.43 85.3828 0.450999 85.4978 0.477999 85.6178C0.521999 85.8148 0.574 86.0138 0.629 86.2138C0.652 86.2978 0.67 86.3788 0.695 86.4628C0.779 86.7428 0.875999 87.0228 0.984999 87.3028C1.018 87.3878 1.059 87.4708 1.094 87.5558C1.179 87.7578 1.27 87.9578 1.371 88.1568C1.423 88.2588 1.48 88.3578 1.536 88.4588C1.637 88.6398 1.745 88.8178 1.861 88.9938C1.927 89.0938 1.993 89.1918 2.064 89.2898C2.195 89.4698 2.338 89.6438 2.487 89.8148C2.558 89.8958 2.623 89.9788 2.698 90.0578C2.929 90.3008 3.176 90.5358 3.45 90.7528C3.45 90.7528 1.464 90.0408 0 88.1738C0.099 88.8768 0.258998 89.5638 0.478998 90.2258C1.519 91.0648 3.011 91.9778 4.427 91.7998C4.427 91.7998 3.482 92.8988 1.558 92.5748C2.886 94.7918 4.93 96.5588 7.419 97.5208C9.002 97.6418 11.036 97.4438 12.498 96.0438C12.498 96.0438 11.757 97.5518 10.216 98.2238C14.391 98.7468 18.338 97.0178 20.823 93.9758C21.408 92.8878 21.764 91.5948 21.625 90.1118C21.708 90.1238 21.789 90.1348 21.872 90.1468C22.054 90.4368 22.28 90.8678 22.42 91.4038C22.584 91.0428 22.724 90.6678 22.852 90.2878C25.542 90.6728 28.198 90.9978 30.81 91.2468C31.727 91.3338 32.639 91.4098 33.546 91.4808C33.294 91.9638 33.06 92.4608 32.858 92.9808C29.924 100.535 33.67 109.037 41.223 111.971C45.485 113.626 51.353 113.661 56.187 112.022C56.212 112.634 56.28 113.253 56.408 113.859C49.821 112.324 40.96 116.493 36.89 121.847C31.986 128.299 33.24 137.503 39.692 142.408C46.143 147.312 55.349 146.057 60.253 139.606C62.651 136.452 64.203 131.802 64.42 127.3C64.87 127.361 65.364 127.402 65.875 127.43L65.872 127.438C65.988 127.444 66.111 127.443 66.23 127.447C66.382 127.452 66.531 127.458 66.687 127.459C66.942 127.46 67.202 127.451 67.464 127.44C67.561 127.436 67.654 127.439 67.751 127.433C64.573 131.073 62.401 136.028 62.118 140.305C61.582 148.391 67.702 155.381 75.787 155.917C81.507 156.297 86.666 153.337 89.392 148.715C92.88 150.934 97.275 151.683 101.54 150.385C105.914 149.054 110.551 145.457 113.339 141.182C113.733 141.644 114.164 142.084 114.633 142.479C108.51 145.345 104.125 154.106 104.232 160.828C104.361 168.931 111.034 175.395 119.136 175.266C127.238 175.137 133.702 168.464 133.574 160.362C133.511 156.401 131.864 151.782 129.254 148.107C129.644 147.877 130.056 147.606 130.473 147.314L130.476 147.322C130.57 147.256 130.666 147.179 130.761 147.11C130.885 147.019 131.007 146.931 131.131 146.834C131.331 146.679 131.528 146.513 131.725 146.343C131.806 146.274 131.887 146.212 131.967 146.14C131.711 150.972 133.049 156.215 135.472 159.758C140.045 166.448 149.176 168.164 155.865 163.591C162.554 159.018 164.271 149.888 159.698 143.198C155.984 137.765 147.627 133.216 141.035 134.147C141.06 133.586 141.063 133.023 141.024 132.455C145.75 134.298 151.56 134.544 155.868 133.116C160.041 131.733 163.164 128.65 164.753 124.896C166.501 125.718 168.284 126.519 170.11 127.295C171.6 127.928 173.123 128.542 174.665 129.144C175.621 129.518 176.587 129.885 177.563 130.247C177.494 130.643 177.438 131.039 177.41 131.435C177.788 131.031 178.193 130.76 178.491 130.592C178.569 130.621 178.646 130.65 178.725 130.679C177.895 131.917 177.591 133.223 177.587 134.458C178.321 138.318 180.966 141.72 184.884 143.251C183.85 141.925 183.918 140.246 183.918 140.246C184.535 142.173 186.229 143.318 187.678 143.966C190.325 144.308 192.963 143.73 195.188 142.415C193.343 141.782 193.036 140.366 193.036 140.366C194.196 141.198 195.942 141.107 197.257 140.866C197.766 140.388 198.234 139.861 198.657 139.29C196.48 140.232 194.395 139.911 194.395 139.911C194.739 139.851 195.068 139.763 195.387 139.659C195.491 139.625 195.588 139.583 195.689 139.546C195.901 139.467 196.109 139.382 196.31 139.287C196.419 139.235 196.525 139.18 196.63 139.124C196.815 139.025 196.995 138.92 197.17 138.809C197.268 138.747 197.365 138.687 197.46 138.622C197.644 138.495 197.818 138.362 197.99 138.226C198.062 138.169 198.137 138.115 198.206 138.057C198.436 137.863 198.655 137.663 198.862 137.457C198.925 137.394 198.981 137.33 199.042 137.267C199.185 137.118 199.325 136.969 199.457 136.818C199.537 136.726 199.611 136.634 199.687 136.542C199.746 136.47 199.811 136.397 199.868 136.326L199.862 136.324C200.12 135.996 200.361 135.671 200.564 135.363C201.676 131.292 200.5 127.042 197.713 124.12C198.015 125.434 197.854 126.404 197.854 126.404C197.743 124.731 196.645 123.324 195.434 122.266C194.792 121.865 194.102 121.52 193.367 121.241C190.487 120.148 187.446 120.258 184.795 121.32C185.5 122.545 185.007 123.468 185.007 123.468C184.719 122.722 184.106 122.246 183.48 121.944C183.017 122.199 182.571 122.486 182.145 122.802C183.394 123.196 184.339 123.807 184.339 123.807C182.907 123.314 181.577 123.679 180.568 124.205C179.838 124.985 179.21 125.877 178.702 126.861C178.667 126.848 178.634 126.835 178.599 126.822C177.665 126.474 176.74 126.123 175.834 125.767C174.186 125.12 172.591 124.459 171.035 123.79C170.331 123.487 169.636 123.181 168.95 122.874C167.86 122.386 166.793 121.892 165.749 121.394C166.088 119.177 165.935 116.851 165.18 114.575C162.63 106.883 154.327 102.714 146.635 105.264C145.315 105.701 143.977 106.353 142.678 107.164C142.048 106.66 141.433 106.155 140.834 105.651C140.417 105.299 140.011 104.948 139.609 104.597C139.453 104.461 139.293 104.325 139.14 104.189C138.731 103.827 138.334 103.466 137.941 103.105C136.501 101.784 135.163 100.47 133.921 99.1708C133.489 98.7178 133.067 98.2678 132.658 97.8188C132.535 97.6838 132.412 97.5488 132.29 97.4138C131.873 96.9508 131.468 96.4898 131.075 96.0318C129.829 94.5798 128.696 93.1548 127.674 91.7678C127.215 91.1458 126.781 90.5318 126.363 89.9258C126.284 89.8118 126.207 89.6978 126.13 89.5838C125.721 88.9828 125.327 88.3878 124.958 87.8048C124.9 87.7128 124.846 87.6228 124.789 87.5308C123.762 85.8908 122.853 84.2858 122.056 82.7318C121.811 82.2538 121.577 81.7818 121.352 81.3138C121.327 81.2608 121.303 81.2098 121.278 81.1568C121.082 80.7468 120.893 80.3408 120.712 79.9388C120.68 79.8688 120.65 79.7998 120.62 79.7308C120.443 79.3338 120.272 78.9408 120.109 78.5528C120.089 78.5068 120.07 78.4608 120.051 78.4148C119.871 77.9838 119.698 77.5578 119.534 77.1388C118.679 74.9518 118.04 72.9288 117.563 71.1208C117.986 71.7378 118.431 72.3748 118.917 73.0438C119.269 73.5278 119.638 74.0238 120.023 74.5298C120.24 74.8148 120.474 75.1088 120.702 75.4008C120.877 75.6238 121.042 75.8428 121.223 76.0688C121.223 76.0688 121.223 76.0678 121.224 76.0678C122.281 77.3918 123.452 78.7658 124.723 80.1588C124.722 80.1608 124.721 80.1628 124.721 80.1648C124.917 80.3788 125.124 80.5948 125.324 80.8098C125.55 81.0518 125.771 81.2928 126.003 81.5358C126.491 82.0458 126.99 82.5558 127.507 83.0668V83.0658C128.134 83.6848 128.778 84.3038 129.447 84.9178C130.269 85.6738 131.102 86.3918 131.941 87.0928C131.941 87.0948 131.941 87.0978 131.941 87.0998C132.244 87.3528 132.552 87.5928 132.857 87.8388C133.257 88.1618 133.658 88.4818 134.062 88.7918C134.55 89.1668 135.04 89.5398 135.533 89.8958C135.533 89.8948 135.533 89.8928 135.533 89.8918C137.109 91.0308 138.709 92.0788 140.334 93.0308C140.334 93.0318 140.334 93.0328 140.334 93.0338C140.986 93.4158 141.643 93.7828 142.303 94.1348C142.649 94.3198 142.999 94.4878 143.347 94.6648C143.662 94.8248 143.976 94.9918 144.292 95.1448C144.292 95.1428 144.291 95.1408 144.291 95.1388C146.225 96.0718 148.19 96.8708 150.18 97.5468C150.182 97.5518 150.184 97.5568 150.186 97.5608C150.379 97.6258 150.574 97.6798 150.768 97.7428C151.238 97.8958 151.709 98.0448 152.182 98.1838C152.506 98.2788 152.831 98.3678 153.156 98.4568C153.624 98.5838 154.093 98.7068 154.564 98.8208C154.701 98.8538 154.837 98.8948 154.974 98.9268C154.971 98.9218 154.969 98.9168 154.966 98.9118C157.097 99.4058 159.251 99.7668 161.429 99.9728C161.43 99.9738 161.43 99.9748 161.431 99.9758C161.74 100.005 162.052 100.019 162.362 100.043C162.821 100.078 163.278 100.119 163.738 100.141C164.53 100.179 165.324 100.2 166.121 100.2C166.231 100.2 166.341 100.196 166.451 100.195C166.45 100.194 166.448 100.192 166.447 100.191C168.894 100.175 171.364 99.9758 173.851 99.6018C173.854 99.6038 173.857 99.6068 173.86 99.6088C173.951 99.5948 174.042 99.5778 174.133 99.5638C174.391 99.5238 174.649 99.4798 174.908 99.4358C175.7 99.3018 176.493 99.1578 177.288 98.9858C180.152 98.3678 182.841 97.5308 185.348 96.5018C186.886 95.8698 188.354 95.1638 189.746 94.3838C192.268 92.9708 194.542 91.3208 196.541 89.4488C196.622 89.3728 196.704 89.2968 196.784 89.2198C197.283 88.7428 197.769 88.2558 198.232 87.7508C198.977 86.9388 199.677 86.0918 200.326 85.2088C200.776 84.5978 201.195 83.9678 201.595 83.3258C201.992 82.6908 202.366 82.0418 202.715 81.3788C202.724 81.3618 202.733 81.3438 202.742 81.3268C203.934 79.0498 204.84 76.6238 205.439 74.1028C205.611 73.3798 205.754 72.6488 205.875 71.9118C205.885 71.8488 205.896 71.7848 205.906 71.7218C206.023 70.9828 206.118 70.2388 206.183 69.4888C206.345 67.6758 206.357 65.8478 206.211 64.0118ZM159.099 33.9068C159.163 33.9288 159.226 33.9528 159.289 33.9758C160.264 34.3298 161.154 34.7498 161.957 35.2338C162.027 35.2758 162.096 35.3178 162.164 35.3608C162.555 35.6068 162.931 35.8638 163.278 36.1408C163.745 36.5128 164.173 36.9128 164.561 37.3398C164.174 37.3888 163.789 37.4348 163.401 37.4868L163.4 37.4858C163.369 37.4898 163.338 37.4958 163.308 37.4998C161.667 37.7238 160.014 37.9808 158.358 38.2718C158.356 38.2718 158.354 38.2718 158.353 38.2728C156.384 38.6188 154.412 39.0138 152.451 39.4458C152.449 39.4448 152.448 39.4438 152.446 39.4428C152.264 39.4828 152.085 39.5278 151.903 39.5678C151.236 39.7168 150.571 39.8698 149.908 40.0278C149.589 40.1038 149.272 40.1818 148.955 40.2598C148.359 40.4068 147.765 40.5558 147.174 40.7098C146.99 40.7578 146.803 40.8018 146.62 40.8498C146.623 40.8508 146.626 40.8518 146.629 40.8528C144.585 41.3918 142.569 41.9668 140.606 42.5798H140.605C140.595 42.5828 140.585 42.5868 140.576 42.5898C139.6 42.8948 138.639 43.2098 137.69 43.5308C137.452 43.6108 137.22 43.6938 136.985 43.7748C136.28 44.0178 135.583 44.2648 134.896 44.5168C134.749 44.5708 134.596 44.6218 134.45 44.6758C134.454 44.6768 134.457 44.6778 134.461 44.6788C131.788 45.6688 129.257 46.7158 126.939 47.8058C126.82 47.8618 126.709 47.9188 126.592 47.9748C126.05 48.2328 125.513 48.4928 124.995 48.7548C124.845 48.8308 124.705 48.9088 124.557 48.9848C124.41 49.0608 124.267 49.1368 124.122 49.2128C124.34 49.0018 124.553 48.7928 124.778 48.5778C125.9 47.5078 127.102 46.4058 128.37 45.3028C128.751 44.9718 129.14 44.6418 129.532 44.3118C129.658 44.2058 129.781 44.0988 129.909 43.9928C130.37 43.6088 130.84 43.2268 131.315 42.8488C132.692 41.7508 134.124 40.6858 135.594 39.6778C136.184 39.2728 136.781 38.8788 137.382 38.4968C137.487 38.4298 137.591 38.3598 137.697 38.2938C138.411 37.8468 139.131 37.4188 139.857 37.0118C141.433 36.1278 143.033 35.3428 144.638 34.7038C145.256 34.4578 145.875 34.2328 146.494 34.0308C146.562 34.0088 146.629 33.9928 146.697 33.9708C147.237 33.7998 147.777 33.6428 148.316 33.5088C148.474 33.4688 148.631 33.4408 148.789 33.4058C149.238 33.3038 149.687 33.2088 150.134 33.1348C150.321 33.1038 150.506 33.0838 150.693 33.0578C151.109 33.0008 151.525 32.9518 151.938 32.9208C153.494 32.8058 155.03 32.8728 156.524 33.1868C156.867 33.2588 157.199 33.3398 157.526 33.4248C158.072 33.5678 158.595 33.7298 159.099 33.9068ZM161.899 57.6568C161.476 58.1208 161.027 58.5628 160.565 58.9898C160.448 59.0978 160.329 59.2058 160.21 59.3108C159.723 59.7408 159.223 60.1558 158.699 60.5378C157.866 61.1458 156.99 61.6928 156.075 62.1598C155.493 62.4578 154.848 62.7408 154.153 63.0078C153.612 63.2158 153.032 63.4128 152.429 63.6008C152.355 63.6238 152.282 63.6468 152.208 63.6698C151.592 63.8578 150.952 64.0358 150.282 64.2028C148.646 64.6098 146.862 64.9518 144.974 65.2188C144.31 65.3128 143.634 65.3968 142.947 65.4708C142.93 65.4728 142.913 65.4738 142.897 65.4758C142.215 65.5488 141.525 65.6138 140.826 65.6688C139.079 65.8068 137.285 65.8848 135.474 65.8958C134.821 65.8998 134.167 65.8978 133.511 65.8838C132.77 65.8678 132.047 65.8378 131.333 65.8008C129.473 65.7038 127.708 65.5378 126.077 65.3068C125.835 65.2728 125.599 65.2348 125.363 65.1978C125.172 65.1678 124.981 65.1378 124.795 65.1068C124.567 65.0678 124.344 65.0278 124.122 64.9858C123.937 64.9508 123.753 64.9158 123.572 64.8798C123.357 64.8368 123.146 64.7928 122.938 64.7468C122.76 64.7078 122.586 64.6678 122.413 64.6278C122.212 64.5808 122.011 64.5328 121.817 64.4838C120.74 64.2098 119.76 63.9028 118.907 63.5638C118.556 63.4238 118.231 63.2778 117.922 63.1278C117.891 63.1128 117.865 63.0978 117.835 63.0828C117.819 63.0478 117.811 63.0108 117.793 62.9758C117.564 62.5328 117.325 62.1238 117.08 61.7428C117.414 62.0598 117.852 62.2428 118.306 62.2428C118.583 62.2428 118.864 62.1778 119.127 62.0418C120.003 61.5878 120.345 60.5098 119.891 59.6338C119.537 58.9508 119.157 58.3658 118.768 57.8258C118.77 57.8198 118.773 57.8138 118.775 57.8078C118.705 57.7108 118.632 57.6298 118.561 57.5368C118.5 57.4578 118.442 57.3668 118.381 57.2908C118.439 57.2358 118.491 57.1808 118.551 57.1248C118.7 56.9868 118.861 56.8478 119.022 56.7088C121.111 54.9028 124.197 53.0228 128.053 51.1898C128.318 51.0638 128.58 50.9378 128.852 50.8118C129.194 50.6538 129.548 50.4978 129.901 50.3408C130.313 50.1578 130.73 49.9758 131.156 49.7948C131.548 49.6278 131.94 49.4618 132.344 49.2958C132.647 49.1718 132.961 49.0488 133.271 48.9258C135.84 47.9058 138.62 46.9178 141.589 45.9898C143.003 45.5478 144.429 45.1338 145.859 44.7378C147.839 44.1888 149.828 43.6798 151.815 43.2228C153.561 42.8208 155.305 42.4548 157.036 42.1258C158.782 41.7948 160.514 41.5018 162.224 41.2478C163.688 41.0298 165.132 40.8488 166.557 40.6898C166.662 40.9738 166.773 41.2538 166.856 41.5508C166.87 41.6018 166.883 41.6548 166.896 41.7058C167.019 42.1698 167.119 42.6468 167.186 43.1448C167.251 43.6308 167.282 44.1238 167.292 44.6208C167.33 46.5068 166.976 48.4558 166.304 50.3618C166.129 50.8578 165.931 51.3508 165.714 51.8388C165.654 51.9738 165.594 52.1098 165.531 52.2438C165.269 52.8008 164.988 53.3538 164.673 53.8938C163.893 55.2308 162.958 56.4958 161.899 57.6568ZM101.367 58.5478C101.28 58.5208 101.192 58.4928 101.104 58.4648C100.435 58.2508 99.747 58.0148 99.039 57.7508C97.504 57.1778 95.885 56.4868 94.215 55.6898C93.571 55.3828 92.922 55.0648 92.265 54.7258C91.682 54.4248 91.106 54.1148 90.534 53.7998C88.947 52.9268 87.408 52.0018 85.938 51.0478C85.35 50.6658 84.773 50.2798 84.209 49.8898C84.195 49.8808 84.181 49.8708 84.168 49.8618C83.6 49.4688 83.045 49.0728 82.507 48.6728C80.975 47.5378 79.57 46.3868 78.326 45.2488C78.119 45.0598 77.921 44.8708 77.723 44.6828C77.632 44.5958 77.54 44.5088 77.451 44.4228C77.28 44.2568 77.114 44.0908 76.95 43.9268C76.835 43.8108 76.722 43.6948 76.611 43.5788C76.472 43.4338 76.333 43.2888 76.2 43.1458C76.059 42.9938 75.925 42.8418 75.792 42.6908C75.693 42.5788 75.589 42.4658 75.493 42.3538C75.009 41.7868 74.578 41.2308 74.208 40.6918C73.627 39.8438 73.117 38.9448 72.674 38.0118C72.396 37.4268 72.155 36.8238 71.932 36.2148C71.877 36.0648 71.824 35.9138 71.773 35.7628C71.571 35.1688 71.388 34.5678 71.238 33.9598C70.861 32.4328 70.642 30.8728 70.594 29.3298C70.574 28.7048 70.591 28.0848 70.626 27.4698C70.634 27.3218 70.647 27.1758 70.658 27.0278C70.7 26.4948 70.761 25.9668 70.844 25.4468C71.163 23.4518 71.78 21.5698 72.714 19.9298C72.959 19.4978 73.222 19.0788 73.51 18.6838C73.806 18.2788 74.121 17.9078 74.45 17.5588C74.487 17.5188 74.524 17.4788 74.561 17.4398C74.776 17.2178 75.008 17.0238 75.236 16.8238C76.413 17.6428 77.594 18.4948 78.777 19.3838C80.159 20.4228 81.541 21.5048 82.917 22.6288C84.282 23.7428 85.639 24.8968 86.982 26.0828C88.51 27.4328 90.016 28.8278 91.494 30.2538C92.563 31.2848 93.619 32.3288 94.651 33.3918C96.82 35.6248 98.794 37.8208 100.567 39.9448C100.778 40.1978 100.993 40.4518 101.198 40.7028C101.477 41.0438 101.744 41.3798 102.012 41.7168C102.3 42.0788 102.58 42.4378 102.855 42.7948C103.089 43.0988 103.323 43.4028 103.547 43.7018C103.728 43.9438 103.899 44.1818 104.073 44.4198C106.587 47.8688 108.402 50.9918 109.376 53.5748C109.411 53.6678 109.444 53.7588 109.477 53.8508C108.722 54.1898 108.281 55.0218 108.465 55.8628C108.569 56.3338 108.851 56.7188 109.224 56.9668C109.188 56.9658 109.152 56.9658 109.117 56.9658C109.056 56.9648 108.991 56.9628 108.933 56.9628C108.837 56.9638 108.754 56.9678 108.668 56.9718C108.605 56.9748 108.541 56.9768 108.484 56.9798C108.41 56.9848 108.35 56.9908 108.286 56.9968C108.23 57.0018 108.175 57.0068 108.126 57.0128C108.074 57.0188 108.034 57.0248 107.992 57.0308C107.947 57.0378 107.908 57.0428 107.874 57.0488C107.838 57.0548 107.819 57.0588 107.796 57.0628C107.788 57.0648 107.771 57.0668 107.765 57.0688V57.0698C107.756 57.0718 107.736 57.0748 107.731 57.0768C106.768 57.2878 106.146 58.2438 106.358 59.2068C106.396 59.3778 106.463 59.5328 106.542 59.6788C106.429 59.6678 106.325 59.6658 106.209 59.6518C105.314 59.5458 104.327 59.3528 103.272 59.0878C102.66 58.9338 102.024 58.7528 101.367 58.5478ZM110.262 74.1378C110.14 78.5828 110.541 84.2358 112.091 91.0048C112.104 91.0618 112.118 91.1198 112.131 91.1778C112.57 93.0768 113.097 95.0608 113.732 97.1338C109.971 98.5348 107.105 101.331 105.535 104.748C105.215 104.606 104.896 104.461 104.561 104.34C98.546 102.173 89.469 103.251 84.555 107.546C84.491 107.408 84.426 107.27 84.358 107.134C88.248 104.549 91.547 100.592 92.992 96.7308C94.573 92.5058 94.076 88.0148 92.019 84.3708C92.112 84.2398 92.202 84.1088 92.296 83.9778C92.864 83.1838 93.443 82.3888 94.033 81.5948C94.088 81.5218 94.144 81.4478 94.199 81.3748C94.724 80.6708 95.256 79.9688 95.797 79.2678C96.348 78.5548 96.907 77.8438 97.474 77.1378C98.582 76.3478 99.619 75.5568 100.588 74.7718C100.588 74.7718 100.589 74.7718 100.589 74.7708C101.579 73.9698 102.499 73.1758 103.351 72.3978C103.356 72.3938 103.361 72.3888 103.366 72.3848C107.959 68.1878 110.595 64.4578 111.77 62.5758C111.78 62.5718 111.79 62.5658 111.8 62.5608C111.833 62.5458 111.867 62.5278 111.9 62.5118C111.919 62.5028 111.937 62.4938 111.956 62.4838C111.914 62.6348 111.872 62.7828 111.83 62.9388C111.76 63.1978 111.692 63.4658 111.624 63.7388C111.624 63.7398 111.623 63.7408 111.623 63.7418C110.939 66.4978 110.377 69.9588 110.262 74.1378ZM116.512 60.9528C116.514 60.9498 116.515 60.9458 116.517 60.9428C116.487 60.9028 116.456 60.8708 116.426 60.8318C116.391 60.7858 116.357 60.7318 116.322 60.6868C116.329 60.6678 116.336 60.6488 116.344 60.6308C116.429 60.7718 116.513 60.9168 116.596 61.0688C116.567 61.0308 116.54 60.9898 116.512 60.9528ZM82.315 123.596C82.681 123.17 83.032 122.729 83.351 122.259C84.217 123.727 85.29 125.127 86.496 126.4C86.36 126.547 86.225 126.695 86.096 126.848C84.971 125.522 83.702 124.401 82.315 123.596ZM113.876 127.688C113.355 127.023 112.753 126.407 112.076 125.847C112.132 125.756 112.181 125.659 112.235 125.566C113.181 126.327 114.175 127.004 115.199 127.573C115.174 127.585 114.652 127.805 113.876 127.688ZM80.286 14.3848C80.724 14.3068 81.177 14.2598 81.639 14.2308C81.719 14.2258 81.799 14.2218 81.879 14.2178C82.816 14.1758 83.799 14.2308 84.825 14.3848C84.892 14.3948 84.958 14.4048 85.026 14.4148C85.553 14.4998 86.09 14.6068 86.639 14.7438C86.967 14.8258 87.298 14.9128 87.633 15.0128C89.096 15.4498 90.478 16.1228 91.791 16.9658C92.14 17.1898 92.482 17.4308 92.821 17.6798C92.972 17.7908 93.125 17.8968 93.275 18.0128C93.633 18.2908 93.981 18.5878 94.327 18.8918C94.449 18.9988 94.574 19.0988 94.694 19.2088C95.105 19.5848 95.506 19.9808 95.899 20.3898C95.947 20.4398 95.998 20.4848 96.046 20.5358C96.494 21.0078 96.931 21.5008 97.357 22.0118C98.464 23.3398 99.495 24.7918 100.459 26.3218C100.903 27.0258 101.332 27.7448 101.746 28.4778C101.807 28.5868 101.866 28.6978 101.927 28.8068C102.274 29.4288 102.61 30.0608 102.936 30.6978C103.752 32.2928 104.506 33.9208 105.195 35.5508C105.429 36.1028 105.657 36.6548 105.876 37.2048C105.935 37.3538 105.991 37.5008 106.049 37.6498C106.238 38.1308 106.425 38.6118 106.603 39.0888C107.192 40.6628 107.723 42.2048 108.199 43.6818C108.294 43.9768 108.381 44.2608 108.472 44.5498C108.38 44.4128 108.29 44.2758 108.196 44.1388C108.103 44.0018 108.018 43.8678 107.923 43.7308C107.587 43.2448 107.233 42.7528 106.873 42.2588C106.802 42.1618 106.739 42.0668 106.667 41.9698H106.666C105.148 39.9058 103.422 37.7788 101.546 35.6338C101.55 35.6348 101.553 35.6358 101.557 35.6368C101.456 35.5208 101.346 35.4038 101.244 35.2878C100.757 34.7358 100.26 34.1828 99.752 33.6288C99.586 33.4478 99.425 33.2678 99.257 33.0868C98.576 32.3508 97.881 31.6158 97.168 30.8818C97.16 30.8738 97.153 30.8658 97.145 30.8578H97.144C95.711 29.3828 94.213 27.9158 92.674 26.4678C92.677 26.4688 92.68 26.4688 92.683 26.4688C92.545 26.3388 92.402 26.2118 92.264 26.0828C91.817 25.6648 91.366 25.2508 90.911 24.8368C90.669 24.6168 90.428 24.3968 90.184 24.1788C89.676 23.7228 89.163 23.2708 88.647 22.8208C88.508 22.6998 88.372 22.5758 88.232 22.4548C88.23 22.4548 88.229 22.4548 88.227 22.4548C86.709 21.1408 85.165 19.8528 83.599 18.6098C83.597 18.6088 83.595 18.6068 83.593 18.6058C82.275 17.5598 80.945 16.5458 79.608 15.5648C79.584 15.5478 79.561 15.5278 79.537 15.5108C79.221 15.2788 78.903 15.0558 78.587 14.8278C79.131 14.6368 79.698 14.4898 80.286 14.3848ZM85.786 69.9468C84.793 70.1948 83.81 70.4108 82.832 70.6088C82.56 70.6648 82.29 70.7128 82.019 70.7648C79.047 71.3298 76.142 71.6728 73.309 71.7828C73.022 71.7948 72.739 71.7958 72.454 71.8018C69.93 71.8588 67.465 71.7288 65.056 71.4228C64.665 71.3738 64.272 71.3328 63.884 71.2728C61.098 70.8468 58.391 70.1758 55.765 69.2568C55.478 69.1568 55.197 69.0398 54.912 68.9338C54.366 68.7298 53.821 68.5228 53.282 68.2978C52.926 68.1488 52.574 67.9878 52.221 67.8298C49.898 66.7878 47.641 65.5508 45.458 64.1008C45.128 63.8818 44.803 63.6478 44.477 63.4198C44.04 63.1138 43.604 62.8058 43.173 62.4828C42.859 62.2478 42.546 62.0068 42.235 61.7628C41.597 61.2628 40.959 60.7588 40.334 60.2218C39.084 59.1478 37.951 58.0608 36.906 56.9658C35.764 55.7698 34.736 54.5638 33.825 53.3518C32.559 51.6678 31.501 49.9728 30.646 48.2798C30.339 47.6718 30.065 47.0638 29.807 46.4578C29.747 46.3168 29.688 46.1748 29.631 46.0338C29.386 45.4318 29.157 44.8308 28.959 44.2318C28.49 42.8118 28.153 41.3998 27.928 40.0038C27.684 38.4928 27.577 37.0008 27.589 35.5368C27.601 34.1208 27.719 32.7308 27.942 31.3758C28.068 30.6118 28.227 29.8588 28.414 29.1188C28.416 29.1108 28.418 29.1028 28.42 29.0938C28.609 28.3518 28.826 27.6218 29.07 26.9058C29.552 25.4888 30.14 24.1308 30.812 22.8398C31.259 21.9808 31.739 21.1478 32.256 20.3538C32.497 19.9838 32.749 19.6188 33.009 19.2588C33.036 19.2218 33.063 19.1848 33.09 19.1478C33.345 18.7988 33.606 18.4528 33.876 18.1128C35.102 16.5688 36.491 15.1258 38.018 13.8378C38.681 13.2778 39.371 12.7498 40.082 12.2518C40.117 12.2268 40.153 12.2028 40.189 12.1778C40.899 11.6848 41.63 11.2208 42.381 10.7958C44.162 9.7878 46.051 8.98479 48.011 8.43279C48.371 8.33079 48.734 8.23878 49.099 8.15478C49.103 8.15378 49.107 8.15278 49.112 8.15178C49.475 8.06878 49.84 7.99379 50.207 7.92879C50.209 7.92879 50.212 7.92779 50.214 7.92779C50.954 7.79579 51.702 7.70177 52.456 7.64577C54.05 7.52877 55.67 7.5858 57.3 7.8438C57.953 7.9478 58.607 8.08579 59.262 8.25579C59.284 8.26179 59.307 8.26679 59.329 8.27279C59.986 8.44579 60.643 8.65077 61.3 8.89178C61.931 9.12378 62.561 9.38079 63.19 9.67879C64.202 10.1598 65.24 10.6958 66.289 11.2638C66.898 11.5928 67.513 11.9358 68.132 12.2928C68.136 12.2948 68.139 12.2968 68.143 12.2988C68.763 12.6558 69.388 13.0268 70.017 13.4098C70.734 13.8468 71.455 14.2988 72.181 14.7678C71.606 15.3418 71.125 15.9148 70.728 16.4468C70.727 16.4468 70.726 16.4468 70.725 16.4468C70.693 16.4898 70.659 16.5338 70.628 16.5768C70.253 17.0918 69.916 17.6358 69.599 18.1948C69.512 18.3488 69.433 18.5068 69.351 18.6638C69.123 19.0948 68.912 19.5348 68.718 19.9868C68.678 20.0798 68.626 20.1658 68.587 20.2588C68.592 20.2578 68.598 20.2578 68.604 20.2568C67.726 22.3878 67.209 24.7208 67.056 27.1338C67.054 27.1348 67.051 27.1368 67.049 27.1378C67.047 27.1758 67.049 27.2158 67.047 27.2538C66.971 28.5628 66.998 29.8908 67.134 31.2198C67.136 31.2418 67.136 31.2648 67.138 31.2878C67.139 31.2868 67.141 31.2858 67.142 31.2848C67.37 33.4658 67.881 35.6418 68.674 37.7218C68.673 37.7228 68.672 37.7248 68.671 37.7258C68.678 37.7438 68.687 37.7608 68.694 37.7788C68.947 38.4378 69.228 39.0868 69.538 39.7238C69.568 39.7858 69.604 39.8448 69.634 39.9068C69.909 40.4598 70.207 41.0018 70.525 41.5318C70.559 41.5888 70.586 41.6498 70.621 41.7068C70.623 41.7028 70.625 41.6988 70.627 41.6948C70.835 42.0358 71.039 42.3788 71.265 42.7088C72.068 43.8798 73.095 45.0998 74.307 46.3368L74.308 46.3378C74.726 46.7648 75.174 47.1928 75.634 47.6228C75.728 47.7098 75.822 47.7968 75.917 47.8848C77.764 49.5778 79.919 51.2798 82.297 52.9178C82.298 52.9178 82.298 52.9188 82.299 52.9188C82.852 53.2998 83.419 53.6758 83.994 54.0488C84.077 54.1018 84.159 54.1558 84.242 54.2088C85.818 55.2218 87.467 56.2028 89.173 57.1288C89.656 57.3908 90.141 57.6478 90.631 57.9008C90.827 58.0018 91.05 58.1138 91.272 58.2248V58.2258C91.297 58.2388 91.328 58.2528 91.354 58.2658C91.518 58.3478 91.692 58.4328 91.868 58.5198C92.02 58.5948 92.169 58.6678 92.33 58.7458C92.501 58.8288 92.679 58.9118 92.859 58.9978C93.042 59.0848 93.226 59.1708 93.418 59.2598C93.597 59.3428 93.78 59.4258 93.967 59.5098C94.176 59.6038 94.386 59.6978 94.603 59.7938C94.792 59.8768 94.982 59.9588 95.176 60.0428C95.297 60.0948 95.41 60.1458 95.533 60.1978C95.532 60.1958 95.532 60.1948 95.532 60.1928C97.15 60.8748 98.931 61.5478 100.754 62.0968C100.755 62.0978 100.755 62.0998 100.756 62.1008C101.019 62.1798 101.283 62.2518 101.546 62.3258C101.807 62.3978 102.066 62.4668 102.327 62.5328C102.622 62.6078 102.917 62.6808 103.212 62.7468C103.411 62.7918 103.608 62.8298 103.806 62.8698C102.944 63.3368 101.979 63.8358 100.927 64.3518C100.614 64.5058 100.285 64.6618 99.957 64.8168C99.719 64.9298 99.481 65.0428 99.236 65.1568C98.907 65.3088 98.567 65.4618 98.224 65.6138C96.69 66.2988 95.025 66.9848 93.241 67.6408C92.916 67.7608 92.584 67.8778 92.251 67.9948C91.905 68.1168 91.554 68.2368 91.2 68.3558C90.856 68.4708 90.511 68.5858 90.161 68.6978C88.75 69.1458 87.295 69.5698 85.786 69.9468ZM64.943 101.744C64.949 98.0718 63.072 94.1718 60.34 90.9448C61.557 90.7838 62.759 90.6018 63.949 90.4018C63.948 90.3998 63.946 90.3978 63.945 90.3968C64.147 90.3628 64.356 90.3368 64.557 90.3018C64.002 94.2618 64.499 98.7648 66.056 102.471C66.027 102.464 65.48 102.314 64.943 101.744ZM119.621 85.7638C119.622 85.7658 119.623 85.7668 119.624 85.7688C119.925 86.3208 120.239 86.8768 120.566 87.4388C120.619 87.5308 120.672 87.6218 120.726 87.7138C121.069 88.2968 121.42 88.8828 121.793 89.4758C122.042 89.8728 122.301 90.2658 122.559 90.6598C122.568 90.6628 122.577 90.6638 122.586 90.6668C123.643 92.2788 124.762 93.8658 125.966 95.4208C125.963 95.4208 125.959 95.4198 125.956 95.4198C125.998 95.4738 126.042 95.5268 126.084 95.5798C126.314 95.8748 126.554 96.1658 126.789 96.4598C127.294 97.0898 127.811 97.7148 128.34 98.3338C128.596 98.6328 128.847 98.9348 129.109 99.2318C129.161 99.2918 129.21 99.3518 129.263 99.4108C129.266 99.4108 129.27 99.4108 129.274 99.4108C130.465 100.757 131.724 102.074 133.029 103.37C133.019 103.371 133.008 103.372 132.998 103.373C133.399 103.771 133.812 104.163 134.224 104.556C134.363 104.689 134.498 104.823 134.638 104.956C135.246 105.528 135.863 106.095 136.492 106.657C136.499 106.656 136.506 106.654 136.513 106.653C137.542 107.573 138.602 108.477 139.691 109.368C136.319 112.294 133.623 116.221 132.885 120.134C132.749 120.065 132.614 119.996 132.476 119.931C133.938 115.495 134.088 110.345 132.839 106.417C130.679 99.6218 124.032 95.5048 117.205 96.2848C117.193 96.2468 117.183 96.2108 117.172 96.1728C116.93 95.3848 116.706 94.6118 116.495 93.8508C116.475 93.7788 116.454 93.7058 116.435 93.6348C116.223 92.8618 116.025 92.1008 115.843 91.3548C115.332 89.2648 114.937 87.2878 114.636 85.4208C114.494 84.5368 114.372 83.6778 114.271 82.8438C114.271 82.8438 114.271 82.8438 114.271 82.8428C114.169 82.0088 114.087 81.2008 114.021 80.4188C113.889 78.8388 113.827 77.3648 113.819 75.9968C113.816 75.4998 113.817 75.0108 113.827 74.5428C113.84 73.9238 113.867 73.3268 113.901 72.7418C113.915 72.5058 113.933 72.2768 113.949 72.0458C113.959 71.9048 113.971 71.7688 113.982 71.6298C114.336 73.0118 114.78 74.5128 115.335 76.1138C115.336 76.1178 115.338 76.1218 115.339 76.1258C115.717 77.2168 116.148 78.3538 116.636 79.5308C116.636 79.5318 116.636 79.5318 116.637 79.5318C117.455 81.5088 118.439 83.5938 119.621 85.7638ZM194.159 86.8548C193.699 87.2868 193.211 87.7058 192.71 88.1178C192.592 88.2138 192.474 88.3098 192.354 88.4058C191.838 88.8168 191.307 89.2198 190.747 89.6078C189.187 90.6888 187.449 91.6738 185.533 92.5498C184.154 93.1798 182.676 93.7498 181.102 94.2568C179.661 94.7208 178.147 95.1358 176.536 95.4838C175.73 95.6578 174.93 95.7968 174.13 95.9318C173.74 95.9968 173.351 96.0608 172.963 96.1168C172.43 96.1948 171.899 96.2578 171.369 96.3178C170.973 96.3628 170.577 96.4128 170.183 96.4478C167.572 96.6808 164.998 96.6928 162.459 96.5008C162.074 96.4718 161.688 96.4458 161.305 96.4068C160.724 96.3478 160.146 96.2698 159.568 96.1888C159.267 96.1468 158.965 96.1148 158.665 96.0668C155.919 95.6228 153.219 94.9208 150.567 93.9668C150.197 93.8338 149.831 93.6818 149.463 93.5388C147.2 92.6598 144.971 91.5978 142.781 90.3448C142.534 90.2028 142.285 90.0668 142.038 89.9208C139.6 88.4728 137.209 86.7858 134.867 84.8718C134.654 84.6978 134.441 84.5268 134.229 84.3488C133.464 83.7068 132.702 83.0488 131.948 82.3568C130.889 81.3868 129.887 80.4028 128.934 79.4188C128.002 78.4568 127.121 77.4948 126.292 76.5438C125.253 75.3538 124.295 74.1828 123.419 73.0568C123.015 72.5378 122.629 72.0278 122.261 71.5308C122.258 71.5258 122.254 71.5218 122.25 71.5168C121.881 71.0188 121.53 70.5318 121.196 70.0598C120.563 69.1638 119.992 68.3198 119.487 67.5438C119.696 67.6078 119.905 67.6718 120.117 67.7318C120.202 67.7558 120.287 67.7768 120.373 67.7998C121.036 67.9808 121.71 68.1438 122.392 68.2878C122.441 68.2978 122.488 68.3128 122.537 68.3228C122.538 68.3218 122.539 68.3208 122.54 68.3208C124.405 68.7078 126.291 68.9658 128.038 69.1378C128.037 69.1388 128.036 69.1398 128.035 69.1408C128.167 69.1538 128.291 69.1628 128.422 69.1748C128.634 69.1948 128.843 69.2128 129.05 69.2308C129.282 69.2498 129.507 69.2678 129.731 69.2838C129.941 69.2988 130.147 69.3138 130.35 69.3268C130.554 69.3398 130.75 69.3508 130.946 69.3618C131.151 69.3728 131.353 69.3848 131.549 69.3938C131.721 69.4018 131.881 69.4078 132.045 69.4148C132.247 69.4228 132.446 69.4318 132.634 69.4378C132.662 69.4388 132.694 69.4398 132.721 69.4408L132.722 69.4398C132.97 69.4478 133.219 69.4548 133.44 69.4598C133.991 69.4718 134.54 69.4768 135.089 69.4768C136.321 69.4768 137.543 69.4448 138.75 69.3888C138.751 69.3888 138.753 69.3888 138.754 69.3888C139.447 69.3558 140.134 69.3128 140.815 69.2628C140.913 69.2558 141.012 69.2478 141.11 69.2408C141.794 69.1878 142.473 69.1268 143.141 69.0558C146.013 68.7498 148.718 68.2818 151.149 67.6748C151.274 67.6438 151.398 67.6118 151.521 67.5798C153.9 66.9638 156.005 66.2148 157.706 65.3448C158.062 65.1628 158.405 64.9578 158.75 64.7578C158.75 64.7618 158.75 64.7668 158.75 64.7718C158.808 64.7388 158.86 64.6978 158.918 64.6638C159.451 64.3488 159.972 64.0148 160.478 63.6598C160.534 63.6208 160.592 63.5858 160.648 63.5468C161.224 63.1348 161.781 62.6988 162.318 62.2398C162.333 62.2268 162.349 62.2168 162.364 62.2038C162.364 62.2018 162.364 62.1998 162.364 62.1988C164.053 60.7488 165.54 59.0798 166.78 57.2718C166.781 57.2738 166.782 57.2748 166.782 57.2758C166.795 57.2568 166.805 57.2378 166.818 57.2188C167.571 56.1148 168.228 54.9608 168.786 53.7738C168.802 53.7388 168.823 53.7058 168.839 53.6708C168.837 53.6678 168.836 53.6658 168.834 53.6638C169.851 51.4698 170.509 49.1718 170.753 46.8808C170.758 46.8838 170.762 46.8868 170.767 46.8898C170.793 46.6468 170.808 46.4038 170.825 46.1608C170.832 46.0598 170.844 45.9588 170.849 45.8578C170.873 45.3958 170.874 44.9358 170.863 44.4768C170.86 44.3518 170.855 44.2278 170.849 44.1028C170.827 43.6258 170.792 43.1508 170.729 42.6808C170.722 42.6288 170.713 42.5738 170.706 42.5208C170.705 42.5208 170.704 42.5198 170.704 42.5198C170.609 41.8628 170.46 41.1308 170.228 40.3508C171.09 40.2848 171.939 40.2308 172.777 40.1888C173.513 40.1518 174.239 40.1238 174.955 40.1058C174.958 40.1058 174.961 40.1058 174.965 40.1058C175.68 40.0878 176.384 40.0788 177.077 40.0798C178.27 40.0818 179.438 40.1048 180.557 40.1648C181.252 40.2018 181.928 40.2768 182.593 40.3738C183.286 40.4748 183.962 40.6078 184.622 40.7698C184.644 40.7748 184.666 40.7808 184.688 40.7858C185.345 40.9488 185.986 41.1398 186.61 41.3598C188.167 41.9098 189.618 42.6328 190.962 43.4958C191.599 43.9048 192.212 44.3448 192.8 44.8138C192.801 44.8138 192.801 44.8148 192.801 44.8148C193.389 45.2838 193.953 45.7818 194.492 46.3058C195.952 47.7258 197.23 49.3328 198.314 51.0688C198.535 51.4228 198.747 51.7828 198.953 52.1468C198.984 52.2018 199.014 52.2558 199.044 52.3108C199.217 52.6218 199.383 52.9368 199.544 53.2538C199.584 53.3328 199.624 53.4108 199.663 53.4898C199.818 53.8018 199.966 54.1158 200.109 54.4338C200.141 54.5058 200.175 54.5758 200.207 54.6478C200.379 55.0358 200.543 55.4278 200.697 55.8228C201.424 57.6838 201.958 59.6148 202.299 61.5568C202.374 61.9828 202.438 62.4098 202.496 62.8368C202.502 62.8838 202.509 62.9308 202.515 62.9768C202.572 63.4168 202.619 63.8568 202.654 64.2968C202.691 64.7568 202.714 65.2198 202.728 65.6858C202.729 65.7238 202.729 65.7628 202.73 65.8018C202.742 66.2558 202.745 66.7128 202.737 67.1708C202.712 68.6268 202.58 70.1008 202.329 71.5758C202.202 72.3208 202.045 73.0658 201.857 73.8078C201.855 73.8168 201.852 73.8248 201.85 73.8338C201.662 74.5728 201.443 75.3098 201.189 76.0408C200.739 77.3378 200.179 78.6168 199.514 79.8678C198.826 81.1598 198.021 82.4198 197.086 83.6318C196.219 84.7498 195.249 85.8298 194.159 86.8548Z" fill="#CCB28F"/>
<path d="M71.2611 38.7108C74.4671 43.3898 81.246 48.8308 89.17 53.1298C89.653 53.3918 90.1381 53.6488 90.628 53.9008C94.934 56.1208 105.582 61.0348 111.447 58.7138C113.08 58.0678 115.708 56.2738 114.975 51.5138C114.972 51.4978 114.97 51.4828 114.967 51.4678C114.685 49.9128 107.852 13.3218 88.6551 7.58878C78.371 4.51978 72.9441 9.39777 70.6251 12.5788C65.5491 19.5398 65.8231 30.7738 71.2611 38.7108ZM73.5111 14.6838C76.6011 10.4468 81.4841 9.17676 87.6331 11.0128C104.558 16.0658 111.25 51.0228 111.448 52.0828C111.846 54.7148 110.689 55.1718 110.133 55.3918C107.103 56.5908 100.089 54.7598 92.2661 50.7258C84.3361 46.6348 77.2491 41.1278 74.2091 36.6918C69.6591 30.0528 69.3531 20.3858 73.5111 14.6838Z" fill="#C8D1D6"/>
<path d="M72.688 34.0437C71.906 35.2597 71.219 36.4847 70.616 37.7087C69.842 36.4437 69.192 35.1077 68.665 33.7287C69.418 32.4397 70.265 31.1547 71.215 29.8827C71.564 31.3127 72.055 32.7137 72.688 34.0437Z" fill="#EA3D4E"/>
<path d="M77.393 45.1917C76.267 44.2387 75.23 43.2827 74.303 42.3377C74.623 41.0267 75.015 39.6967 75.493 38.3527C76.296 39.2937 77.251 40.2657 78.326 41.2487C77.93 42.5827 77.628 43.8977 77.393 45.1917Z" fill="#EA3D4E"/>
<path d="M85.994 51.3057C84.714 50.5317 83.477 49.7337 82.293 48.9187C82.291 47.5397 82.355 46.1247 82.505 44.6727C83.591 45.4777 84.743 46.2717 85.938 47.0487C85.875 48.5097 85.898 49.9307 85.994 51.3057Z" fill="#EA3D4E"/>
<path d="M94.4559 51.8077C94.7339 53.3377 95.0969 54.8017 95.5289 56.1967C93.8809 55.5017 92.4159 54.8027 91.2689 54.2267C90.9529 52.8087 90.7029 51.3337 90.5349 49.7997C91.1069 50.1147 91.6829 50.4247 92.2659 50.7257C93.0039 51.1067 93.7339 51.4667 94.4559 51.8077Z" fill="#EA3D4E"/>
<path d="M105.391 59.1447C103.876 58.9387 102.302 58.5657 100.752 58.0997C100.098 56.7227 99.502 55.2667 98.979 53.7297C100.537 54.3137 102.009 54.7777 103.362 55.1137C103.975 56.5407 104.657 57.8837 105.391 59.1447Z" fill="#EA3D4E"/>
<path d="M110.367 47.2747C111.533 46.8367 112.647 46.3517 113.71 45.8297C114.072 47.2637 114.351 48.4877 114.554 49.4267C113.48 49.9227 112.355 50.3797 111.186 50.7977C111.008 49.9587 110.737 48.7537 110.367 47.2747Z" fill="#EA3D4E"/>
<path d="M110.132 55.3917C110.246 55.3467 110.385 55.2897 110.531 55.2087C111.356 56.1237 112.203 56.9807 113.068 57.7707C112.516 58.2207 111.937 58.5197 111.447 58.7137C110.807 58.9667 110.107 59.1297 109.367 59.2237C108.279 58.1317 107.221 56.9427 106.206 55.6517C107.84 55.8457 109.182 55.7677 110.132 55.3917Z" fill="#EA3D4E"/>
<path d="M70.594 25.3337C69.373 25.9397 68.22 26.5947 67.132 27.2897C66.987 25.8987 66.957 24.5087 67.044 23.1407C68.247 22.4667 69.525 21.8407 70.867 21.2627C70.643 22.5807 70.551 23.9497 70.594 25.3337Z" fill="#EA3D4E"/>
<path d="M70.624 12.5787C70.655 12.5367 70.689 12.4927 70.721 12.4487C72.302 12.3587 73.938 12.3597 75.627 12.4667C74.851 13.0837 74.142 13.8177 73.511 14.6827C73.212 15.0937 72.938 15.5267 72.685 15.9757C71.274 15.9947 69.906 16.0937 68.583 16.2597C69.125 14.9437 69.803 13.7047 70.624 12.5787Z" fill="#EA3D4E"/>
<path d="M76.095 7.98975C77.52 7.31375 79.199 6.82075 81.159 6.66675C83.009 7.81675 84.848 9.16274 86.638 10.7437C84.318 10.1657 82.19 10.0477 80.286 10.3857C78.897 9.46674 77.493 8.67375 76.095 7.98975Z" fill="#EA3D4E"/>
<path d="M94.4109 10.4188C95.5829 12.7198 96.5939 15.2508 97.3729 18.0298C95.6299 15.9348 93.7059 14.1458 91.5929 12.8268C90.6549 10.8978 89.5899 9.13576 88.4509 7.53076C88.5199 7.55076 88.5859 7.56677 88.6549 7.58777C90.7139 8.20377 92.6289 9.17576 94.4109 10.4188Z" fill="#EA3D4E"/>
<path d="M100.817 16.6348C102.009 18.1518 103.113 19.7848 104.135 21.4838C103.917 23.2688 103.578 25.1008 103.083 26.9758C102.258 25.3428 101.366 23.7488 100.405 22.2318C100.694 20.3068 100.821 18.4358 100.817 16.6348Z" fill="#EA3D4E"/>
<path d="M105.105 31.3348C105.972 30.1388 106.741 28.9268 107.422 27.7128C108.05 29.0628 108.633 30.4198 109.175 31.7648C108.416 32.9208 107.573 34.0678 106.645 35.2018C106.17 33.9258 105.658 32.6308 105.105 31.3348Z" fill="#EA3D4E"/>
<path d="M108.159 39.5547C109.216 38.7407 110.201 37.8917 111.117 37.0187C111.56 38.3267 111.962 39.5937 112.323 40.7987C111.371 41.6247 110.352 42.4247 109.271 43.1957C108.941 42.0467 108.57 40.8247 108.159 39.5547Z" fill="#EA3D4E"/>
<path d="M170.725 38.6768C170.203 34.7748 167.759 27.8988 157.256 25.6918C137.649 21.5758 114.193 50.4788 113.203 51.7118C113.193 51.7238 113.184 51.7358 113.174 51.7488C110.259 55.5828 111.714 58.4138 112.841 59.7598C116.889 64.5968 128.592 65.3558 133.435 65.4578C133.986 65.4698 134.535 65.4748 135.084 65.4748C144.099 65.4748 152.652 63.9258 157.702 61.3418C166.268 56.9598 171.867 47.2158 170.725 38.6768ZM156.075 58.1608C151.287 60.6108 142.432 62.0708 133.511 61.8848C124.711 61.6998 117.673 59.9648 115.582 57.4658C115.198 57.0068 114.399 56.0528 116.004 53.9298C116.684 53.0918 139.236 25.5578 156.522 29.1878C162.802 30.5078 166.488 33.9518 167.184 39.1498C168.119 46.1448 163.24 54.4958 156.075 58.1608Z" fill="#C8D1D6"/>
<path d="M158.674 56.5588C158.781 58.0008 158.801 59.4048 158.747 60.7678C160.03 60.0248 161.239 59.1608 162.36 58.1998C162.313 56.7078 162.182 55.1748 161.953 53.6028C160.965 54.6948 159.865 55.6928 158.674 56.5588Z" fill="#EA3D4E"/>
<path d="M149.222 64.1148C150.667 63.8148 152.034 63.4688 153.299 63.0798C153.643 61.7748 153.932 60.4188 154.153 59.0098C152.999 59.4538 151.696 59.8528 150.282 60.2048C149.995 61.5648 149.633 62.8648 149.222 64.1148Z" fill="#EA3D4E"/>
<path d="M138.747 65.3868C140.241 65.3168 141.709 65.2058 143.138 65.0538C143.797 63.8428 144.416 62.5688 144.976 61.2208C143.637 61.4108 142.247 61.5598 140.825 61.6718C140.185 62.9858 139.487 64.2238 138.747 65.3868Z" fill="#EA3D4E"/>
<path d="M131.07 61.7928C130.096 63.0048 129.078 64.1189 128.034 65.1389C129.814 65.3139 131.435 65.3988 132.718 65.4388C133.672 64.3438 134.595 63.1659 135.475 61.8979C134.822 61.9019 134.168 61.8999 133.512 61.8859C132.681 61.8679 131.866 61.8368 131.07 61.7928Z" fill="#EA3D4E"/>
<path d="M117.96 63.0268C119.39 63.5688 120.951 63.9908 122.536 64.3208C123.768 63.4228 124.986 62.4268 126.179 61.3248C124.531 61.0948 123.016 60.8008 121.667 60.4508C120.446 61.4128 119.206 62.2688 117.96 63.0268Z" fill="#EA3D4E"/>
<path d="M119.246 50.2198C118.43 49.2788 117.682 48.3219 116.997 47.3549C115.995 48.4429 115.166 49.3849 114.539 50.1139C115.247 51.0619 116.017 51.9999 116.846 52.9249C117.403 52.2739 118.216 51.3428 119.246 50.2198Z" fill="#EA3D4E"/>
<path d="M115.582 57.4669C115.503 57.3729 115.408 57.2568 115.319 57.1158C114.158 57.5268 113.005 57.8759 111.867 58.1579C112.137 58.8169 112.504 59.3559 112.843 59.7599C113.285 60.2879 113.823 60.7649 114.428 61.1999C115.905 60.7589 117.402 60.2189 118.91 59.5679C117.38 58.9589 116.237 58.2509 115.582 57.4669Z" fill="#EA3D4E"/>
<path d="M164.668 49.9017C165.452 51.0167 166.153 52.1427 166.778 53.2717C167.569 52.1187 168.258 50.9107 168.835 49.6667C168.099 48.5007 167.274 47.3407 166.371 46.1927C165.938 47.4587 165.367 48.7057 164.668 49.9017Z" fill="#EA3D4E"/>
<path d="M170.725 38.6767C170.718 38.6247 170.709 38.5697 170.702 38.5167C169.355 37.6837 167.916 36.9037 166.381 36.1927C166.769 37.1047 167.042 38.0887 167.184 39.1497C167.251 39.6537 167.285 40.1647 167.294 40.6797C168.525 41.3697 169.681 42.1087 170.764 42.8857C170.915 41.4707 170.909 40.0577 170.725 38.6767Z" fill="#EA3D4E"/>
<path d="M168.104 32.0338C167.174 30.7608 165.934 29.5268 164.284 28.4558C162.109 28.5838 159.851 28.8908 157.524 29.4258C159.839 30.0248 161.766 30.9358 163.278 32.1398C164.938 31.9958 166.549 31.9688 168.104 32.0338Z" fill="#EA3D4E"/>
<path d="M150.848 25.4348C148.721 26.8978 146.625 28.6408 144.615 30.7118C147.146 29.7018 149.69 29.0468 152.177 28.8958C153.922 27.6468 155.698 26.6068 157.464 25.7398C157.394 25.7248 157.328 25.7068 157.257 25.6928C155.154 25.2508 153.006 25.1908 150.848 25.4348Z" fill="#EA3D4E"/>
<path d="M142.252 27.8428C140.481 28.6078 138.732 29.5168 137.023 30.5228C136.363 32.1958 135.788 33.9678 135.328 35.8518C136.832 34.8098 138.376 33.8338 139.944 32.9588C140.609 31.1288 141.39 29.4238 142.252 27.8428Z" fill="#EA3D4E"/>
<path d="M131.473 38.7188C131.281 37.2538 131.183 35.8218 131.164 34.4298C129.969 35.3178 128.808 36.2318 127.691 37.1548C127.807 38.5328 128.001 39.9438 128.276 41.3818C129.301 40.4878 130.369 39.5948 131.473 38.7188Z" fill="#EA3D4E"/>
<path d="M124.869 44.4878C124.328 43.2678 123.867 42.0518 123.479 40.8478C122.466 41.7858 121.508 42.7088 120.617 43.5948C121.06 44.7748 121.574 45.9638 122.156 47.1568C122.993 46.3048 123.902 45.4078 124.869 44.4878Z" fill="#EA3D4E"/>
<path d="M12.0491 80.7768C51.4741 88.8818 75.8371 81.5998 89.3331 74.0648C103.834 65.9678 109.239 55.8488 109.336 55.6648C109.787 54.7878 110.863 54.4418 111.74 54.8918C111.753 54.8988 111.765 54.9048 111.777 54.9118C112.627 55.3728 112.957 56.4318 112.514 57.2968C112.284 57.7448 106.704 68.3778 91.3151 77.0498C82.3481 82.1018 71.8791 85.4388 60.1991 86.9668C45.6861 88.8648 29.2431 87.9598 11.3291 84.2768C11.1521 84.2408 10.9871 84.1789 10.8361 84.0979C10.1621 83.7319 9.77605 82.9568 9.93905 82.1678C10.1381 81.2008 11.0831 80.5778 12.0491 80.7768Z" fill="#C8D1D6"/>
<path d="M89.3332 74.0649C89.4282 74.0119 89.5182 73.9579 89.6122 73.9049C91.4522 74.3569 93.2532 74.6519 94.9942 74.8219C93.8342 75.5729 92.6122 76.3189 91.3162 77.0489C90.9082 77.2789 90.4932 77.5019 90.0782 77.7249C88.4182 77.3679 86.7212 76.8899 85.0032 76.2789C86.5552 75.5529 87.9982 74.8099 89.3332 74.0649Z" fill="#EA3D4E"/>
<path d="M80.2671 78.2928C81.8011 79.0848 83.3291 79.7428 84.8221 80.2888C83.2561 80.9788 81.6521 81.6218 80.0121 82.2198C78.5951 81.5488 77.1671 80.7699 75.7451 79.8779C77.3281 79.3739 78.8351 78.8438 80.2671 78.2928Z" fill="#EA3D4E"/>
<path d="M74.8402 83.9209C73.3222 84.3659 71.7742 84.7699 70.2032 85.1419C69.0252 84.2619 67.8512 83.2899 66.7002 82.2159C68.2112 81.9079 69.6682 81.5719 71.0732 81.2129C72.3242 82.2269 73.5892 83.1259 74.8402 83.9209Z" fill="#EA3D4E"/>
<path d="M63.9492 86.4019C62.7132 86.6099 61.4652 86.8009 60.2002 86.9659C60.0532 86.9849 59.9022 86.9999 59.7542 87.0179C58.9452 85.9699 58.1582 84.8489 57.4092 83.6539C58.7822 83.5049 60.1222 83.3339 61.4252 83.1409C62.2382 84.3119 63.0872 85.3979 63.9492 86.4019Z" fill="#EA3D4E"/>
<path d="M53.4341 87.6299C52.1511 87.7189 50.8561 87.7899 49.5461 87.8389C49.0691 86.7089 48.6251 85.5199 48.2251 84.2759C49.5101 84.2389 50.7701 84.1829 52.0041 84.1089C52.4401 85.3459 52.9221 86.5209 53.4341 87.6299Z" fill="#EA3D4E"/>
<path d="M43.9722 87.9219C42.7392 87.9149 41.4982 87.8949 40.2432 87.8539C40.0212 86.6959 39.8402 85.4889 39.7092 84.2389C40.9532 84.2839 42.1772 84.3129 43.3792 84.3239C43.5282 85.5729 43.7302 86.7749 43.9722 87.9219Z" fill="#EA3D4E"/>
<path d="M34.4552 87.5449C33.2492 87.4579 32.0372 87.3599 30.8132 87.2429C30.8252 86.0919 30.8842 84.8949 30.9972 83.6619C32.2262 83.7789 33.4342 83.8789 34.6262 83.9639C34.5122 85.2009 34.4612 86.3979 34.4552 87.5449Z" fill="#EA3D4E"/>
<path d="M26.6661 83.1888C26.3581 84.3928 26.1161 85.5659 25.9281 86.6969C24.7321 86.5469 23.5291 86.3849 22.3171 86.2079C22.5011 85.0759 22.7371 83.9059 23.0321 82.7039C24.2601 82.8809 25.4711 83.0418 26.6661 83.1888Z" fill="#EA3D4E"/>
<path d="M99.1882 67.2759C101.507 67.0659 103.692 66.6519 105.721 66.1089C104.278 67.5869 102.575 69.1639 100.589 70.7699C98.5902 70.9949 96.4912 71.0809 94.3032 70.9889C96.1162 69.7509 97.7372 68.5009 99.1882 67.2759Z" fill="#EA3D4E"/>
<path d="M104.531 62.1229C106.453 59.9909 107.745 58.1949 108.5 57.0409C109.818 56.5059 111.064 55.9139 112.241 55.2819C112.728 55.8169 112.864 56.6139 112.515 57.2959C112.448 57.4269 111.921 58.4289 110.833 59.9919C108.883 60.8329 106.785 61.5619 104.531 62.1229Z" fill="#EA3D4E"/>
<path d="M12.5009 92.0409C12.5009 92.0409 11.7599 93.5489 10.2189 94.2209C14.3939 94.7439 18.3409 93.0149 20.8259 89.9729C21.4589 88.7959 21.8319 87.3819 21.5899 85.7429C21.5899 85.7429 22.1609 86.3979 22.4229 87.3999C22.8879 86.3759 23.2149 85.2689 23.3739 84.0969C23.5869 82.5239 23.4769 80.9819 23.0979 79.5359C22.4629 78.5919 21.4669 77.6369 19.9739 77.3879C19.9739 77.3879 21.0959 77.3009 22.3819 77.5509C22.1579 77.0699 21.9029 76.6049 21.6179 76.1599C20.9239 76.1269 20.1569 76.2529 19.5489 76.7709C19.5489 76.7709 19.5559 75.7249 20.7599 74.9839C18.9369 72.7859 16.3159 71.2389 13.2629 70.8269C12.4839 70.7219 11.7129 70.6969 10.9569 70.7429C9.38793 71.0959 7.75193 71.8079 6.85693 73.2259C6.85693 73.2259 7.17793 72.2959 8.06993 71.2859C4.22693 72.5249 1.16693 75.6999 0.201931 79.8089C0.384931 81.8979 1.08693 84.8769 3.45293 86.7499C3.45293 86.7499 1.46693 86.0379 0.00292969 84.1709C0.10193 84.8739 0.26193 85.5609 0.48193 86.2229C1.52193 87.0619 3.01393 87.9749 4.42993 87.7969C4.42993 87.7969 3.48493 88.8959 1.56093 88.5719C2.88893 90.7889 4.93293 92.5549 7.42193 93.5169C9.00493 93.6389 11.0389 93.4409 12.5009 92.0409Z" fill="white"/>
<path d="M3.45195 86.7509C3.45195 86.7509 1.46595 86.0389 0.00195312 84.1719C0.100953 84.8749 0.260953 85.5619 0.480953 86.2239C1.52095 87.0629 3.01295 87.9759 4.42895 87.7979C4.42895 87.7979 3.48395 88.8969 1.55995 88.5729C2.88795 90.7899 4.93195 92.5559 7.42095 93.5179C9.00395 93.6389 11.038 93.441 12.5 92.041C12.5 92.041 11.759 93.5489 10.218 94.2209C14.393 94.7439 18.34 93.015 20.825 89.973C21.458 88.796 21.831 87.382 21.589 85.743C21.589 85.743 22.16 86.398 22.422 87.4C22.887 86.376 23.214 85.269 23.373 84.097L0.353952 80.986C0.683952 82.915 1.50295 85.2079 3.45195 86.7509Z" fill="#EBEFF2"/>
<path d="M189.687 126.554C151.168 114.876 133.227 96.8568 124.958 83.7978C116.074 69.7658 116.148 58.2938 116.151 58.0858C116.173 57.0998 115.392 56.2828 114.407 56.2598C114.393 56.2598 114.379 56.2598 114.365 56.2598C113.398 56.2598 112.603 57.0328 112.58 58.0048C112.568 58.5088 112.402 70.5148 121.793 85.4758C127.265 94.1928 134.876 102.118 144.414 109.031C156.265 117.621 171.149 124.667 188.652 129.973C188.825 130.025 188.999 130.05 189.17 130.05C189.937 130.05 190.645 129.553 190.879 128.782C191.164 127.838 190.631 126.841 189.687 126.554Z" fill="#C8D1D6"/>
<path d="M124.958 83.7978C124.9 83.7058 124.846 83.6158 124.789 83.5238C122.956 83.0438 121.232 82.4438 119.621 81.7638C120.282 82.9778 121.001 84.2148 121.792 85.4758C122.041 85.8728 122.3 86.2658 122.558 86.6598C124.188 87.1378 125.907 87.5268 127.708 87.8088C126.69 86.4308 125.776 85.0898 124.958 83.7978Z" fill="#EA3D4E"/>
<path d="M130.911 91.8378C129.185 91.8028 127.529 91.6518 125.956 91.4198C127.004 92.7728 128.106 94.1038 129.263 95.4108C130.828 95.4968 132.455 95.4928 134.131 95.3868C132.978 94.1898 131.906 93.0048 130.911 91.8378Z" fill="#EA3D4E"/>
<path d="M132.997 99.3727C134.119 100.488 135.287 101.581 136.491 102.658C137.946 102.446 139.441 102.152 140.966 101.756C139.785 100.765 138.664 99.7747 137.601 98.7887C136.016 99.0847 134.476 99.2697 132.997 99.3727Z" fill="#EA3D4E"/>
<path d="M141.387 106.748C142.374 107.52 143.38 108.283 144.413 109.032C144.533 109.119 144.659 109.204 144.78 109.291C145.991 108.755 147.217 108.146 148.446 107.452C147.31 106.666 146.214 105.877 145.161 105.086C143.887 105.726 142.623 106.277 141.387 106.748Z" fill="#EA3D4E"/>
<path d="M150.044 112.842C151.13 113.532 152.234 114.213 153.362 114.88C154.32 114.114 155.277 113.281 156.222 112.378C155.11 111.732 154.029 111.083 152.98 110.429C152.006 111.308 151.022 112.111 150.044 112.842Z" fill="#EA3D4E"/>
<path d="M158.221 117.61C159.309 118.192 160.409 118.767 161.531 119.329C162.278 118.417 163.013 117.443 163.725 116.406C162.61 115.852 161.52 115.294 160.459 114.731C159.731 115.758 158.98 116.718 158.221 117.61Z" fill="#EA3D4E"/>
<path d="M166.766 121.818C167.868 122.317 168.98 122.809 170.111 123.29C170.649 122.273 171.169 121.192 171.657 120.055C170.521 119.572 169.411 119.083 168.323 118.59C167.833 119.73 167.307 120.807 166.766 121.818Z" fill="#EA3D4E"/>
<path d="M175.689 121.703C175.386 122.908 175.039 124.055 174.665 125.139C175.787 125.578 176.923 126.009 178.072 126.431C178.45 125.348 178.801 124.207 179.114 123.01C177.95 122.58 176.81 122.145 175.689 121.703Z" fill="#EA3D4E"/>
<path d="M119.534 73.1317C117.595 71.8417 115.872 70.4357 114.348 68.9907C114.912 70.9777 115.657 73.1757 116.636 75.5357C118.286 76.6877 120.09 77.7637 122.057 78.7257C121.054 76.7717 120.225 74.8997 119.534 73.1317Z" fill="#EA3D4E"/>
<path d="M117.294 66.0537C116.621 63.2637 116.342 61.0677 116.229 59.6947C115.326 58.5967 114.513 57.4807 113.78 56.3647C113.097 56.6027 112.597 57.2387 112.579 58.0037C112.576 58.1507 112.561 59.2827 112.772 61.1757C114.085 62.8437 115.581 64.4857 117.294 66.0537Z" fill="#EA3D4E"/>
<path d="M183.918 136.24C183.918 136.24 183.851 137.918 184.884 139.245C180.965 137.714 178.32 134.312 177.587 130.452C177.591 129.116 177.938 127.695 178.933 126.37C178.933 126.37 178.119 126.673 177.411 127.43C177.491 126.308 177.731 125.179 178.151 124.073C178.714 122.589 179.546 121.286 180.568 120.196C181.577 119.67 182.907 119.305 184.339 119.798C184.339 119.798 183.394 119.186 182.145 118.793C182.571 118.477 183.017 118.19 183.48 117.935C184.106 118.237 184.719 118.713 185.007 119.459C185.007 119.459 185.5 118.536 184.795 117.311C187.446 116.249 190.487 116.139 193.367 117.232C194.102 117.511 194.791 117.857 195.434 118.257C196.645 119.316 197.743 120.722 197.854 122.395C197.854 122.395 198.016 121.425 197.713 120.111C200.5 123.033 201.676 127.283 200.564 131.354C199.407 133.103 197.369 135.387 194.396 135.905C194.396 135.905 196.481 136.226 198.658 135.284C198.235 135.855 197.767 136.382 197.258 136.86C195.943 137.102 194.198 137.192 193.037 136.36C193.037 136.36 193.344 137.777 195.189 138.409C192.964 139.724 190.326 140.302 187.679 139.961C186.229 139.312 184.535 138.167 183.918 136.24Z" fill="#F61323"/>
<path d="M194.395 135.905C194.395 135.905 196.48 136.226 198.657 135.284C198.234 135.855 197.766 136.382 197.257 136.86C195.942 137.102 194.197 137.192 193.036 136.36C193.036 136.36 193.343 137.777 195.188 138.409C192.963 139.724 190.325 140.302 187.678 139.961C186.229 139.312 184.535 138.168 183.918 136.241C183.918 136.241 183.851 137.919 184.884 139.246C180.965 137.715 178.32 134.313 177.587 130.453C177.591 129.117 177.938 127.696 178.933 126.371C178.933 126.371 178.119 126.674 177.411 127.431C177.491 126.309 177.731 125.18 178.151 124.074L199.868 132.317C198.656 133.854 196.844 135.478 194.395 135.905Z" fill="#B51226"/>
<path d="M130.371 120.257C116.299 97.6198 113.607 80.7278 113.826 70.5438C114.062 59.5848 117.631 53.8498 117.663 53.7998C118.122 53.0908 118.021 52.1568 117.421 51.5608C116.821 50.9658 115.886 50.8718 115.181 51.3368C90.3291 67.6898 72.2001 106.639 71.4401 108.289C71.0281 109.185 71.4191 110.246 72.3161 110.659C73.2121 111.072 74.2731 110.68 74.6861 109.783C74.8551 109.416 90.6241 75.5418 112.076 58.0578C111.197 61.0318 110.401 65.0638 110.262 70.1378C109.969 80.8598 112.692 98.5858 127.336 122.144C127.674 122.688 128.258 122.988 128.855 122.988C129.177 122.988 129.503 122.901 129.796 122.718C130.635 122.197 130.892 121.095 130.371 120.257Z" fill="#DFE4E8"/>
<path d="M73.4041 104.267C73.9431 105.659 74.5781 107.063 75.3151 108.471C75.7661 107.547 76.4541 106.167 77.3581 104.436C76.6901 102.889 76.1501 101.35 75.7211 99.8348C74.8111 101.525 74.0351 103.02 73.4041 104.267Z" fill="#EA3D4E"/>
<path d="M78.21 95.3388C78.508 97.0208 78.919 98.7408 79.469 100.493C80.23 99.1068 81.074 97.6048 81.996 96.0138C81.575 94.0088 81.339 92.0548 81.249 90.1688C80.153 91.9758 79.139 93.7078 78.21 95.3388Z" fill="#EA3D4E"/>
<path d="M127.095 114.726C125.6 114.659 124.154 114.503 122.763 114.275C123.459 115.559 124.189 116.862 124.959 118.186C126.328 118.308 127.744 118.358 129.199 118.338C128.463 117.116 127.765 115.914 127.095 114.726Z" fill="#EA3D4E"/>
<path d="M122.811 106.505C121.332 106.344 119.907 106.1 118.542 105.788C119.139 107.11 119.777 108.458 120.456 109.831C121.816 110.04 123.221 110.191 124.676 110.261C124.017 108.987 123.397 107.735 122.811 106.505Z" fill="#EA3D4E"/>
<path d="M118.911 97.3068C117.385 96.8598 115.942 96.3288 114.574 95.7388C115.067 97.2018 115.61 98.7028 116.211 100.244C117.59 100.707 119.034 101.107 120.544 101.434C119.954 100.027 119.407 98.6488 118.911 97.3068Z" fill="#EA3D4E"/>
<path d="M84.7251 84.6367C84.7811 86.5187 84.9671 88.4647 85.3181 90.4717C86.2811 88.9177 87.3021 87.3177 88.3741 85.6917C88.2401 83.3177 88.3391 81.0467 88.6091 78.9027C87.2451 80.8367 85.9491 82.7567 84.7251 84.6367Z" fill="#EA3D4E"/>
<path d="M100.688 63.8888C100.445 65.7358 100.318 67.6668 100.341 69.6798C101.574 68.2468 102.838 66.8418 104.133 65.4798C104.367 63.2628 104.788 61.1688 105.34 59.2098C103.749 60.7068 102.197 62.2728 100.688 63.8888Z" fill="#EA3D4E"/>
<path d="M92.2741 80.0087C93.4401 78.3777 94.6541 76.7417 95.9091 75.1207C96.1131 72.4967 96.5851 70.0367 97.2311 67.7607C95.5611 69.7127 93.9531 71.7087 92.4141 73.7197C92.2111 75.7207 92.1581 77.8227 92.2741 80.0087Z" fill="#EA3D4E"/>
<path d="M111.018 58.9378C111.369 58.6398 111.722 58.3458 112.076 58.0578C111.921 58.5818 111.771 59.1518 111.624 59.7418C112.468 60.8378 113.44 61.9968 114.546 63.1748C114.845 61.5208 115.206 60.0828 115.576 58.8618C113.921 56.8968 112.686 55.0838 111.837 53.7028C110.022 55.0728 108.249 56.5558 106.519 58.1238C106.575 59.5918 106.708 61.0998 106.936 62.6488C108.005 61.6128 109.092 60.6088 110.195 59.6468C110.14 58.9648 110.099 58.2878 110.082 57.6238C110.371 58.0448 110.684 58.4848 111.018 58.9378Z" fill="#EA3D4E"/>
<path d="M113.993 67.3937C112.595 66.1387 111.514 65.0077 110.768 64.1667C110.559 65.6207 110.402 67.2007 110.317 68.9087C111.295 69.8647 112.464 70.9197 113.818 71.9997C113.815 71.5027 113.816 71.0137 113.826 70.5447C113.85 69.4407 113.909 68.3917 113.993 67.3937Z" fill="#EA3D4E"/>
<path d="M115.842 87.3558C114.264 86.4348 112.835 85.4618 111.559 84.4938C111.888 86.1738 112.285 87.9268 112.769 89.7578C114.123 90.6068 115.593 91.4248 117.172 92.1768C116.659 90.5098 116.22 88.9038 115.842 87.3558Z" fill="#EA3D4E"/>
<path d="M114.02 76.4208C112.49 75.1838 111.233 73.9998 110.26 73.0028C110.298 74.6408 110.407 76.4068 110.612 78.3028C111.778 79.3148 113.123 80.3768 114.635 81.4228C114.35 79.6538 114.15 77.9858 114.02 76.4208Z" fill="#EA3D4E"/>
<path d="M24.3259 35.8348C25.4899 44.2588 30.2199 52.2458 38.0059 58.9328C40.9249 61.4398 44.0109 63.5728 47.2419 65.3258C58.8239 71.6098 72.2869 73.0248 86.7639 69.3858C100.125 66.0268 109.686 59.6078 110.728 58.8898C112.192 58.0648 113.87 56.3908 113.78 53.0668C113.445 40.6588 86.3879 12.7498 64.7179 2.45479C50.8309 -4.14221 36.3679 3.47478 29.2579 14.4098C25.0609 20.8638 23.3089 28.4728 24.3259 35.8348ZM32.2539 16.3558C38.5169 6.72379 51.1529 -0.0352268 63.1859 5.68077C72.9949 10.3428 84.7619 19.2058 94.6529 29.3918C104.116 39.1368 110.076 48.2438 110.209 53.1618C110.254 54.8608 109.55 55.4638 108.932 55.7998C108.872 55.8318 108.815 55.8678 108.759 55.9068C108.663 55.9738 99.0359 62.6388 85.7859 65.9468C68.2409 70.3278 52.9469 67.0558 40.3339 56.2218C24.2479 42.4058 25.6119 26.5698 32.2539 16.3558Z" fill="#F4F7F9"/>
<path d="M39.2559 4.51184C40.7519 3.56084 42.3259 2.73581 43.9609 2.05981C43.3069 3.65781 42.7849 5.24382 42.3779 6.79782C40.8349 7.67182 39.3709 8.69482 38.0139 9.84082C38.2999 8.11482 38.7049 6.33184 39.2559 4.51184Z" fill="#EA3D4E"/>
<path d="M48.0078 4.43381C48.6318 3.06681 49.3488 1.6838 50.1768 0.302801C51.6488 0.0748014 53.1478 -0.0262 54.6638 0.0138C53.8338 1.2178 53.1008 2.4338 52.4518 3.6468C50.9408 3.7588 49.4548 4.02681 48.0078 4.43381Z" fill="#EA3D4E"/>
<path d="M57.2959 3.84579C58.2059 2.82479 59.1989 1.81278 60.2749 0.826782C61.5799 1.17278 62.8859 1.63479 64.1899 2.21979C63.1509 3.08579 62.1879 3.9818 61.2969 4.8938C59.9629 4.4028 58.6259 4.05679 57.2959 3.84579Z" fill="#EA3D4E"/>
<path d="M66.2849 7.26477C67.5019 6.58077 68.7929 5.93277 70.1629 5.33777C71.4429 6.08077 72.7319 6.87178 74.0239 7.70578C72.6109 8.21278 71.2739 8.78877 70.0129 9.41077C68.7519 8.64277 67.5079 7.92577 66.2849 7.26477Z" fill="#EA3D4E"/>
<path d="M83.5988 14.6088C81.9078 14.7748 80.2978 15.0458 78.7788 15.3838C77.4978 14.4208 76.2188 13.4968 74.9458 12.6168C76.3808 12.1898 77.9138 11.8098 79.5378 11.5098C80.8998 12.5078 82.2558 13.5428 83.5988 14.6088Z" fill="#EA3D4E"/>
<path d="M92.682 22.4698C90.691 22.1928 88.778 22.0809 86.984 22.0839C85.641 20.8979 84.283 19.7438 82.918 18.6298C84.559 18.4798 86.34 18.4059 88.231 18.4549C89.748 19.7669 91.236 21.1088 92.682 22.4698Z" fill="#EA3D4E"/>
<path d="M101.556 31.6368C99.4558 30.9988 97.4208 30.5698 95.5168 30.2908C95.2318 29.9918 94.9438 29.6928 94.6528 29.3928C93.6208 28.3298 92.5638 27.2858 91.4958 26.2548C93.2218 26.3328 95.1238 26.5158 97.1438 26.8598C98.6898 28.4498 100.167 30.0478 101.556 31.6368Z" fill="#EA3D4E"/>
<path d="M100.072 35.3478C102.107 35.9798 104.346 36.8298 106.667 37.9698C108.444 40.3868 109.944 42.7168 111.104 44.8938C108.888 43.2648 106.632 41.9728 104.464 40.9508C103.186 39.1638 101.715 37.2858 100.072 35.3478Z" fill="#EA3D4E"/>
<path d="M29.0679 22.9068C28.5789 24.3438 28.1939 25.8368 27.9399 27.3768C26.9829 26.2328 26.0349 24.9888 25.1279 23.6338C25.5319 22.1358 26.0489 20.6618 26.6739 19.2228C27.4309 20.5408 28.2369 21.7698 29.0679 22.9068Z" fill="#EA3D4E"/>
<path d="M30.81 18.8418C30.487 17.0458 30.258 15.1198 30.167 13.0938C31.253 11.5918 32.477 10.1638 33.82 8.8418C33.714 10.6698 33.743 12.4338 33.874 14.1148C33.297 14.8408 32.754 15.5878 32.255 16.3558C31.737 17.1508 31.257 17.9828 30.81 18.8418Z" fill="#EA3D4E"/>
<path d="M27.9259 36.0048C26.6659 35.2908 25.3859 34.4858 24.1079 33.5738C24.0149 32.0638 24.0319 30.5508 24.1639 29.0438C25.2969 29.9668 26.4439 30.7948 27.5869 31.5368C27.5749 33.0018 27.6819 34.4938 27.9259 36.0048Z" fill="#EA3D4E"/>
<path d="M30.6448 44.2817C29.2428 44.0397 27.8038 43.7167 26.3398 43.3027C25.7768 41.9097 25.3118 40.4977 24.9548 39.0677C26.3068 39.5427 27.6448 39.9277 28.9578 40.2327C29.4018 41.5767 29.9618 42.9287 30.6448 44.2817Z" fill="#EA3D4E"/>
<path d="M36.906 52.9668C35.366 53.0328 33.764 53.0218 32.107 52.9048C31.056 51.6158 30.103 50.2948 29.251 48.9448C30.817 49.1808 32.346 49.3098 33.825 49.3528C34.736 50.5648 35.764 51.7698 36.906 52.9668Z" fill="#EA3D4E"/>
<path d="M45.597 60.1957C44.05 60.5847 42.422 60.8977 40.722 61.1147C39.802 60.4207 38.896 59.6957 38.007 58.9327C37.581 58.5667 37.167 58.1947 36.76 57.8217C38.457 57.7597 40.091 57.5827 41.654 57.3177C42.94 58.3537 44.256 59.3117 45.597 60.1957Z" fill="#EA3D4E"/>
<path d="M55.8199 65.2778C54.4619 66.0298 53.0119 66.7328 51.4719 67.3658C50.0359 66.7548 48.6259 66.0758 47.2419 65.3248C47.1449 65.2718 47.0499 65.2158 46.9539 65.1638C48.5139 64.6728 49.9889 64.0968 51.3789 63.4578C52.8319 64.1448 54.3119 64.7528 55.8199 65.2778Z" fill="#EA3D4E"/>
<path d="M75.6408 67.6438C74.9548 68.8748 74.1878 70.1058 73.3248 71.3258C71.8138 71.3758 70.3188 71.3638 68.8398 71.2928C69.7598 70.1538 70.5828 68.9938 71.3218 67.8268C72.7438 67.8258 74.1838 67.7628 75.6408 67.6438Z" fill="#EA3D4E"/>
<path d="M66.2049 67.5698C65.0699 68.6188 63.841 69.6368 62.5079 70.6068C60.8629 70.3248 59.2419 69.9638 57.6479 69.5238C59.0299 68.6868 60.3089 67.7878 61.4939 66.8468C63.0389 67.1658 64.6099 67.4058 66.2049 67.5698Z" fill="#EA3D4E"/>
<path d="M110.209 53.1618C110.179 52.0508 109.849 50.7238 109.25 49.2258C110.765 50.2388 112.279 51.3938 113.759 52.7098C113.767 52.8288 113.777 52.9498 113.78 53.0658C113.824 54.6848 113.446 55.9108 112.88 56.8388C111.967 55.9388 111.032 55.1148 110.086 54.3518C110.174 54.0288 110.222 53.6398 110.209 53.1618Z" fill="#EA3D4E"/>
<path d="M85.281 66.0668C84.787 67.4058 84.208 68.7578 83.533 70.1138C82.024 70.4178 80.526 70.6668 79.042 70.8588C79.802 69.5598 80.459 68.2558 81.025 66.9568C82.428 66.7118 83.847 66.4128 85.281 66.0668Z" fill="#EA3D4E"/>
<path d="M93.186 67.4618C91.955 67.8888 90.677 68.2998 89.353 68.6838C89.59 67.3638 89.746 66.0688 89.837 64.8018C91.115 64.3998 92.348 63.9748 93.53 63.5348C93.48 64.8138 93.368 66.1238 93.186 67.4618Z" fill="#EA3D4E"/>
<path d="M107.491 56.7299C108.017 57.7799 108.508 58.8818 108.962 60.0298C108.151 60.5298 107.089 61.1588 105.806 61.8618C105.365 60.7118 104.878 59.6149 104.357 58.5669C105.688 57.8319 106.745 57.1969 107.491 56.7299Z" fill="#EA3D4E"/>
<path d="M101.683 63.9717C100.606 64.4857 99.4448 65.0097 98.2128 65.5297C98.1078 64.2597 97.9368 63.0307 97.7168 61.8407C98.9288 61.3097 100.06 60.7797 101.101 60.2657C101.345 61.4607 101.543 62.6957 101.683 63.9717Z" fill="#EA3D4E"/>
<path d="M206.211 60.0118C205.177 47.0108 196.096 33.4178 180.744 32.5938C156.787 31.3078 119.695 42.9358 113.484 53.6828C111.82 56.5618 112.496 58.8338 113.39 60.2568C113.964 61.3848 119.306 71.5868 129.448 80.9108C140.437 91.0138 152.946 96.1908 166.123 96.1908C169.799 96.1908 173.528 95.7878 177.29 94.9758C187.322 92.8108 195.289 88.0468 200.329 81.1978C204.733 75.2108 206.822 67.6868 206.211 60.0118ZM176.536 91.4828C160.282 94.9908 145.28 90.5728 131.948 78.3548C121.879 69.1278 116.596 58.6788 116.544 58.5748C116.514 58.5138 116.48 58.4558 116.443 58.3988C116.06 57.8088 115.728 56.9418 116.578 55.4708C119.04 51.2118 128.622 46.0488 141.587 41.9968C155.139 37.7608 169.708 35.5818 180.554 36.1618C193.857 36.8758 201.74 48.8438 202.651 60.2958C203.617 72.4398 197.264 87.0098 176.536 91.4828Z" fill="#F4F7F9"/>
<path d="M202.143 46.5449C201.282 44.9959 200.292 43.5199 199.177 42.1459C198.99 43.8619 198.692 45.5049 198.309 47.0659C199.249 48.5699 200.047 50.1669 200.693 51.8209C201.265 50.1689 201.76 48.4079 202.143 46.5449Z" fill="#EA3D4E"/>
<path d="M194.488 42.3028C194.592 40.8038 194.621 39.2468 194.552 37.6378C193.367 36.7348 192.098 35.9318 190.746 35.2438C190.901 36.6978 190.966 38.1158 190.958 39.4918C192.232 40.3108 193.41 41.2548 194.488 42.3028Z" fill="#EA3D4E"/>
<path d="M186.605 37.3568C186.292 36.0248 185.902 34.6629 185.426 33.2829C184.114 32.9649 182.745 32.7479 181.321 32.6409C181.822 33.8979 182.24 35.1448 182.589 36.3708C183.995 36.5748 185.335 36.9078 186.605 37.3568Z" fill="#EA3D4E"/>
<path d="M177.073 36.0758C176.329 34.8948 175.504 33.7088 174.583 32.5328C173.104 32.5758 171.594 32.6558 170.06 32.7738C171.06 33.8938 171.961 35.0368 172.773 36.1848C174.248 36.1098 175.683 36.0738 177.073 36.0758Z" fill="#EA3D4E"/>
<path d="M158.353 34.2728C159.76 35.2248 161.046 36.2308 162.22 37.2528C163.805 37.0178 165.37 36.8158 166.909 36.6488C165.851 35.5888 164.685 34.5238 163.401 33.4858C161.727 33.7138 160.041 33.9768 158.353 34.2728Z" fill="#EA3D4E"/>
<path d="M146.62 36.8508C148.502 37.5568 150.236 38.3708 151.812 39.2288C153.558 38.8268 155.302 38.4598 157.033 38.1318C155.662 37.2178 154.132 36.3028 152.446 35.4448C150.488 35.8748 148.54 36.3448 146.62 36.8508Z" fill="#EA3D4E"/>
<path d="M134.448 40.6758C136.598 41.1168 138.591 41.7098 140.398 42.3728C140.791 42.2458 141.186 42.1198 141.586 41.9958C143 41.5538 144.427 41.1398 145.858 40.7428C144.304 39.9878 142.545 39.2418 140.605 38.5808C138.487 39.2418 136.427 39.9428 134.448 40.6758Z" fill="#EA3D4E"/>
<path d="M133.983 44.6458C131.893 44.2308 129.519 43.9098 126.935 43.8058C124.22 45.0828 121.791 46.4158 119.734 47.7758C122.459 47.4008 125.058 47.3408 127.451 47.4768C129.426 46.5148 131.615 45.5658 133.983 44.6458Z" fill="#EA3D4E"/>
<path d="M202.326 67.5728C202.071 69.0688 201.697 70.5648 201.186 72.0398C202.572 71.4908 203.999 70.8498 205.443 70.0908C205.802 68.5818 206.051 67.0398 206.188 65.4758C204.893 66.2738 203.599 66.9688 202.326 67.5728Z" fill="#EA3D4E"/>
<path d="M202.734 63.1689C203.875 61.7439 204.994 60.1609 206.041 58.4229C205.803 56.5849 205.408 54.7458 204.857 52.9438C204.079 54.6018 203.211 56.1379 202.295 57.5529C202.455 58.4659 202.577 59.3819 202.65 60.2949C202.725 61.2399 202.75 62.2009 202.734 63.1689Z" fill="#EA3D4E"/>
<path d="M197.083 79.6298C198.531 79.6038 200.04 79.5058 201.598 79.3138C202.4 78.0308 203.107 76.6928 203.709 75.3058C202.273 75.5768 200.869 75.7578 199.511 75.8648C198.823 77.1578 198.018 78.4178 197.083 79.6298Z" fill="#EA3D4E"/>
<path d="M190.746 85.6079C192.094 86.0639 193.512 86.4669 194.996 86.8009C196.155 85.8449 197.237 84.8249 198.234 83.7389C196.82 83.5109 195.459 83.2119 194.16 82.8539C193.129 83.8229 191.992 84.7449 190.746 85.6079Z" fill="#EA3D4E"/>
<path d="M181.102 90.2558C182.424 91.0488 183.838 91.8028 185.35 92.4898C186.889 91.8578 188.357 91.1508 189.749 90.3718C188.26 89.8328 186.855 89.2168 185.534 88.5488C184.154 89.1798 182.676 89.7488 181.102 90.2558Z" fill="#EA3D4E"/>
<path d="M170.014 92.4658C171.189 93.5448 172.47 94.5968 173.861 95.5988C175 95.4268 176.143 95.2228 177.289 94.9758C177.838 94.8578 178.379 94.7278 178.915 94.5938C177.453 93.7298 176.101 92.7948 174.854 91.8168C173.228 92.1128 171.615 92.3278 170.014 92.4658Z" fill="#EA3D4E"/>
<path d="M158.606 92.0568C159.441 93.3658 160.38 94.6748 161.432 95.9658C162.985 96.1128 164.549 96.1888 166.123 96.1888C166.233 96.1888 166.343 96.1848 166.453 96.1838C165.316 95.0088 164.294 93.7988 163.377 92.5738C161.772 92.4868 160.181 92.3138 158.606 92.0568Z" fill="#EA3D4E"/>
<path d="M140.055 84.6838C140.071 86.0928 140.158 87.5408 140.334 89.0248C141.638 89.7888 142.958 90.4918 144.292 91.1348C144.026 89.6938 143.856 88.2828 143.763 86.9048C142.515 86.2258 141.279 85.4838 140.055 84.6838Z" fill="#EA3D4E"/>
<path d="M148.384 89.1188C148.881 90.5818 149.476 92.0638 150.186 93.5508C151.766 94.0868 153.363 94.5428 154.974 94.9168C154.158 93.5228 153.463 92.1228 152.87 90.7298C151.359 90.2738 149.864 89.7358 148.384 89.1188Z" fill="#EA3D4E"/>
<path d="M116.577 55.4698C117.133 54.5078 118.056 53.4988 119.297 52.4668C117.482 52.6348 115.6 52.9278 113.673 53.3788C113.609 53.4798 113.543 53.5808 113.485 53.6818C112.674 55.0838 112.422 56.3408 112.476 57.4268C113.707 57.0718 114.922 56.7928 116.118 56.5738C116.195 56.2488 116.338 55.8838 116.577 55.4698Z" fill="#EA3D4E"/>
<path d="M132.334 78.7008C132.13 80.1138 131.994 81.5778 131.941 83.0918C133.123 84.0788 134.32 85.0118 135.533 85.8878C135.485 84.3838 135.529 82.9238 135.651 81.5118C134.534 80.6288 133.429 79.6888 132.334 78.7008Z" fill="#EA3D4E"/>
<path d="M124.721 76.1569C125.6 77.1199 126.527 78.0899 127.507 79.0589C127.928 77.7859 128.409 76.5729 128.933 75.4169C128.001 74.4539 127.12 73.4929 126.291 72.5419C125.725 73.6899 125.199 74.8939 124.721 76.1569Z" fill="#EA3D4E"/>
<path d="M117.265 59.9019C116.302 60.5739 115.344 61.3079 114.398 62.1009C114.872 62.9269 115.506 63.9859 116.298 65.2169C117.234 64.4169 118.185 63.6839 119.144 63.0119C118.324 61.7309 117.698 60.6679 117.265 59.9019Z" fill="#EA3D4E"/>
<path d="M118.917 69.0368C119.619 70.0018 120.389 71.0158 121.224 72.0608C121.922 70.9948 122.659 69.9958 123.42 69.0548C122.608 68.0098 121.867 67.0048 121.196 66.0558C120.411 66.9908 119.648 67.9828 118.917 69.0368Z" fill="#EA3D4E"/>
<path d="M119.89 55.6368C116.158 48.4368 110.086 49.6778 109.829 49.7348C108.866 49.9468 108.256 50.8988 108.467 51.8628C108.679 52.8268 109.631 53.4368 110.595 53.2238C110.633 53.2168 114.233 52.4868 116.717 57.2798C117.035 57.8928 117.658 58.2448 118.304 58.2448C118.581 58.2448 118.862 58.1798 119.125 58.0438C120.001 57.5908 120.343 56.5128 119.89 55.6368Z" fill="#F4F7F9"/>
<path d="M115.908 51.0377C115.483 52.2797 115.026 53.4357 114.561 54.4927C115.3 55.1047 116.049 55.9917 116.717 57.2807C116.806 57.4527 116.921 57.6017 117.052 57.7307C117.631 56.5627 118.218 55.2507 118.773 53.8117C117.866 52.5517 116.881 51.6627 115.908 51.0377Z" fill="#EA3D4E"/>
<path d="M110.596 53.2247C110.619 53.2207 111.997 52.9427 113.632 53.8527C113.77 52.7137 113.879 51.4497 113.932 50.0827C112.358 49.5507 111.001 49.5877 110.31 49.6627C110.272 50.9667 110.18 52.1697 110.06 53.2517C110.235 53.2667 110.414 53.2647 110.596 53.2247Z" fill="#EA3D4E"/>
<path d="M117.791 58.9778C114.06 51.7778 107.987 53.0178 107.731 53.0758C106.768 53.2878 106.146 54.2428 106.358 55.2058C106.569 56.1688 107.509 56.7818 108.474 56.5698C108.85 56.4978 112.227 56.0038 114.619 60.6208C114.937 61.2338 115.561 61.5858 116.207 61.5858C116.484 61.5858 116.765 61.5208 117.027 61.3848C117.903 60.9318 118.245 59.8538 117.791 58.9778Z" fill="#F4F7F9"/>
<path d="M108.474 56.5709C108.704 56.5269 110.062 56.3259 111.629 57.2379C111.467 55.8869 111.376 54.5649 111.359 53.2789C109.495 52.7639 108.024 53.0158 107.766 53.0688C107.778 54.2188 107.843 55.3968 107.959 56.5988C108.127 56.6118 108.299 56.6089 108.474 56.5709Z" fill="#EA3D4E"/>
<path d="M113.808 54.3778C113.251 55.4178 112.729 56.5088 112.243 57.6488C113.051 58.2628 113.882 59.1988 114.62 60.6228C114.671 60.7208 114.732 60.8088 114.797 60.8928C115.31 59.5028 115.887 58.1868 116.518 56.9438C115.652 55.7958 114.725 54.9668 113.808 54.3778Z" fill="#EA3D4E"/>
<path d="M132.838 102.418C135.293 110.141 132.356 122.587 124.633 125.041C116.91 127.496 107.326 119.03 104.871 111.307C102.416 103.584 106.687 95.3327 114.41 92.8787C122.133 90.4247 130.383 94.6947 132.838 102.418Z" fill="white"/>
<path d="M131.202 106.928C133.167 113.111 130.816 123.076 124.632 125.041C118.449 127.007 110.775 120.228 108.81 114.045C106.845 107.862 110.264 101.256 116.447 99.2897C122.631 97.3257 129.237 100.745 131.202 106.928Z" fill="#EBEFF2"/>
<path d="M92.9981 118.305C100.751 115.946 113.159 119.036 115.518 126.789C117.877 134.542 109.294 144.02 101.542 146.38C93.7901 148.739 85.5921 144.367 83.2331 136.615C80.8731 128.861 85.2451 120.664 92.9981 118.305Z" fill="white"/>
<path d="M97.4871 119.996C103.694 118.107 113.629 120.582 115.518 126.789C117.407 132.996 110.535 140.585 104.328 142.474C98.1211 144.363 91.5581 140.862 89.6691 134.655C87.7801 128.448 91.2801 121.885 97.4871 119.996Z" fill="#EBEFF2"/>
<path d="M104.235 156.822C104.106 148.72 110.5 137.645 118.603 137.516C126.706 137.387 133.449 148.252 133.577 156.355C133.706 164.457 127.242 171.13 119.139 171.259C111.036 171.389 104.364 164.925 104.235 156.822Z" fill="white"/>
<path d="M107.099 152.974C106.996 146.487 112.115 137.62 118.602 137.517C125.089 137.414 130.488 146.113 130.591 152.6C130.694 159.087 125.519 164.43 119.032 164.533C112.545 164.636 107.202 159.461 107.099 152.974Z" fill="#EBEFF2"/>
<path d="M146.635 101.256C138.943 103.806 130.596 113.494 133.146 121.186C135.696 128.878 148.177 131.661 155.869 129.111C163.561 126.561 167.729 118.258 165.18 110.567C162.63 102.874 154.327 98.7057 146.635 101.256Z" fill="white"/>
<path d="M143.946 105.228C137.787 107.27 131.105 115.026 133.146 121.185C135.188 127.344 145.18 129.572 151.339 127.53C157.498 125.488 160.835 118.841 158.793 112.682C156.753 106.524 150.105 103.187 143.946 105.228Z" fill="#EBEFF2"/>
<path d="M159.7 139.192C155.127 132.502 143.512 127.152 136.822 131.725C130.132 136.298 130.9 149.063 135.473 155.752C140.046 162.442 149.177 164.158 155.866 159.585C162.555 155.012 164.273 145.882 159.7 139.192Z" fill="white"/>
<path d="M155.14 137.704C151.479 132.348 142.179 128.064 136.823 131.726C131.467 135.387 132.082 145.607 135.743 150.964C139.404 156.32 146.715 157.694 152.071 154.033C157.427 150.37 158.801 143.06 155.14 137.704Z" fill="#EBEFF2"/>
<path d="M136.568 123.363C136.568 123.363 138.702 123.395 140.311 124.798C138.643 119.721 134.513 116.129 129.669 114.928C127.974 114.84 126.148 115.181 124.398 116.35C124.398 116.35 124.84 115.339 125.848 114.493C124.42 114.515 122.971 114.741 121.539 115.196C119.617 115.807 117.907 116.771 116.452 117.991C115.714 119.233 115.158 120.895 115.683 122.746C115.683 122.746 114.974 121.505 114.562 119.893C114.131 120.412 113.736 120.957 113.38 121.526C113.72 122.341 114.281 123.152 115.206 123.569C115.206 123.569 114.001 124.13 112.496 123.15C110.963 126.438 110.611 130.287 111.797 134.016C112.099 134.967 112.49 135.866 112.953 136.709C114.211 138.319 115.918 139.81 118.032 140.067C118.032 140.067 116.79 140.204 115.146 139.729C118.657 143.467 123.965 145.256 129.206 144.13C131.505 142.785 134.544 140.36 135.409 136.625C135.409 136.625 135.67 139.292 134.323 141.987C135.076 141.491 135.778 140.934 136.419 140.322C136.817 138.671 137.054 136.464 136.08 134.934C136.08 134.934 137.855 135.422 138.529 137.806C140.353 135.076 141.27 131.77 141.021 128.389C140.302 126.508 138.97 124.28 136.568 123.363Z" fill="#F61323"/>
<path d="M135.411 136.626C135.411 136.626 135.672 139.293 134.325 141.988C135.078 141.492 135.78 140.935 136.421 140.323C136.819 138.672 137.056 136.465 136.082 134.935C136.082 134.935 137.857 135.423 138.531 137.807C140.355 135.077 141.272 131.771 141.023 128.39C140.302 126.507 138.969 124.279 136.567 123.362C136.567 123.362 138.701 123.394 140.31 124.797C138.642 119.72 134.512 116.128 129.668 114.927C127.973 114.839 126.147 115.18 124.397 116.349C124.397 116.349 124.839 115.338 125.847 114.492C124.419 114.514 122.97 114.74 121.538 115.195L130.476 143.314C132.512 141.888 134.699 139.702 135.411 136.626Z" fill="#B51226"/>
<path d="M92.993 92.7308C90.153 100.32 80.155 108.293 72.565 105.453C64.975 102.613 62.668 90.0348 65.509 82.4448C68.35 74.8548 76.804 71.0048 84.394 73.8458C91.983 76.6858 95.833 85.1408 92.993 92.7308Z" fill="#F61323"/>
<path d="M88.921 95.2668C86.647 101.344 78.642 107.727 72.566 105.453C66.49 103.179 64.642 93.1078 66.916 87.0318C69.19 80.9548 75.96 77.8728 82.036 80.1468C88.112 82.4198 91.195 89.1898 88.921 95.2668Z" fill="#B51226"/>
<path d="M51.85 80.6128C59.404 83.5468 67.253 93.6419 64.319 101.196C61.385 108.75 48.78 110.902 41.226 107.968C33.672 105.034 29.927 96.5318 32.861 88.9778C35.794 81.4238 44.296 77.6788 51.85 80.6128Z" fill="#F61323"/>
<path d="M54.3361 84.7158C60.3841 87.0648 66.6681 95.1479 64.3191 101.196C61.9701 107.244 51.8781 108.967 45.8301 106.618C39.7821 104.269 36.7831 97.4618 39.1321 91.4138C41.4801 85.3658 48.2871 82.3668 54.3361 84.7158Z" fill="#B51226"/>
<path d="M36.8931 117.843C41.7971 111.392 53.6661 106.633 60.1171 111.537C66.5681 116.441 65.1591 129.15 60.2551 135.602C55.3511 142.053 46.1461 143.308 39.6941 138.404C33.2431 133.5 31.9891 124.295 36.8931 117.843Z" fill="#F61323"/>
<path d="M41.5222 116.586C45.4482 111.421 54.9512 107.611 60.1172 111.537C65.2822 115.463 64.1542 125.639 60.2282 130.804C56.3022 135.969 48.9312 136.974 43.7662 133.047C38.6002 129.122 37.5962 121.752 41.5222 116.586Z" fill="#B51226"/>
<path d="M104.561 100.339C96.937 97.5918 84.389 100.055 81.642 107.679C78.896 115.303 86.991 125.202 94.615 127.948C102.239 130.694 110.646 126.74 113.392 119.116C116.139 111.493 112.186 103.086 104.561 100.339Z" fill="#F61323"/>
<path d="M99.9929 101.803C93.8889 99.6037 83.8419 101.575 81.6429 107.68C79.4439 113.784 85.9259 121.71 92.0299 123.909C98.1339 126.108 104.865 122.942 107.064 116.838C109.263 110.733 106.097 104.001 99.9929 101.803Z" fill="#B51226"/>
<path d="M91.4011 138.243C91.9371 130.157 86.1091 118.775 78.0231 118.239C69.9371 117.703 62.6561 128.215 62.1201 136.3C61.5841 144.386 67.7031 151.376 75.7891 151.912C83.8741 152.448 90.8641 146.329 91.4011 138.243Z" fill="#F61323"/>
<path d="M88.7342 134.255C89.1642 127.781 84.4972 118.668 78.0232 118.239C71.5492 117.809 65.7192 126.226 65.2902 132.7C64.8602 139.174 69.7602 144.77 76.2342 145.2C82.7082 145.629 88.3042 140.729 88.7342 134.255Z" fill="#B51226"/>
<path d="M82.9879 111.505C82.9879 111.505 84.6459 112.848 85.0449 114.946C86.8689 109.923 85.8409 104.547 82.7729 100.611C81.4939 99.4948 79.8479 98.6348 77.7499 98.4728C77.7499 98.4728 78.7219 97.9507 80.0369 97.9087C78.8999 97.0437 77.6209 96.3268 76.2139 95.7998C74.3259 95.0928 72.3849 94.7948 70.4879 94.8558C69.1399 95.3768 67.6769 96.3397 66.9459 98.1197C66.9459 98.1197 67.1549 96.7058 67.8269 95.1838C67.1679 95.3258 66.5199 95.5108 65.8889 95.7378C65.6529 96.5888 65.5929 97.5728 66.0629 98.4728C66.0629 98.4728 64.7689 98.1698 64.1909 96.4688C60.9549 98.1078 58.2999 100.917 56.9289 104.582C56.5789 105.517 56.3309 106.465 56.1749 107.414C56.1699 109.457 56.5909 111.684 58.0949 113.193C58.0949 113.193 57.0339 112.534 56.0339 111.144C56.4859 116.253 59.5549 120.938 64.3719 123.291C67.0109 123.653 70.8989 123.624 73.8859 121.221C73.8859 121.221 72.4439 123.48 69.7199 124.767C70.6189 124.842 71.5139 124.838 72.3969 124.752C73.7299 123.7 75.2799 122.11 75.4589 120.306C75.4589 120.306 76.5539 121.786 75.6109 124.078C78.7319 123.058 81.4949 121.025 83.3879 118.213C83.9819 116.285 84.3099 113.71 82.9879 111.505Z" fill="white"/>
<path d="M73.885 121.221C73.885 121.221 72.443 123.48 69.719 124.767C70.618 124.842 71.513 124.838 72.396 124.752C73.729 123.7 75.279 122.11 75.458 120.306C75.458 120.306 76.553 121.786 75.61 124.078C78.731 123.058 81.494 121.025 83.387 118.213C83.983 116.287 84.311 113.711 82.989 111.506C82.989 111.506 84.647 112.849 85.046 114.947C86.87 109.924 85.842 104.548 82.774 100.612C81.495 99.4958 79.849 98.6358 77.751 98.4738C77.751 98.4738 78.723 97.9518 80.038 97.9098C78.901 97.0448 77.622 96.3278 76.215 95.8008L65.874 123.434C68.355 123.567 71.424 123.2 73.885 121.221Z" fill="#EBEFF2"/>
</svg>
