<svg width="207" height="176" viewBox="0 0 207 176" fill="none" xmlns="http://www.w3.org/2000/svg">
<path d="M0.104431 64.0118C0.181431 63.0378 0.310432 62.0608 0.477432 61.0868C0.482432 61.0548 0.488431 61.0238 0.494431 60.9918C0.566431 60.5768 0.647428 60.1618 0.735428 59.7488C0.745428 59.7018 0.755434 59.6538 0.766434 59.6068C0.855434 59.1998 0.951427 58.7938 1.05643 58.3888C1.06743 58.3458 1.07743 58.3028 1.08943 58.2598C1.20443 57.8198 1.32743 57.3818 1.46043 56.9458C1.46043 56.9458 1.46043 56.9458 1.46043 56.9448C2.13543 54.7328 3.04443 52.5778 4.17343 50.5458C4.60243 49.7738 5.06443 49.0198 5.55743 48.2868C5.56043 48.2828 5.56243 48.2788 5.56543 48.2748C6.05843 47.5418 6.58343 46.8318 7.13943 46.1468C8.49843 44.4728 10.0414 42.9518 11.7644 41.6388C12.3464 41.1948 12.9504 40.7768 13.5734 40.3828C13.5944 40.3698 13.6164 40.3558 13.6374 40.3428C17.0364 38.2078 21.0264 36.8378 25.5714 36.5938C27.5414 36.4878 29.6064 36.4778 31.7284 36.5388C31.7304 36.5368 31.7314 36.5348 31.7334 36.5328C31.8054 36.5348 31.8814 36.5428 31.9534 36.5448C33.2674 36.5858 34.6034 36.6578 35.9594 36.7578C36.0594 36.7648 36.1554 36.7658 36.2564 36.7738C36.2544 36.7758 36.2524 36.7788 36.2504 36.7808C36.7154 36.8168 37.1784 36.8478 37.6474 36.8898C37.8254 36.6028 38.0184 36.3188 38.2264 36.0348C38.2214 36.0348 38.2164 36.0348 38.2114 36.0348C38.2654 35.9608 38.3314 35.8888 38.3874 35.8148C38.5154 35.6468 38.6484 35.4808 38.7874 35.3148C38.9094 35.1698 39.0354 35.0258 39.1654 34.8828C39.3164 34.7168 39.4744 34.5538 39.6374 34.3908C39.7754 34.2528 39.9184 34.1168 40.0664 33.9818C40.2434 33.8198 40.4294 33.6598 40.6204 33.5018C40.7774 33.3728 40.9374 33.2448 41.1034 33.1188C41.3084 32.9638 41.5214 32.8118 41.7414 32.6618C41.8404 32.5938 41.9284 32.5218 42.0304 32.4548C42.0384 32.4558 42.0464 32.4558 42.0544 32.4568C43.8164 31.3138 46.0374 30.3568 48.8574 29.7408C48.8554 29.7398 48.8544 29.7388 48.8524 29.7378C48.9224 29.7228 48.9884 29.7048 49.0594 29.6908C49.6314 29.5708 50.2074 29.4838 50.7854 29.4188C50.9894 29.3958 51.1934 29.3878 51.3984 29.3708C51.7724 29.3408 52.1464 29.3138 52.5224 29.3058C52.7694 29.2998 53.0174 29.3048 53.2654 29.3078C53.6004 29.3118 53.9344 29.3208 54.2704 29.3418C54.5344 29.3578 54.7994 29.3778 55.0634 29.4028C55.1984 29.4158 55.3334 29.4188 55.4684 29.4338C55.4774 29.4398 55.4864 29.4468 55.4954 29.4538C58.3564 29.7798 61.2374 30.6218 64.0634 31.8428C64.0644 31.8428 64.0654 31.8438 64.0664 31.8438C64.8684 32.1898 65.6624 32.5748 66.4534 32.9748C66.6434 33.0708 66.8324 33.1698 67.0224 33.2688C67.7204 33.6338 68.4124 34.0148 69.0984 34.4148C69.1624 34.4518 69.2284 34.4838 69.2924 34.5218C69.2934 34.5228 69.2934 34.5248 69.2944 34.5268C71.3144 35.7148 73.2754 37.0388 75.1514 38.4328C75.1514 38.4318 75.1514 38.4308 75.1514 38.4298C75.2744 38.5208 75.3934 38.6158 75.5154 38.7078C75.9364 39.0238 76.3544 39.3408 76.7654 39.6628C76.9434 39.8018 77.1184 39.9428 77.2944 40.0828C77.6764 40.3868 78.0554 40.6898 78.4274 40.9968C78.4914 41.0498 78.5594 41.1018 78.6234 41.1548C78.6234 41.1558 78.6234 41.1578 78.6224 41.1598C80.1084 42.3888 81.5194 43.6308 82.8344 44.8498C82.8344 44.8488 82.8344 44.8488 82.8354 44.8478C82.9344 44.9388 83.0254 45.0278 83.1224 45.1188C83.4794 45.4518 83.8314 45.7828 84.1734 46.1098C84.3254 46.2548 84.4704 46.3968 84.6194 46.5408C84.9224 46.8338 85.2194 47.1238 85.5094 47.4098C85.5714 47.4708 85.6374 47.5338 85.6984 47.5948C85.6984 47.5958 85.6974 47.5968 85.6974 47.5978C87.0664 48.9598 88.2854 50.2348 89.3164 51.3558C89.3164 51.3558 89.3164 51.3558 89.3174 51.3548C89.3434 51.3838 89.3664 51.4098 89.3934 51.4378C89.5324 51.5888 89.6614 51.7318 89.7934 51.8768C89.9264 52.0228 90.0574 52.1668 90.1824 52.3068C90.3064 52.4448 90.4254 52.5778 90.5424 52.7088C90.6704 52.8528 90.7924 52.9898 90.9114 53.1248C91.0074 53.2338 91.1044 53.3438 91.1954 53.4468C91.3384 53.6098 91.4684 53.7608 91.5974 53.9088C91.6134 53.9268 91.6314 53.9478 91.6464 53.9658C91.6824 53.7958 91.7184 53.6228 91.7604 53.4278C91.7614 53.4238 91.7624 53.4188 91.7634 53.4148C91.7814 53.3308 91.8034 53.2358 91.8224 53.1468C91.8634 52.9608 91.9054 52.7708 91.9514 52.5658C91.9814 52.4308 92.0154 52.2868 92.0474 52.1438C92.0874 51.9678 92.1294 51.7898 92.1734 51.6028C92.2134 51.4338 92.2544 51.2618 92.2974 51.0828C92.3414 50.8988 92.3884 50.7088 92.4354 50.5158C92.4824 50.3238 92.5294 50.1348 92.5794 49.9338C92.5884 49.8978 92.5964 49.8658 92.6054 49.8298H92.6064C92.9784 48.3528 93.4414 46.6498 93.9954 44.7998C93.9944 44.7998 93.9934 44.7988 93.9934 44.7978C94.0184 44.7158 94.0464 44.6278 94.0714 44.5448C94.1894 44.1538 94.3134 43.7558 94.4394 43.3528C94.5004 43.1578 94.5604 42.9648 94.6234 42.7678C94.7684 42.3158 94.9204 41.8558 95.0754 41.3918C95.1174 41.2658 95.1554 41.1448 95.1984 41.0178C95.1984 41.0188 95.1994 41.0188 95.1994 41.0188C95.7744 39.3208 96.4224 37.5568 97.1424 35.7668C97.1414 35.7658 97.1404 35.7638 97.1394 35.7628C97.1704 35.6848 97.2054 35.6068 97.2374 35.5288C97.4184 35.0818 97.6064 34.6338 97.7974 34.1858C97.8854 33.9788 97.9714 33.7728 98.0614 33.5658C98.2704 33.0848 98.4874 32.6048 98.7074 32.1238C98.7704 31.9858 98.8284 31.8488 98.8924 31.7108C98.8934 31.7118 98.8934 31.7128 98.8944 31.7138C99.8794 29.5938 100.971 27.4948 102.18 25.4878C102.18 25.4858 102.18 25.4848 102.179 25.4828C102.217 25.4188 102.26 25.3598 102.298 25.2968C102.71 24.6188 103.137 23.9538 103.576 23.3008C103.696 23.1228 103.815 22.9448 103.937 22.7688C104.441 22.0398 104.957 21.3228 105.496 20.6358C105.496 20.6348 105.497 20.6348 105.497 20.6338C107.399 18.2128 109.53 16.0988 111.889 14.4478C111.894 14.4378 111.899 14.4268 111.904 14.4178C112.015 14.3398 112.132 14.2728 112.245 14.1978C112.466 14.0488 112.689 13.9048 112.915 13.7648C113.2 13.5878 113.489 13.4198 113.781 13.2568C113.997 13.1358 114.213 13.0138 114.433 12.9008C114.768 12.7288 115.111 12.5738 115.455 12.4218C115.642 12.3398 115.825 12.2488 116.014 12.1728C116.553 11.9538 117.1 11.7558 117.661 11.5888C117.73 11.5678 117.797 11.5518 117.865 11.5318C117.864 11.5338 117.863 11.5348 117.862 11.5368C120.634 10.7328 123.042 10.5158 125.136 10.6798C125.143 10.6758 125.15 10.6708 125.156 10.6668C125.278 10.6768 125.389 10.6988 125.509 10.7108C125.774 10.7378 126.034 10.7688 126.288 10.8078C126.494 10.8388 126.695 10.8748 126.894 10.9138C127.138 10.9618 127.377 11.0138 127.611 11.0718C127.805 11.1198 127.995 11.1718 128.182 11.2268C128.403 11.2918 128.62 11.3608 128.832 11.4338C129.015 11.4968 129.194 11.5628 129.37 11.6328C129.571 11.7118 129.767 11.7948 129.959 11.8808C130.044 11.9188 130.137 11.9508 130.22 11.9908C130.216 11.9928 130.211 11.9958 130.207 11.9978C130.525 12.1488 130.831 12.3068 131.124 12.4738C131.516 12.2128 131.908 11.9648 132.3 11.7108C132.297 11.7098 132.295 11.7088 132.292 11.7078C132.455 11.6018 132.618 11.5038 132.782 11.3998C133.112 11.1888 133.441 10.9818 133.771 10.7768C134.103 10.5708 134.435 10.3678 134.766 10.1678C135.119 9.95478 135.471 9.74379 135.822 9.53679C135.932 9.47179 136.043 9.4028 136.153 9.3388C136.155 9.3398 136.157 9.34079 136.16 9.34179C137.997 8.27579 139.817 7.29979 141.598 6.45379C143.076 5.75179 144.56 5.21977 146.041 4.82677C147.923 4.32677 149.801 4.06379 151.653 4.01479C152.398 3.99479 153.14 4.01079 153.876 4.05779C153.901 4.05979 153.927 4.0608 153.952 4.0628C154.687 4.1118 155.417 4.19179 156.141 4.30379C159.157 4.77179 162.058 5.7728 164.754 7.1798C164.758 7.1818 164.763 7.18479 164.767 7.18679C165.55 7.59579 166.315 8.03778 167.061 8.51278C169.023 9.76078 170.849 11.2218 172.498 12.8438C173.161 13.4968 173.794 14.1758 174.397 14.8768C174.413 14.8948 174.429 14.9138 174.444 14.9318C175.396 16.0418 176.274 17.2038 177.058 18.4098C178.481 20.5978 179.615 22.9208 180.464 25.3188C180.485 25.3798 180.507 25.4398 180.528 25.5008C181.626 28.6668 182.215 31.9638 182.264 35.2708C182.264 35.2898 182.265 35.3098 182.265 35.3288C182.284 36.8338 182.198 38.3398 181.991 39.8358C181.748 41.5958 181.34 43.3348 180.79 45.0498C180.756 45.1568 180.72 45.2628 180.685 45.3698C180.469 46.0178 180.236 46.6638 179.978 47.3038V47.3048C178.628 50.6448 176.692 53.8648 174.213 56.9058C174.213 56.9068 174.213 56.9068 174.212 56.9068C172.499 59.0078 170.535 61.0258 168.312 62.9348C167.695 63.4648 167.067 63.9698 166.435 64.4648C166.229 64.6268 166.023 64.7888 165.815 64.9478C165.742 65.0038 165.67 65.0628 165.596 65.1178C165.592 65.1178 165.589 65.1168 165.585 65.1158C163.577 66.6308 161.501 67.9838 159.358 69.1648C159.36 69.1658 159.362 69.1658 159.364 69.1668C159.268 69.2198 159.173 69.2758 159.076 69.3278C158.375 69.7078 157.667 70.0698 156.952 70.4138C156.544 70.6108 156.129 70.7888 155.716 70.9748C155.426 71.1048 155.138 71.2448 154.846 71.3698C154.845 71.3688 154.844 71.3688 154.843 71.3688C152.83 72.2258 150.765 72.9368 148.656 73.5178C148.661 73.5208 148.665 73.5238 148.67 73.5268C148.534 73.5648 148.395 73.5928 148.258 73.6298C147.791 73.7548 147.32 73.8698 146.848 73.9808C146.52 74.0578 146.191 74.1348 145.861 74.2058C145.38 74.3088 144.895 74.4028 144.409 74.4918C144.208 74.5288 144.011 74.5748 143.809 74.6098C143.805 74.6068 143.801 74.6028 143.797 74.5998C141.726 74.9548 139.618 75.1888 137.473 75.2918C137.474 75.2938 137.475 75.2948 137.477 75.2968C137.123 75.3138 136.765 75.3158 136.409 75.3258C136.022 75.3368 135.638 75.3558 135.249 75.3578C134.501 75.3638 133.748 75.3538 132.992 75.3288C132.991 75.3278 132.991 75.3278 132.991 75.3268C131.109 75.2648 129.202 75.1068 127.274 74.8568C127.275 74.8578 127.275 74.8598 127.276 74.8608C126.675 74.7828 126.07 74.6888 125.464 74.5928C124.958 74.5118 124.449 74.4208 123.94 74.3278C123.555 74.2568 123.171 74.1938 122.785 74.1158C122.784 74.1138 122.783 74.1118 122.782 74.1098C121.711 73.8938 120.636 73.6598 119.553 73.3868C118.672 73.1658 117.811 72.9288 116.965 72.6838C116.268 72.4818 115.585 72.2718 114.913 72.0568C114.594 71.9548 114.287 71.8488 113.974 71.7438C113.694 71.6498 113.407 71.5588 113.132 71.4628C113.132 71.4608 113.132 71.4588 113.131 71.4568C111.35 70.8388 109.665 70.1888 108.105 69.5298V69.5308C107.834 69.4158 107.581 69.3018 107.317 69.1868C107.044 69.0688 106.764 68.9498 106.499 68.8318C107.38 69.7978 108.241 70.7828 109.091 71.7758C109.09 71.7708 109.089 71.7658 109.087 71.7618C109.207 71.9028 109.322 72.0468 109.441 72.1878C110.03 72.8818 110.61 73.5798 111.182 74.2838C111.262 74.3818 111.346 74.4778 111.425 74.5768C111.622 74.7148 111.812 74.8528 112.013 74.9908C113.536 76.0318 115.189 77.0648 116.984 78.0658C117.585 78.4018 118.214 78.7358 118.859 79.0688C118.961 79.1218 119.063 79.1748 119.166 79.2268C120.019 78.6828 120.938 78.2158 121.923 77.8468C129.513 75.0068 137.968 78.8568 140.808 86.4458C140.808 86.4468 140.809 86.4478 140.809 86.4488C142.216 86.7168 143.669 86.9598 145.166 87.1778C146.341 87.3478 147.542 87.5028 148.774 87.6388C148.949 87.6578 149.128 87.6748 149.304 87.6928C150.949 86.3638 152.715 85.2948 154.467 84.6138C160.125 82.4158 166.315 83.9668 170.298 88.0578C170.984 88.0158 171.683 87.9618 172.381 87.9078C173.127 87.8518 173.879 87.7888 174.639 87.7198C176.327 87.5658 178.045 87.3858 179.803 87.1688C180.763 87.0508 181.738 86.9178 182.72 86.7798C182.763 86.7738 182.804 86.7688 182.847 86.7628C182.824 85.6548 182.95 84.5718 183.22 83.5378C183.856 82.5938 184.851 81.6388 186.345 81.3898C186.345 81.3898 185.223 81.3028 183.937 81.5528C184.161 81.0718 184.416 80.6068 184.701 80.1618C185.395 80.1288 186.161 80.2548 186.77 80.7728C186.77 80.7728 186.763 79.7268 185.559 78.9858C187.382 76.7878 190.003 75.2408 193.056 74.8288C193.835 74.7238 194.606 74.6988 195.362 74.7448C196.931 75.0978 198.567 75.8098 199.462 77.2278C199.462 77.2278 199.141 76.2978 198.249 75.2878C202.092 76.5268 205.152 79.7018 206.117 83.8108C206.085 84.1778 206.028 84.5788 205.958 84.9898L205.964 84.9888C205.948 85.0798 205.926 85.1738 205.908 85.2658C205.885 85.3828 205.864 85.4978 205.837 85.6178C205.793 85.8148 205.741 86.0138 205.686 86.2138C205.663 86.2978 205.645 86.3788 205.62 86.4628C205.536 86.7428 205.439 87.0228 205.33 87.3028C205.297 87.3878 205.256 87.4708 205.221 87.5558C205.136 87.7578 205.045 87.9578 204.944 88.1568C204.892 88.2588 204.835 88.3578 204.779 88.4588C204.678 88.6398 204.57 88.8178 204.454 88.9938C204.388 89.0938 204.322 89.1918 204.251 89.2898C204.12 89.4698 203.977 89.6438 203.828 89.8148C203.757 89.8958 203.692 89.9788 203.617 90.0578C203.386 90.3008 203.139 90.5358 202.865 90.7528C202.865 90.7528 204.851 90.0408 206.315 88.1738C206.216 88.8768 206.056 89.5638 205.836 90.2258C204.796 91.0648 203.304 91.9778 201.888 91.7998C201.888 91.7998 202.833 92.8988 204.757 92.5748C203.429 94.7918 201.385 96.5588 198.896 97.5208C197.313 97.6418 195.279 97.4438 193.817 96.0438C193.817 96.0438 194.558 97.5518 196.099 98.2238C191.924 98.7468 187.977 97.0178 185.492 93.9758C184.907 92.8878 184.551 91.5948 184.69 90.1118C184.607 90.1238 184.526 90.1348 184.443 90.1468C184.261 90.4368 184.035 90.8678 183.895 91.4038C183.731 91.0428 183.591 90.6678 183.463 90.2878C180.773 90.6728 178.117 90.9978 175.505 91.2468C174.588 91.3338 173.676 91.4098 172.769 91.4808C173.021 91.9638 173.255 92.4608 173.457 92.9808C176.391 100.535 172.645 109.037 165.092 111.971C160.83 113.626 154.962 113.661 150.128 112.022C150.103 112.634 150.035 113.253 149.907 113.859C156.494 112.324 165.355 116.493 169.425 121.847C174.329 128.299 173.075 137.503 166.623 142.408C160.172 147.312 150.966 146.057 146.062 139.606C143.664 136.452 142.112 131.802 141.895 127.3C141.445 127.361 140.951 127.402 140.44 127.43L140.443 127.438C140.327 127.444 140.204 127.443 140.085 127.447C139.933 127.452 139.784 127.458 139.628 127.459C139.373 127.46 139.113 127.451 138.851 127.44C138.754 127.436 138.661 127.439 138.564 127.433C141.742 131.073 143.914 136.028 144.197 140.305C144.733 148.391 138.613 155.381 130.528 155.917C124.808 156.297 119.649 153.337 116.923 148.715C113.435 150.934 109.04 151.683 104.775 150.385C100.401 149.054 95.7644 145.457 92.9764 141.182C92.5824 141.644 92.1514 142.084 91.6824 142.479C97.8054 145.345 102.19 154.106 102.083 160.828C101.954 168.931 95.2814 175.395 87.1794 175.266C79.0774 175.137 72.6134 168.464 72.7414 160.362C72.8044 156.401 74.4514 151.782 77.0614 148.107C76.6714 147.877 76.2594 147.606 75.8424 147.314L75.8394 147.322C75.7454 147.256 75.6494 147.179 75.5544 147.11C75.4304 147.019 75.3084 146.931 75.1844 146.834C74.9844 146.679 74.7874 146.513 74.5904 146.343C74.5094 146.274 74.4284 146.212 74.3484 146.14C74.6044 150.972 73.2664 156.215 70.8434 159.758C66.2704 166.448 57.1394 168.164 50.4504 163.591C43.7614 159.018 42.0444 149.888 46.6174 143.198C50.3314 137.765 58.6884 133.216 65.2804 134.147C65.2554 133.586 65.2524 133.023 65.2914 132.455C60.5654 134.298 54.7554 134.544 50.4474 133.116C46.2744 131.733 43.1514 128.65 41.5624 124.896C39.8144 125.718 38.0314 126.519 36.2054 127.295C34.7154 127.928 33.1924 128.542 31.6504 129.144C30.6944 129.518 29.7284 129.885 28.7524 130.247C28.8214 130.643 28.8774 131.039 28.9054 131.435C28.5274 131.031 28.1224 130.76 27.8244 130.592C27.7464 130.621 27.6694 130.65 27.5904 130.679C28.4204 131.917 28.7244 133.223 28.7284 134.458C27.9944 138.318 25.3494 141.72 21.4314 143.251C22.4654 141.925 22.3974 140.246 22.3974 140.246C21.7804 142.173 20.0864 143.318 18.6374 143.966C15.9904 144.308 13.3524 143.73 11.1274 142.415C12.9724 141.782 13.2794 140.366 13.2794 140.366C12.1194 141.198 10.3734 141.107 9.05843 140.866C8.54943 140.388 8.08143 139.861 7.65843 139.29C9.83543 140.232 11.9204 139.911 11.9204 139.911C11.5764 139.851 11.2474 139.763 10.9284 139.659C10.8244 139.625 10.7274 139.583 10.6264 139.546C10.4144 139.467 10.2064 139.382 10.0054 139.287C9.89643 139.235 9.79042 139.18 9.68542 139.124C9.50042 139.025 9.32043 138.92 9.14543 138.809C9.04743 138.747 8.95042 138.687 8.85542 138.622C8.67142 138.495 8.49742 138.362 8.32542 138.226C8.25342 138.169 8.17844 138.115 8.10944 138.057C7.87944 137.863 7.66043 137.663 7.45343 137.457C7.39043 137.394 7.33442 137.33 7.27342 137.267C7.13042 137.118 6.99043 136.969 6.85843 136.818C6.77843 136.726 6.70443 136.634 6.62843 136.542C6.56943 136.47 6.50443 136.397 6.44743 136.326L6.45343 136.324C6.19543 135.996 5.95443 135.671 5.75143 135.363C4.63943 131.292 5.81543 127.042 8.60243 124.12C8.30043 125.434 8.46143 126.404 8.46143 126.404C8.57243 124.731 9.67042 123.324 10.8814 122.266C11.5234 121.865 12.2134 121.52 12.9484 121.241C15.8284 120.148 18.8694 120.258 21.5204 121.32C20.8154 122.545 21.3084 123.468 21.3084 123.468C21.5964 122.722 22.2094 122.246 22.8354 121.944C23.2984 122.199 23.7444 122.486 24.1704 122.802C22.9214 123.196 21.9764 123.807 21.9764 123.807C23.4084 123.314 24.7384 123.679 25.7474 124.205C26.4774 124.985 27.1054 125.877 27.6134 126.861C27.6484 126.848 27.6814 126.835 27.7164 126.822C28.6504 126.474 29.5754 126.123 30.4814 125.767C32.1294 125.12 33.7244 124.459 35.2804 123.79C35.9844 123.487 36.6794 123.181 37.3654 122.874C38.4554 122.386 39.5224 121.892 40.5664 121.394C40.2274 119.177 40.3804 116.851 41.1354 114.575C43.6854 106.883 51.9884 102.714 59.6804 105.264C61.0004 105.701 62.3384 106.353 63.6374 107.164C64.2674 106.66 64.8824 106.155 65.4814 105.651C65.8984 105.299 66.3044 104.948 66.7064 104.597C66.8624 104.461 67.0224 104.325 67.1754 104.189C67.5844 103.827 67.9814 103.466 68.3744 103.105C69.8144 101.784 71.1524 100.47 72.3944 99.1708C72.8264 98.7178 73.2484 98.2678 73.6574 97.8188C73.7804 97.6838 73.9034 97.5488 74.0254 97.4138C74.4424 96.9508 74.8474 96.4898 75.2404 96.0318C76.4864 94.5798 77.6194 93.1548 78.6414 91.7678C79.1004 91.1458 79.5344 90.5318 79.9524 89.9258C80.0314 89.8118 80.1084 89.6978 80.1854 89.5838C80.5944 88.9828 80.9884 88.3878 81.3574 87.8048C81.4154 87.7128 81.4694 87.6228 81.5264 87.5308C82.5534 85.8908 83.4624 84.2858 84.2594 82.7318C84.5044 82.2538 84.7384 81.7818 84.9634 81.3138C84.9884 81.2608 85.0124 81.2098 85.0374 81.1568C85.2334 80.7468 85.4224 80.3408 85.6034 79.9388C85.6354 79.8688 85.6654 79.7998 85.6954 79.7308C85.8724 79.3338 86.0434 78.9408 86.2064 78.5528C86.2264 78.5068 86.2454 78.4608 86.2644 78.4148C86.4444 77.9838 86.6174 77.5578 86.7814 77.1388C87.6364 74.9518 88.2754 72.9288 88.7524 71.1208C88.3294 71.7378 87.8844 72.3748 87.3984 73.0438C87.0464 73.5278 86.6774 74.0238 86.2924 74.5298C86.0754 74.8148 85.8414 75.1088 85.6134 75.4008C85.4384 75.6238 85.2734 75.8428 85.0924 76.0688C85.0924 76.0688 85.0924 76.0678 85.0914 76.0678C84.0344 77.3918 82.8634 78.7658 81.5924 80.1588C81.5934 80.1608 81.5944 80.1628 81.5944 80.1648C81.3984 80.3788 81.1914 80.5948 80.9914 80.8098C80.7654 81.0518 80.5444 81.2928 80.3124 81.5358C79.8244 82.0458 79.3254 82.5558 78.8084 83.0668V83.0658C78.1814 83.6848 77.5374 84.3038 76.8684 84.9178C76.0464 85.6738 75.2134 86.3918 74.3744 87.0928C74.3744 87.0948 74.3744 87.0978 74.3744 87.0998C74.0714 87.3528 73.7634 87.5928 73.4584 87.8388C73.0584 88.1618 72.6574 88.4818 72.2534 88.7918C71.7654 89.1668 71.2754 89.5398 70.7824 89.8958C70.7824 89.8948 70.7824 89.8928 70.7824 89.8918C69.2064 91.0308 67.6064 92.0788 65.9814 93.0308C65.9814 93.0318 65.9814 93.0328 65.9814 93.0338C65.3294 93.4158 64.6724 93.7828 64.0124 94.1348C63.6664 94.3198 63.3164 94.4878 62.9684 94.6648C62.6534 94.8248 62.3394 94.9918 62.0234 95.1448C62.0234 95.1428 62.0244 95.1408 62.0244 95.1388C60.0904 96.0718 58.1254 96.8708 56.1354 97.5468C56.1334 97.5518 56.1314 97.5568 56.1294 97.5608C55.9364 97.6258 55.7414 97.6798 55.5474 97.7428C55.0774 97.8958 54.6064 98.0448 54.1334 98.1838C53.8094 98.2788 53.4844 98.3678 53.1594 98.4568C52.6914 98.5838 52.2224 98.7068 51.7514 98.8208C51.6144 98.8538 51.4784 98.8948 51.3414 98.9268C51.3444 98.9218 51.3464 98.9168 51.3494 98.9118C49.2184 99.4058 47.0644 99.7668 44.8864 99.9728C44.8854 99.9738 44.8854 99.9748 44.8844 99.9758C44.5754 100.005 44.2634 100.019 43.9534 100.043C43.4944 100.078 43.0374 100.119 42.5774 100.141C41.7854 100.179 40.9914 100.2 40.1944 100.2C40.0844 100.2 39.9744 100.196 39.8644 100.195C39.8654 100.194 39.8674 100.192 39.8684 100.191C37.4214 100.175 34.9514 99.9758 32.4644 99.6018C32.4614 99.6038 32.4584 99.6068 32.4554 99.6088C32.3644 99.5948 32.2734 99.5778 32.1824 99.5638C31.9244 99.5238 31.6664 99.4798 31.4074 99.4358C30.6154 99.3018 29.8224 99.1578 29.0274 98.9858C26.1634 98.3678 23.4744 97.5308 20.9674 96.5018C19.4294 95.8698 17.9614 95.1638 16.5694 94.3838C14.0474 92.9708 11.7734 91.3208 9.77443 89.4488C9.69343 89.3728 9.61143 89.2968 9.53143 89.2198C9.03243 88.7428 8.54644 88.2558 8.08344 87.7508C7.33844 86.9388 6.63843 86.0918 5.98943 85.2088C5.53943 84.5978 5.12043 83.9678 4.72043 83.3258C4.32343 82.6908 3.94943 82.0418 3.60043 81.3788C3.59143 81.3618 3.58243 81.3438 3.57343 81.3268C2.38143 79.0498 1.47543 76.6238 0.876434 74.1028C0.704434 73.3798 0.56143 72.6488 0.44043 71.9118C0.43043 71.8488 0.419424 71.7848 0.409424 71.7218C0.292424 70.9828 0.197431 70.2388 0.132431 69.4888C-0.029569 67.6758 -0.0415688 65.8478 0.104431 64.0118ZM47.2164 33.9068C47.1524 33.9288 47.0894 33.9528 47.0264 33.9758C46.0514 34.3298 45.1614 34.7498 44.3584 35.2338C44.2884 35.2758 44.2194 35.3178 44.1514 35.3608C43.7604 35.6068 43.3844 35.8638 43.0374 36.1408C42.5704 36.5128 42.1424 36.9128 41.7544 37.3398C42.1414 37.3888 42.5264 37.4348 42.9144 37.4868L42.9154 37.4858C42.9464 37.4898 42.9774 37.4958 43.0074 37.4998C44.6484 37.7238 46.3014 37.9808 47.9574 38.2718C47.9594 38.2718 47.9614 38.2718 47.9624 38.2728C49.9314 38.6188 51.9034 39.0138 53.8644 39.4458C53.8664 39.4448 53.8674 39.4438 53.8694 39.4428C54.0514 39.4828 54.2304 39.5278 54.4124 39.5678C55.0794 39.7168 55.7444 39.8698 56.4074 40.0278C56.7264 40.1038 57.0434 40.1818 57.3604 40.2598C57.9564 40.4068 58.5504 40.5558 59.1414 40.7098C59.3254 40.7578 59.5124 40.8018 59.6954 40.8498C59.6924 40.8508 59.6894 40.8518 59.6864 40.8528C61.7304 41.3918 63.7464 41.9668 65.7094 42.5798H65.7104C65.7204 42.5828 65.7304 42.5868 65.7394 42.5898C66.7154 42.8948 67.6764 43.2098 68.6254 43.5308C68.8634 43.6108 69.0954 43.6938 69.3304 43.7748C70.0354 44.0178 70.7324 44.2648 71.4194 44.5168C71.5664 44.5708 71.7194 44.6218 71.8654 44.6758C71.8614 44.6768 71.8584 44.6778 71.8544 44.6788C74.5274 45.6688 77.0584 46.7158 79.3764 47.8058C79.4954 47.8618 79.6064 47.9188 79.7234 47.9748C80.2654 48.2328 80.8024 48.4928 81.3204 48.7548C81.4704 48.8308 81.6104 48.9088 81.7584 48.9848C81.9054 49.0608 82.0484 49.1368 82.1934 49.2128C81.9754 49.0018 81.7624 48.7928 81.5374 48.5778C80.4154 47.5078 79.2134 46.4058 77.9454 45.3028C77.5644 44.9718 77.1754 44.6418 76.7834 44.3118C76.6574 44.2058 76.5344 44.0988 76.4064 43.9928C75.9454 43.6088 75.4754 43.2268 75.0004 42.8488C73.6234 41.7508 72.1914 40.6858 70.7214 39.6778C70.1314 39.2728 69.5344 38.8788 68.9334 38.4968C68.8284 38.4298 68.7244 38.3598 68.6184 38.2938C67.9044 37.8468 67.1844 37.4188 66.4584 37.0118C64.8824 36.1278 63.2824 35.3428 61.6774 34.7038C61.0594 34.4578 60.4404 34.2328 59.8214 34.0308C59.7534 34.0088 59.6864 33.9928 59.6184 33.9708C59.0784 33.7998 58.5384 33.6428 57.9994 33.5088C57.8414 33.4688 57.6844 33.4408 57.5264 33.4058C57.0774 33.3038 56.6284 33.2088 56.1814 33.1348C55.9944 33.1038 55.8094 33.0838 55.6224 33.0578C55.2064 33.0008 54.7904 32.9518 54.3774 32.9208C52.8214 32.8058 51.2854 32.8728 49.7914 33.1868C49.4484 33.2588 49.1164 33.3398 48.7894 33.4248C48.2434 33.5678 47.7204 33.7298 47.2164 33.9068ZM44.4164 57.6568C44.8394 58.1208 45.2884 58.5628 45.7504 58.9898C45.8674 59.0978 45.9864 59.2058 46.1054 59.3108C46.5924 59.7408 47.0924 60.1558 47.6164 60.5378C48.4494 61.1458 49.3254 61.6928 50.2404 62.1598C50.8224 62.4578 51.4674 62.7408 52.1624 63.0078C52.7034 63.2158 53.2834 63.4128 53.8864 63.6008C53.9604 63.6238 54.0334 63.6468 54.1074 63.6698C54.7234 63.8578 55.3634 64.0358 56.0334 64.2028C57.6694 64.6098 59.4534 64.9518 61.3414 65.2188C62.0054 65.3128 62.6814 65.3968 63.3684 65.4708C63.3854 65.4728 63.4024 65.4738 63.4184 65.4758C64.1004 65.5488 64.7904 65.6138 65.4894 65.6688C67.2364 65.8068 69.0304 65.8848 70.8414 65.8958C71.4944 65.8998 72.1484 65.8978 72.8044 65.8838C73.5454 65.8678 74.2684 65.8378 74.9824 65.8008C76.8424 65.7038 78.6074 65.5378 80.2384 65.3068C80.4804 65.2728 80.7164 65.2348 80.9524 65.1978C81.1434 65.1678 81.3344 65.1378 81.5204 65.1068C81.7484 65.0678 81.9714 65.0278 82.1934 64.9858C82.3784 64.9508 82.5624 64.9158 82.7434 64.8798C82.9584 64.8368 83.1694 64.7928 83.3774 64.7468C83.5554 64.7078 83.7294 64.6678 83.9024 64.6278C84.1034 64.5808 84.3044 64.5328 84.4984 64.4838C85.5754 64.2098 86.5554 63.9028 87.4084 63.5638C87.7594 63.4238 88.0844 63.2778 88.3934 63.1278C88.4244 63.1128 88.4504 63.0978 88.4804 63.0828C88.4964 63.0478 88.5044 63.0108 88.5224 62.9758C88.7514 62.5328 88.9904 62.1238 89.2354 61.7428C88.9014 62.0598 88.4634 62.2428 88.0094 62.2428C87.7324 62.2428 87.4514 62.1778 87.1884 62.0418C86.3124 61.5878 85.9704 60.5098 86.4244 59.6338C86.7784 58.9508 87.1584 58.3658 87.5474 57.8258C87.5454 57.8198 87.5424 57.8138 87.5404 57.8078C87.6104 57.7108 87.6834 57.6298 87.7544 57.5368C87.8154 57.4578 87.8734 57.3668 87.9344 57.2908C87.8764 57.2358 87.8244 57.1808 87.7644 57.1248C87.6154 56.9868 87.4544 56.8478 87.2934 56.7088C85.2044 54.9028 82.1184 53.0228 78.2624 51.1898C77.9974 51.0638 77.7354 50.9378 77.4634 50.8118C77.1214 50.6538 76.7674 50.4978 76.4144 50.3408C76.0024 50.1578 75.5854 49.9758 75.1594 49.7948C74.7674 49.6278 74.3754 49.4618 73.9714 49.2958C73.6684 49.1718 73.3544 49.0488 73.0444 48.9258C70.4754 47.9058 67.6954 46.9178 64.7264 45.9898C63.3124 45.5478 61.8864 45.1338 60.4564 44.7378C58.4764 44.1888 56.4874 43.6798 54.5004 43.2228C52.7544 42.8208 51.0104 42.4548 49.2794 42.1258C47.5334 41.7948 45.8014 41.5018 44.0914 41.2478C42.6274 41.0298 41.1834 40.8488 39.7584 40.6898C39.6534 40.9738 39.5424 41.2538 39.4594 41.5508C39.4454 41.6018 39.4324 41.6548 39.4194 41.7058C39.2964 42.1698 39.1964 42.6468 39.1294 43.1448C39.0644 43.6308 39.0334 44.1238 39.0234 44.6208C38.9854 46.5068 39.3394 48.4558 40.0114 50.3618C40.1864 50.8578 40.3844 51.3508 40.6014 51.8388C40.6614 51.9738 40.7214 52.1098 40.7844 52.2438C41.0464 52.8008 41.3274 53.3538 41.6424 53.8938C42.4224 55.2308 43.3574 56.4958 44.4164 57.6568ZM104.948 58.5478C105.035 58.5208 105.123 58.4928 105.211 58.4648C105.88 58.2508 106.568 58.0148 107.276 57.7508C108.811 57.1778 110.43 56.4868 112.1 55.6898C112.744 55.3828 113.393 55.0648 114.05 54.7258C114.633 54.4248 115.209 54.1148 115.781 53.7998C117.368 52.9268 118.907 52.0018 120.377 51.0478C120.965 50.6658 121.542 50.2798 122.106 49.8898C122.12 49.8808 122.134 49.8708 122.147 49.8618C122.715 49.4688 123.27 49.0728 123.808 48.6728C125.34 47.5378 126.745 46.3868 127.989 45.2488C128.196 45.0598 128.394 44.8708 128.592 44.6828C128.683 44.5958 128.775 44.5088 128.864 44.4228C129.035 44.2568 129.201 44.0908 129.365 43.9268C129.48 43.8108 129.593 43.6948 129.704 43.5788C129.843 43.4338 129.982 43.2888 130.115 43.1458C130.256 42.9938 130.39 42.8418 130.523 42.6908C130.622 42.5788 130.726 42.4658 130.822 42.3538C131.306 41.7868 131.737 41.2308 132.107 40.6918C132.688 39.8438 133.198 38.9448 133.641 38.0118C133.919 37.4268 134.16 36.8238 134.383 36.2148C134.438 36.0648 134.491 35.9138 134.542 35.7628C134.744 35.1688 134.927 34.5678 135.077 33.9598C135.454 32.4328 135.673 30.8728 135.721 29.3298C135.741 28.7048 135.724 28.0848 135.689 27.4698C135.681 27.3218 135.668 27.1758 135.657 27.0278C135.615 26.4948 135.554 25.9668 135.471 25.4468C135.152 23.4518 134.535 21.5698 133.601 19.9298C133.356 19.4978 133.093 19.0788 132.805 18.6838C132.509 18.2788 132.194 17.9078 131.865 17.5588C131.828 17.5188 131.791 17.4788 131.754 17.4398C131.539 17.2178 131.307 17.0238 131.079 16.8238C129.902 17.6428 128.721 18.4948 127.538 19.3838C126.156 20.4228 124.774 21.5048 123.398 22.6288C122.033 23.7428 120.676 24.8968 119.333 26.0828C117.805 27.4328 116.299 28.8278 114.821 30.2538C113.752 31.2848 112.696 32.3288 111.664 33.3918C109.495 35.6248 107.521 37.8208 105.748 39.9448C105.537 40.1978 105.322 40.4518 105.117 40.7028C104.838 41.0438 104.571 41.3798 104.303 41.7168C104.015 42.0788 103.735 42.4378 103.46 42.7948C103.226 43.0988 102.992 43.4028 102.768 43.7018C102.587 43.9438 102.416 44.1818 102.242 44.4198C99.7284 47.8688 97.9134 50.9918 96.9394 53.5748C96.9044 53.6678 96.8714 53.7588 96.8384 53.8508C97.5934 54.1898 98.0344 55.0218 97.8504 55.8628C97.7464 56.3338 97.4644 56.7188 97.0914 56.9668C97.1274 56.9658 97.1634 56.9658 97.1984 56.9658C97.2594 56.9648 97.3244 56.9628 97.3824 56.9628C97.4784 56.9638 97.5614 56.9678 97.6474 56.9718C97.7104 56.9748 97.7744 56.9768 97.8314 56.9798C97.9054 56.9848 97.9654 56.9908 98.0294 56.9968C98.0854 57.0018 98.1404 57.0068 98.1894 57.0128C98.2414 57.0188 98.2814 57.0248 98.3234 57.0308C98.3684 57.0378 98.4074 57.0428 98.4414 57.0488C98.4774 57.0548 98.4964 57.0588 98.5194 57.0628C98.5274 57.0648 98.5444 57.0668 98.5504 57.0688V57.0698C98.5594 57.0718 98.5794 57.0748 98.5844 57.0768C99.5474 57.2878 100.169 58.2438 99.9574 59.2068C99.9194 59.3778 99.8524 59.5328 99.7734 59.6788C99.8864 59.6678 99.9904 59.6658 100.106 59.6518C101.001 59.5458 101.988 59.3528 103.043 59.0878C103.655 58.9338 104.291 58.7528 104.948 58.5478ZM96.0534 74.1378C96.1754 78.5828 95.7744 84.2358 94.2244 91.0048C94.2114 91.0618 94.1974 91.1198 94.1844 91.1778C93.7454 93.0768 93.2184 95.0608 92.5834 97.1338C96.3444 98.5348 99.2104 101.331 100.78 104.748C101.1 104.606 101.419 104.461 101.754 104.34C107.769 102.173 116.846 103.251 121.76 107.546C121.824 107.408 121.889 107.27 121.957 107.134C118.067 104.549 114.768 100.592 113.323 96.7308C111.742 92.5058 112.239 88.0148 114.296 84.3708C114.203 84.2398 114.113 84.1088 114.019 83.9778C113.451 83.1838 112.872 82.3888 112.282 81.5948C112.227 81.5218 112.171 81.4478 112.116 81.3748C111.591 80.6708 111.059 79.9688 110.518 79.2678C109.967 78.5548 109.408 77.8438 108.841 77.1378C107.733 76.3478 106.696 75.5568 105.727 74.7718C105.727 74.7718 105.726 74.7718 105.726 74.7708C104.736 73.9698 103.816 73.1758 102.964 72.3978C102.959 72.3938 102.954 72.3888 102.949 72.3848C98.3564 68.1878 95.7204 64.4578 94.5454 62.5758C94.5354 62.5718 94.5254 62.5658 94.5154 62.5608C94.4824 62.5458 94.4484 62.5278 94.4154 62.5118C94.3964 62.5028 94.3784 62.4938 94.3594 62.4838C94.4014 62.6348 94.4434 62.7828 94.4854 62.9388C94.5554 63.1978 94.6234 63.4658 94.6914 63.7388C94.6914 63.7398 94.6924 63.7408 94.6924 63.7418C95.3764 66.4978 95.9384 69.9588 96.0534 74.1378ZM89.8034 60.9528C89.8014 60.9498 89.8004 60.9458 89.7984 60.9428C89.8284 60.9028 89.8594 60.8708 89.8894 60.8318C89.9244 60.7858 89.9584 60.7318 89.9934 60.6868C89.9864 60.6678 89.9794 60.6488 89.9714 60.6308C89.8864 60.7718 89.8024 60.9168 89.7194 61.0688C89.7484 61.0308 89.7754 60.9898 89.8034 60.9528ZM124 123.596C123.634 123.17 123.283 122.729 122.964 122.259C122.098 123.727 121.025 125.127 119.819 126.4C119.955 126.547 120.09 126.695 120.219 126.848C121.344 125.522 122.613 124.401 124 123.596ZM92.4394 127.688C92.9604 127.023 93.5624 126.407 94.2394 125.847C94.1834 125.756 94.1344 125.659 94.0804 125.566C93.1344 126.327 92.1404 127.004 91.1164 127.573C91.1414 127.585 91.6634 127.805 92.4394 127.688ZM126.029 14.3848C125.591 14.3068 125.138 14.2598 124.676 14.2308C124.596 14.2258 124.516 14.2218 124.436 14.2178C123.499 14.1758 122.516 14.2308 121.49 14.3848C121.423 14.3948 121.357 14.4048 121.289 14.4148C120.762 14.4998 120.225 14.6068 119.676 14.7438C119.348 14.8258 119.017 14.9128 118.682 15.0128C117.219 15.4498 115.837 16.1228 114.524 16.9658C114.175 17.1898 113.833 17.4308 113.494 17.6798C113.343 17.7908 113.19 17.8968 113.04 18.0128C112.682 18.2908 112.334 18.5878 111.988 18.8918C111.866 18.9988 111.741 19.0988 111.621 19.2088C111.21 19.5848 110.809 19.9808 110.416 20.3898C110.368 20.4398 110.317 20.4848 110.269 20.5358C109.821 21.0078 109.384 21.5008 108.958 22.0118C107.851 23.3398 106.82 24.7918 105.856 26.3218C105.412 27.0258 104.983 27.7448 104.569 28.4778C104.508 28.5868 104.449 28.6978 104.388 28.8068C104.041 29.4288 103.705 30.0608 103.379 30.6978C102.563 32.2928 101.809 33.9208 101.12 35.5508C100.886 36.1028 100.658 36.6548 100.439 37.2048C100.38 37.3538 100.324 37.5008 100.266 37.6498C100.077 38.1308 99.8904 38.6118 99.7124 39.0888C99.1234 40.6628 98.5924 42.2048 98.1164 43.6818C98.0214 43.9768 97.9344 44.2608 97.8434 44.5498C97.9354 44.4128 98.0254 44.2758 98.1194 44.1388C98.2124 44.0018 98.2974 43.8678 98.3924 43.7308C98.7284 43.2448 99.0824 42.7528 99.4424 42.2588C99.5134 42.1618 99.5764 42.0668 99.6484 41.9698H99.6494C101.167 39.9058 102.893 37.7788 104.769 35.6338C104.765 35.6348 104.762 35.6358 104.758 35.6368C104.859 35.5208 104.969 35.4038 105.071 35.2878C105.558 34.7358 106.055 34.1828 106.563 33.6288C106.729 33.4478 106.89 33.2678 107.058 33.0868C107.739 32.3508 108.434 31.6158 109.147 30.8818C109.155 30.8738 109.162 30.8658 109.17 30.8578H109.171C110.604 29.3828 112.102 27.9158 113.641 26.4678C113.638 26.4688 113.635 26.4688 113.632 26.4688C113.77 26.3388 113.913 26.2118 114.051 26.0828C114.498 25.6648 114.949 25.2508 115.404 24.8368C115.646 24.6168 115.887 24.3968 116.131 24.1788C116.639 23.7228 117.152 23.2708 117.668 22.8208C117.807 22.6998 117.943 22.5758 118.083 22.4548C118.085 22.4548 118.086 22.4548 118.088 22.4548C119.606 21.1408 121.15 19.8528 122.716 18.6098C122.718 18.6088 122.72 18.6068 122.722 18.6058C124.04 17.5598 125.37 16.5458 126.707 15.5648C126.731 15.5478 126.754 15.5278 126.778 15.5108C127.094 15.2788 127.412 15.0558 127.728 14.8278C127.184 14.6368 126.617 14.4898 126.029 14.3848ZM120.529 69.9468C121.522 70.1948 122.505 70.4108 123.483 70.6088C123.755 70.6648 124.025 70.7128 124.296 70.7648C127.268 71.3298 130.173 71.6728 133.006 71.7828C133.293 71.7948 133.576 71.7958 133.861 71.8018C136.385 71.8588 138.85 71.7288 141.259 71.4228C141.65 71.3738 142.043 71.3328 142.431 71.2728C145.217 70.8468 147.924 70.1758 150.55 69.2568C150.837 69.1568 151.118 69.0398 151.403 68.9338C151.949 68.7298 152.494 68.5228 153.033 68.2978C153.389 68.1488 153.741 67.9878 154.094 67.8298C156.417 66.7878 158.674 65.5508 160.857 64.1008C161.187 63.8818 161.512 63.6478 161.838 63.4198C162.275 63.1138 162.711 62.8058 163.142 62.4828C163.456 62.2478 163.769 62.0068 164.08 61.7628C164.718 61.2628 165.356 60.7588 165.981 60.2218C167.231 59.1478 168.364 58.0608 169.409 56.9658C170.551 55.7698 171.579 54.5638 172.49 53.3518C173.756 51.6678 174.814 49.9728 175.669 48.2798C175.976 47.6718 176.25 47.0638 176.508 46.4578C176.568 46.3168 176.627 46.1748 176.684 46.0338C176.929 45.4318 177.158 44.8308 177.356 44.2318C177.825 42.8118 178.162 41.3998 178.387 40.0038C178.631 38.4928 178.738 37.0008 178.726 35.5368C178.714 34.1208 178.596 32.7308 178.373 31.3758C178.247 30.6118 178.088 29.8588 177.901 29.1188C177.899 29.1108 177.897 29.1028 177.895 29.0938C177.706 28.3518 177.489 27.6218 177.245 26.9058C176.763 25.4888 176.175 24.1308 175.503 22.8398C175.056 21.9808 174.576 21.1478 174.059 20.3538C173.818 19.9838 173.566 19.6188 173.306 19.2588C173.279 19.2218 173.252 19.1848 173.225 19.1478C172.97 18.7988 172.709 18.4528 172.439 18.1128C171.213 16.5688 169.824 15.1258 168.297 13.8378C167.634 13.2778 166.944 12.7498 166.233 12.2518C166.198 12.2268 166.162 12.2028 166.126 12.1778C165.416 11.6848 164.685 11.2208 163.934 10.7958C162.153 9.7878 160.264 8.98479 158.304 8.43279C157.944 8.33079 157.581 8.23878 157.216 8.15478C157.212 8.15378 157.208 8.15278 157.203 8.15178C156.84 8.06878 156.475 7.99379 156.108 7.92879C156.106 7.92879 156.103 7.92779 156.101 7.92779C155.361 7.79579 154.613 7.70177 153.859 7.64577C152.265 7.52877 150.645 7.5858 149.015 7.8438C148.362 7.9478 147.708 8.08579 147.053 8.25579C147.031 8.26179 147.008 8.26679 146.986 8.27279C146.329 8.44579 145.672 8.65078 145.015 8.89178C144.384 9.12378 143.754 9.38079 143.125 9.67879C142.113 10.1598 141.075 10.6958 140.026 11.2638C139.417 11.5928 138.802 11.9358 138.183 12.2928C138.179 12.2948 138.176 12.2968 138.172 12.2988C137.552 12.6558 136.927 13.0268 136.298 13.4098C135.581 13.8468 134.86 14.2988 134.134 14.7678C134.709 15.3418 135.19 15.9148 135.587 16.4468C135.588 16.4468 135.589 16.4468 135.59 16.4468C135.622 16.4898 135.656 16.5338 135.687 16.5768C136.062 17.0918 136.399 17.6358 136.716 18.1948C136.803 18.3488 136.882 18.5068 136.964 18.6638C137.192 19.0948 137.403 19.5348 137.597 19.9868C137.637 20.0798 137.689 20.1658 137.728 20.2588C137.723 20.2578 137.717 20.2578 137.711 20.2568C138.589 22.3878 139.106 24.7208 139.259 27.1338C139.261 27.1348 139.264 27.1368 139.266 27.1378C139.268 27.1758 139.266 27.2158 139.268 27.2538C139.344 28.5628 139.317 29.8908 139.181 31.2198C139.179 31.2418 139.179 31.2648 139.177 31.2878C139.176 31.2868 139.174 31.2858 139.173 31.2848C138.945 33.4658 138.434 35.6418 137.641 37.7218C137.642 37.7228 137.643 37.7248 137.644 37.7258C137.637 37.7438 137.628 37.7608 137.621 37.7788C137.368 38.4378 137.087 39.0868 136.777 39.7238C136.747 39.7858 136.711 39.8448 136.681 39.9068C136.406 40.4598 136.108 41.0018 135.79 41.5318C135.756 41.5888 135.729 41.6498 135.694 41.7068C135.692 41.7028 135.69 41.6988 135.688 41.6948C135.48 42.0358 135.276 42.3788 135.05 42.7088C134.247 43.8798 133.22 45.0998 132.008 46.3368L132.007 46.3378C131.589 46.7648 131.141 47.1928 130.681 47.6228C130.587 47.7098 130.493 47.7968 130.398 47.8848C128.551 49.5778 126.396 51.2798 124.018 52.9178C124.017 52.9178 124.017 52.9188 124.016 52.9188C123.463 53.2998 122.896 53.6758 122.321 54.0488C122.238 54.1018 122.156 54.1558 122.073 54.2088C120.497 55.2218 118.848 56.2028 117.142 57.1288C116.659 57.3908 116.174 57.6478 115.684 57.9008C115.488 58.0018 115.265 58.1138 115.043 58.2248V58.2258C115.018 58.2388 114.987 58.2528 114.961 58.2658C114.797 58.3478 114.623 58.4328 114.447 58.5198C114.295 58.5948 114.146 58.6678 113.985 58.7458C113.814 58.8288 113.636 58.9118 113.456 58.9978C113.273 59.0848 113.089 59.1708 112.897 59.2598C112.718 59.3428 112.535 59.4258 112.348 59.5098C112.139 59.6038 111.929 59.6978 111.712 59.7938C111.523 59.8768 111.333 59.9588 111.139 60.0428C111.018 60.0948 110.905 60.1458 110.782 60.1978C110.783 60.1958 110.783 60.1948 110.783 60.1928C109.165 60.8748 107.384 61.5478 105.561 62.0968C105.56 62.0978 105.56 62.0998 105.559 62.1008C105.296 62.1798 105.032 62.2518 104.769 62.3258C104.508 62.3978 104.249 62.4668 103.988 62.5328C103.693 62.6078 103.398 62.6808 103.103 62.7468C102.904 62.7918 102.707 62.8298 102.509 62.8698C103.371 63.3368 104.336 63.8358 105.388 64.3518C105.701 64.5058 106.03 64.6618 106.358 64.8168C106.596 64.9298 106.834 65.0428 107.079 65.1568C107.408 65.3088 107.748 65.4618 108.091 65.6138C109.625 66.2988 111.29 66.9848 113.074 67.6408C113.399 67.7608 113.731 67.8778 114.064 67.9948C114.41 68.1168 114.761 68.2368 115.115 68.3558C115.459 68.4708 115.804 68.5858 116.154 68.6978C117.565 69.1458 119.02 69.5698 120.529 69.9468ZM141.372 101.744C141.366 98.0718 143.243 94.1718 145.975 90.9448C144.758 90.7838 143.556 90.6018 142.366 90.4018C142.367 90.3998 142.369 90.3978 142.37 90.3968C142.168 90.3628 141.959 90.3368 141.758 90.3018C142.313 94.2618 141.816 98.7648 140.259 102.471C140.288 102.464 140.835 102.314 141.372 101.744ZM86.6944 85.7638C86.6934 85.7658 86.6924 85.7668 86.6914 85.7688C86.3904 86.3208 86.0764 86.8768 85.7494 87.4388C85.6964 87.5308 85.6434 87.6218 85.5894 87.7138C85.2464 88.2968 84.8954 88.8828 84.5224 89.4758C84.2734 89.8728 84.0144 90.2658 83.7564 90.6598C83.7474 90.6628 83.7384 90.6638 83.7294 90.6668C82.6724 92.2788 81.5534 93.8658 80.3494 95.4208C80.3524 95.4208 80.3564 95.4198 80.3594 95.4198C80.3174 95.4738 80.2734 95.5268 80.2314 95.5798C80.0014 95.8748 79.7614 96.1658 79.5264 96.4598C79.0214 97.0898 78.5044 97.7148 77.9754 98.3338C77.7194 98.6328 77.4684 98.9348 77.2064 99.2318C77.1544 99.2918 77.1054 99.3518 77.0524 99.4108C77.0494 99.4108 77.0454 99.4108 77.0414 99.4108C75.8504 100.757 74.5914 102.074 73.2864 103.37C73.2964 103.371 73.3074 103.372 73.3174 103.373C72.9164 103.771 72.5034 104.163 72.0914 104.556C71.9524 104.689 71.8174 104.823 71.6774 104.956C71.0694 105.528 70.4524 106.095 69.8234 106.657C69.8164 106.656 69.8094 106.654 69.8024 106.653C68.7734 107.573 67.7134 108.477 66.6244 109.368C69.9964 112.294 72.6924 116.221 73.4304 120.134C73.5664 120.065 73.7014 119.996 73.8394 119.931C72.3774 115.495 72.2274 110.345 73.4764 106.417C75.6364 99.6218 82.2834 95.5048 89.1104 96.2848C89.1224 96.2468 89.1324 96.2108 89.1434 96.1728C89.3854 95.3848 89.6094 94.6118 89.8204 93.8508C89.8404 93.7788 89.8614 93.7058 89.8804 93.6348C90.0924 92.8618 90.2904 92.1008 90.4724 91.3548C90.9834 89.2648 91.3784 87.2878 91.6794 85.4208C91.8214 84.5368 91.9434 83.6778 92.0444 82.8438C92.0444 82.8438 92.0444 82.8438 92.0444 82.8428C92.1464 82.0088 92.2284 81.2008 92.2944 80.4188C92.4264 78.8388 92.4884 77.3648 92.4964 75.9968C92.4994 75.4998 92.4984 75.0108 92.4884 74.5428C92.4754 73.9238 92.4484 73.3268 92.4144 72.7418C92.4004 72.5058 92.3824 72.2768 92.3664 72.0458C92.3564 71.9048 92.3444 71.7688 92.3334 71.6298C91.9794 73.0118 91.5354 74.5128 90.9804 76.1138C90.9794 76.1178 90.9774 76.1218 90.9764 76.1258C90.5984 77.2168 90.1674 78.3538 89.6794 79.5308C89.6794 79.5318 89.6794 79.5318 89.6784 79.5318C88.8604 81.5088 87.8764 83.5938 86.6944 85.7638ZM12.1564 86.8548C12.6164 87.2868 13.1044 87.7058 13.6054 88.1178C13.7234 88.2138 13.8414 88.3098 13.9614 88.4058C14.4774 88.8168 15.0084 89.2198 15.5684 89.6078C17.1284 90.6888 18.8664 91.6738 20.7824 92.5498C22.1614 93.1798 23.6394 93.7498 25.2134 94.2568C26.6544 94.7208 28.1684 95.1358 29.7794 95.4838C30.5854 95.6578 31.3854 95.7968 32.1854 95.9318C32.5754 95.9968 32.9644 96.0608 33.3524 96.1168C33.8854 96.1948 34.4164 96.2578 34.9464 96.3178C35.3424 96.3628 35.7384 96.4128 36.1324 96.4478C38.7434 96.6808 41.3174 96.6928 43.8564 96.5008C44.2414 96.4718 44.6274 96.4458 45.0104 96.4068C45.5914 96.3478 46.1694 96.2698 46.7474 96.1888C47.0484 96.1468 47.3504 96.1148 47.6504 96.0668C50.3964 95.6228 53.0964 94.9208 55.7484 93.9668C56.1184 93.8338 56.4844 93.6818 56.8524 93.5388C59.1154 92.6598 61.3444 91.5978 63.5344 90.3448C63.7814 90.2028 64.0304 90.0668 64.2774 89.9208C66.7154 88.4728 69.1064 86.7858 71.4484 84.8718C71.6614 84.6978 71.8744 84.5268 72.0864 84.3488C72.8514 83.7068 73.6134 83.0488 74.3674 82.3568C75.4264 81.3868 76.4284 80.4028 77.3814 79.4188C78.3134 78.4568 79.1944 77.4948 80.0234 76.5438C81.0624 75.3538 82.0204 74.1828 82.8964 73.0568C83.3004 72.5378 83.6864 72.0278 84.0544 71.5308C84.0574 71.5258 84.0614 71.5218 84.0654 71.5168C84.4344 71.0188 84.7854 70.5318 85.1194 70.0598C85.7524 69.1638 86.3234 68.3198 86.8284 67.5438C86.6194 67.6078 86.4104 67.6718 86.1984 67.7318C86.1134 67.7558 86.0284 67.7768 85.9424 67.7998C85.2794 67.9808 84.6054 68.1438 83.9234 68.2878C83.8744 68.2978 83.8274 68.3128 83.7784 68.3228C83.7774 68.3218 83.7764 68.3208 83.7754 68.3208C81.9104 68.7078 80.0244 68.9658 78.2774 69.1378C78.2784 69.1388 78.2794 69.1398 78.2804 69.1408C78.1484 69.1538 78.0244 69.1628 77.8934 69.1748C77.6814 69.1948 77.4724 69.2128 77.2654 69.2308C77.0334 69.2498 76.8084 69.2678 76.5844 69.2838C76.3744 69.2988 76.1684 69.3138 75.9654 69.3268C75.7614 69.3398 75.5654 69.3508 75.3694 69.3618C75.1644 69.3728 74.9624 69.3848 74.7664 69.3938C74.5944 69.4018 74.4344 69.4078 74.2704 69.4148C74.0684 69.4228 73.8694 69.4318 73.6814 69.4378C73.6534 69.4388 73.6214 69.4398 73.5944 69.4408L73.5934 69.4398C73.3454 69.4478 73.0964 69.4548 72.8754 69.4598C72.3244 69.4718 71.7754 69.4768 71.2264 69.4768C69.9944 69.4768 68.7724 69.4448 67.5654 69.3888C67.5644 69.3888 67.5624 69.3888 67.5614 69.3888C66.8684 69.3558 66.1814 69.3128 65.5004 69.2628C65.4024 69.2558 65.3034 69.2478 65.2054 69.2408C64.5214 69.1878 63.8424 69.1268 63.1744 69.0558C60.3024 68.7498 57.5974 68.2818 55.1664 67.6748C55.0414 67.6438 54.9174 67.6118 54.7944 67.5798C52.4154 66.9638 50.3104 66.2148 48.6094 65.3448C48.2534 65.1628 47.9104 64.9578 47.5654 64.7578C47.5654 64.7618 47.5654 64.7668 47.5654 64.7718C47.5074 64.7388 47.4554 64.6978 47.3974 64.6638C46.8644 64.3488 46.3434 64.0148 45.8374 63.6598C45.7814 63.6208 45.7234 63.5858 45.6674 63.5468C45.0914 63.1348 44.5344 62.6988 43.9974 62.2398C43.9824 62.2268 43.9664 62.2168 43.9514 62.2038C43.9514 62.2018 43.9514 62.1998 43.9514 62.1988C42.2624 60.7488 40.7754 59.0798 39.5354 57.2718C39.5344 57.2738 39.5334 57.2748 39.5334 57.2758C39.5204 57.2568 39.5104 57.2378 39.4974 57.2188C38.7444 56.1148 38.0874 54.9608 37.5294 53.7738C37.5134 53.7388 37.4924 53.7058 37.4764 53.6708C37.4784 53.6678 37.4794 53.6658 37.4814 53.6638C36.4644 51.4698 35.8064 49.1718 35.5624 46.8808C35.5574 46.8838 35.5534 46.8868 35.5484 46.8898C35.5224 46.6468 35.5074 46.4038 35.4904 46.1608C35.4834 46.0598 35.4714 45.9588 35.4664 45.8578C35.4424 45.3958 35.4414 44.9358 35.4524 44.4768C35.4554 44.3518 35.4604 44.2278 35.4664 44.1028C35.4884 43.6258 35.5234 43.1508 35.5864 42.6808C35.5934 42.6288 35.6024 42.5738 35.6094 42.5208C35.6104 42.5208 35.6114 42.5198 35.6114 42.5198C35.7064 41.8628 35.8554 41.1308 36.0874 40.3508C35.2254 40.2848 34.3764 40.2308 33.5384 40.1888C32.8024 40.1518 32.0764 40.1238 31.3604 40.1058C31.3574 40.1058 31.3544 40.1058 31.3504 40.1058C30.6354 40.0878 29.9314 40.0788 29.2384 40.0798C28.0454 40.0818 26.8774 40.1048 25.7584 40.1648C25.0634 40.2018 24.3874 40.2768 23.7224 40.3738C23.0294 40.4748 22.3534 40.6078 21.6934 40.7698C21.6714 40.7748 21.6494 40.7808 21.6274 40.7858C20.9704 40.9488 20.3294 41.1398 19.7054 41.3598C18.1484 41.9098 16.6974 42.6328 15.3534 43.4958C14.7164 43.9048 14.1034 44.3448 13.5154 44.8138C13.5144 44.8138 13.5144 44.8148 13.5144 44.8148C12.9264 45.2838 12.3624 45.7818 11.8234 46.3058C10.3634 47.7258 9.08543 49.3328 8.00143 51.0688C7.78043 51.4228 7.56843 51.7828 7.36243 52.1468C7.33143 52.2018 7.30142 52.2558 7.27142 52.3108C7.09842 52.6218 6.93242 52.9368 6.77142 53.2538C6.73142 53.3328 6.69144 53.4108 6.65244 53.4898C6.49744 53.8018 6.34944 54.1158 6.20644 54.4338C6.17444 54.5058 6.14043 54.5758 6.10843 54.6478C5.93643 55.0358 5.77242 55.4278 5.61842 55.8228C4.89142 57.6838 4.35743 59.6148 4.01643 61.5568C3.94143 61.9828 3.87743 62.4098 3.81943 62.8368C3.81343 62.8838 3.80643 62.9308 3.80043 62.9768C3.74343 63.4168 3.69642 63.8568 3.66142 64.2968C3.62442 64.7568 3.60143 65.2198 3.58743 65.6858C3.58643 65.7238 3.58643 65.7628 3.58543 65.8018C3.57343 66.2558 3.57043 66.7128 3.57843 67.1708C3.60343 68.6268 3.73543 70.1008 3.98643 71.5758C4.11343 72.3208 4.27044 73.0658 4.45844 73.8078C4.46044 73.8168 4.46342 73.8248 4.46542 73.8338C4.65342 74.5728 4.87243 75.3098 5.12643 76.0408C5.57643 77.3378 6.13642 78.6168 6.80142 79.8678C7.48942 81.1598 8.29443 82.4198 9.22943 83.6318C10.0964 84.7498 11.0664 85.8298 12.1564 86.8548Z" fill="#CCB28F"/>
<path d="M135.055 38.7108C131.849 43.3898 125.07 48.8308 117.146 53.1298C116.663 53.3918 116.178 53.6488 115.688 53.9008C111.382 56.1208 100.734 61.0348 94.8686 58.7138C93.2356 58.0678 90.6076 56.2738 91.3406 51.5138C91.3436 51.4978 91.3456 51.4828 91.3486 51.4678C91.6306 49.9128 98.4636 13.3218 117.661 7.58878C127.945 4.51978 133.372 9.39777 135.691 12.5788C140.767 19.5398 140.493 30.7738 135.055 38.7108ZM132.805 14.6838C129.715 10.4468 124.832 9.17676 118.683 11.0128C101.758 16.0658 95.0656 51.0228 94.8676 52.0828C94.4696 54.7148 95.6266 55.1718 96.1826 55.3918C99.2126 56.5908 106.227 54.7598 114.05 50.7258C121.98 46.6348 129.067 41.1278 132.107 36.6918C136.657 30.0528 136.963 20.3858 132.805 14.6838Z" fill="#C8D1D6"/>
<path d="M133.628 34.0437C134.41 35.2597 135.097 36.4847 135.7 37.7087C136.474 36.4437 137.124 35.1077 137.651 33.7287C136.898 32.4397 136.051 31.1547 135.101 29.8827C134.752 31.3127 134.261 32.7137 133.628 34.0437Z" fill="#EA3D4E"/>
<path d="M128.923 45.1918C130.049 44.2388 131.086 43.2828 132.013 42.3378C131.693 41.0268 131.301 39.6968 130.823 38.3528C130.02 39.2938 129.065 40.2658 127.99 41.2488C128.386 42.5828 128.688 43.8978 128.923 45.1918Z" fill="#EA3D4E"/>
<path d="M120.322 51.3057C121.602 50.5317 122.839 49.7337 124.023 48.9187C124.025 47.5397 123.961 46.1247 123.811 44.6727C122.725 45.4777 121.573 46.2717 120.378 47.0487C120.441 48.5097 120.418 49.9307 120.322 51.3057Z" fill="#EA3D4E"/>
<path d="M111.86 51.8078C111.582 53.3378 111.219 54.8018 110.787 56.1968C112.435 55.5018 113.9 54.8028 115.047 54.2268C115.363 52.8088 115.613 51.3338 115.781 49.7998C115.209 50.1148 114.633 50.4248 114.05 50.7258C113.312 51.1068 112.582 51.4668 111.86 51.8078Z" fill="#EA3D4E"/>
<path d="M100.925 59.1447C102.44 58.9387 104.014 58.5657 105.564 58.0997C106.218 56.7227 106.814 55.2667 107.337 53.7297C105.779 54.3137 104.307 54.7777 102.954 55.1137C102.341 56.5407 101.659 57.8837 100.925 59.1447Z" fill="#EA3D4E"/>
<path d="M95.9487 47.2747C94.7827 46.8367 93.6687 46.3517 92.6057 45.8297C92.2437 47.2637 91.9647 48.4877 91.7617 49.4267C92.8357 49.9227 93.9607 50.3797 95.1297 50.7977C95.3077 49.9587 95.5787 48.7537 95.9487 47.2747Z" fill="#EA3D4E"/>
<path d="M96.1839 55.3917C96.0699 55.3467 95.9309 55.2897 95.7849 55.2087C94.9599 56.1237 94.1128 56.9807 93.2478 57.7707C93.7998 58.2207 94.3789 58.5197 94.8689 58.7137C95.5089 58.9667 96.2089 59.1297 96.9489 59.2237C98.0369 58.1317 99.0949 56.9427 100.11 55.6517C98.4759 55.8457 97.1339 55.7677 96.1839 55.3917Z" fill="#EA3D4E"/>
<path d="M135.722 25.3337C136.943 25.9397 138.096 26.5947 139.184 27.2897C139.329 25.8987 139.359 24.5087 139.272 23.1407C138.069 22.4667 136.791 21.8407 135.449 21.2627C135.673 22.5807 135.765 23.9497 135.722 25.3337Z" fill="#EA3D4E"/>
<path d="M135.692 12.5787C135.661 12.5367 135.627 12.4927 135.595 12.4487C134.014 12.3587 132.378 12.3597 130.689 12.4667C131.465 13.0837 132.174 13.8177 132.805 14.6827C133.104 15.0937 133.378 15.5267 133.631 15.9757C135.042 15.9947 136.41 16.0937 137.733 16.2597C137.191 14.9437 136.513 13.7047 135.692 12.5787Z" fill="#EA3D4E"/>
<path d="M130.221 7.98975C128.796 7.31375 127.117 6.82075 125.157 6.66675C123.307 7.81675 121.468 9.16274 119.678 10.7437C121.998 10.1657 124.126 10.0477 126.03 10.3857C127.419 9.46674 128.823 8.67375 130.221 7.98975Z" fill="#EA3D4E"/>
<path d="M111.905 10.4188C110.733 12.7198 109.722 15.2508 108.943 18.0298C110.686 15.9348 112.61 14.1458 114.723 12.8268C115.661 10.8978 116.726 9.13576 117.865 7.53076C117.796 7.55076 117.73 7.56677 117.661 7.58777C115.602 8.20377 113.687 9.17576 111.905 10.4188Z" fill="#EA3D4E"/>
<path d="M105.499 16.6348C104.307 18.1518 103.203 19.7848 102.181 21.4838C102.399 23.2688 102.738 25.1008 103.233 26.9758C104.058 25.3428 104.95 23.7488 105.911 22.2318C105.622 20.3068 105.495 18.4358 105.499 16.6348Z" fill="#EA3D4E"/>
<path d="M101.211 31.3348C100.344 30.1388 99.5749 28.9268 98.8939 27.7128C98.2659 29.0628 97.6829 30.4198 97.1409 31.7648C97.8999 32.9208 98.7429 34.0678 99.6709 35.2018C100.146 33.9258 100.658 32.6308 101.211 31.3348Z" fill="#EA3D4E"/>
<path d="M98.1567 39.5548C97.0997 38.7408 96.1147 37.8918 95.1987 37.0188C94.7557 38.3268 94.3537 39.5938 93.9927 40.7988C94.9447 41.6248 95.9637 42.4248 97.0447 43.1958C97.3747 42.0468 97.7457 40.8248 98.1567 39.5548Z" fill="#EA3D4E"/>
<path d="M35.5905 38.6767C36.1125 34.7747 38.5565 27.8987 49.0595 25.6917C68.6665 21.5757 92.1225 50.4787 93.1125 51.7117C93.1225 51.7237 93.1315 51.7357 93.1415 51.7487C96.0565 55.5827 94.6015 58.4137 93.4745 59.7597C89.4265 64.5967 77.7235 65.3557 72.8805 65.4577C72.3295 65.4697 71.7805 65.4747 71.2315 65.4747C62.2165 65.4747 53.6635 63.9257 48.6135 61.3417C40.0475 56.9597 34.4485 47.2157 35.5905 38.6767ZM50.2405 58.1607C55.0285 60.6107 63.8835 62.0707 72.8045 61.8847C81.6045 61.6997 88.6425 59.9647 90.7335 57.4657C91.1175 57.0067 91.9165 56.0527 90.3115 53.9297C89.6315 53.0917 67.0795 25.5577 49.7935 29.1877C43.5135 30.5077 39.8275 33.9517 39.1315 39.1497C38.1965 46.1447 43.0755 54.4957 50.2405 58.1607Z" fill="#C8D1D6"/>
<path d="M47.6416 56.5587C47.5346 58.0007 47.5146 59.4047 47.5686 60.7677C46.2856 60.0247 45.0766 59.1607 43.9556 58.1997C44.0026 56.7077 44.1336 55.1747 44.3626 53.6027C45.3506 54.6947 46.4506 55.6927 47.6416 56.5587Z" fill="#EA3D4E"/>
<path d="M57.0938 64.1147C55.6487 63.8147 54.2818 63.4687 53.0168 63.0797C52.6728 61.7747 52.3838 60.4186 52.1628 59.0096C53.3168 59.4536 54.6198 59.8527 56.0338 60.2047C56.3208 61.5647 56.6827 62.8647 57.0938 64.1147Z" fill="#EA3D4E"/>
<path d="M67.5688 65.3867C66.0748 65.3167 64.6068 65.2057 63.1778 65.0537C62.5188 63.8427 61.8998 62.5687 61.3398 61.2207C62.6788 61.4107 64.0688 61.5597 65.4908 61.6717C66.1308 62.9857 66.8288 64.2237 67.5688 65.3867Z" fill="#EA3D4E"/>
<path d="M75.2457 61.7927C76.2197 63.0047 77.2377 64.1187 78.2817 65.1387C76.5017 65.3137 74.8807 65.3987 73.5977 65.4387C72.6437 64.3437 71.7207 63.1657 70.8407 61.8977C71.4937 61.9017 72.1477 61.8997 72.8037 61.8857C73.6347 61.8677 74.4497 61.8367 75.2457 61.7927Z" fill="#EA3D4E"/>
<path d="M88.356 63.0267C86.926 63.5687 85.365 63.9907 83.78 64.3207C82.548 63.4227 81.33 62.4267 80.137 61.3247C81.785 61.0947 83.3 60.8007 84.649 60.4507C85.87 61.4127 87.11 62.2687 88.356 63.0267Z" fill="#EA3D4E"/>
<path d="M87.0699 50.2197C87.8859 49.2787 88.6339 48.3217 89.3189 47.3547C90.3209 48.4427 91.1499 49.3847 91.7769 50.1137C91.0689 51.0617 90.2988 51.9997 89.4698 52.9247C88.9128 52.2737 88.0999 51.3427 87.0699 50.2197Z" fill="#EA3D4E"/>
<path d="M90.7337 57.4667C90.8127 57.3727 90.9077 57.2567 90.9967 57.1157C92.1577 57.5267 93.3107 57.8757 94.4487 58.1577C94.1787 58.8167 93.8117 59.3557 93.4727 59.7597C93.0307 60.2877 92.4927 60.7647 91.8877 61.1997C90.4107 60.7587 88.9137 60.2187 87.4057 59.5677C88.9357 58.9587 90.0787 58.2507 90.7337 57.4667Z" fill="#EA3D4E"/>
<path d="M41.6479 49.9016C40.8639 51.0166 40.1629 52.1426 39.5379 53.2716C38.7469 52.1186 38.0579 50.9106 37.4809 49.6666C38.2169 48.5006 39.0419 47.3406 39.9449 46.1926C40.3779 47.4586 40.9489 48.7056 41.6479 49.9016Z" fill="#EA3D4E"/>
<path d="M35.5906 38.6766C35.5976 38.6246 35.6066 38.5696 35.6136 38.5166C36.9606 37.6836 38.3996 36.9036 39.9346 36.1926C39.5466 37.1046 39.2736 38.0886 39.1316 39.1496C39.0646 39.6536 39.0306 40.1646 39.0216 40.6796C37.7906 41.3696 36.6346 42.1086 35.5516 42.8856C35.4006 41.4706 35.4066 40.0576 35.5906 38.6766Z" fill="#EA3D4E"/>
<path d="M38.2115 32.0337C39.1415 30.7607 40.3815 29.5267 42.0315 28.4557C44.2065 28.5837 46.4645 28.8907 48.7915 29.4257C46.4765 30.0247 44.5495 30.9357 43.0375 32.1397C41.3775 31.9957 39.7665 31.9687 38.2115 32.0337Z" fill="#EA3D4E"/>
<path d="M55.4677 25.4347C57.5947 26.8977 59.6907 28.6407 61.7007 30.7117C59.1697 29.7017 56.6257 29.0467 54.1387 28.8957C52.3937 27.6467 50.6177 26.6067 48.8517 25.7397C48.9217 25.7247 48.9877 25.7067 49.0587 25.6927C51.1617 25.2507 53.3097 25.1907 55.4677 25.4347Z" fill="#EA3D4E"/>
<path d="M64.0638 27.8427C65.8348 28.6077 67.5838 29.5166 69.2928 30.5226C69.9528 32.1956 70.5278 33.9677 70.9878 35.8517C69.4838 34.8097 67.9398 33.8336 66.3718 32.9586C65.7068 31.1286 64.9258 29.4237 64.0638 27.8427Z" fill="#EA3D4E"/>
<path d="M74.8425 38.7187C75.0345 37.2537 75.1325 35.8217 75.1515 34.4297C76.3465 35.3177 77.5075 36.2317 78.6245 37.1547C78.5085 38.5327 78.3145 39.9437 78.0395 41.3817C77.0145 40.4877 75.9465 39.5947 74.8425 38.7187Z" fill="#EA3D4E"/>
<path d="M81.4467 44.4876C81.9877 43.2676 82.4487 42.0517 82.8367 40.8477C83.8497 41.7857 84.8077 42.7086 85.6987 43.5946C85.2557 44.7746 84.7417 45.9636 84.1597 47.1566C83.3227 46.3046 82.4137 45.4076 81.4467 44.4876Z" fill="#EA3D4E"/>
<path d="M194.266 80.7768C154.841 88.8818 130.478 81.5998 116.982 74.0648C102.481 65.9678 97.0764 55.8488 96.9794 55.6648C96.5284 54.7878 95.4524 54.4418 94.5754 54.8918C94.5624 54.8988 94.5504 54.9048 94.5384 54.9118C93.6884 55.3728 93.3584 56.4318 93.8014 57.2968C94.0314 57.7448 99.6114 68.3778 115 77.0498C123.967 82.1018 134.436 85.4388 146.116 86.9668C160.629 88.8648 177.072 87.9598 194.986 84.2768C195.163 84.2408 195.328 84.1789 195.479 84.0979C196.153 83.7319 196.539 82.9568 196.376 82.1678C196.177 81.2008 195.232 80.5778 194.266 80.7768Z" fill="#C8D1D6"/>
<path d="M116.982 74.0648C116.887 74.0118 116.797 73.9578 116.703 73.9048C114.863 74.3568 113.062 74.6518 111.321 74.8218C112.481 75.5728 113.703 76.3188 114.999 77.0488C115.407 77.2788 115.822 77.5018 116.237 77.7248C117.897 77.3678 119.594 76.8898 121.312 76.2788C119.76 75.5528 118.317 74.8098 116.982 74.0648Z" fill="#EA3D4E"/>
<path d="M126.048 78.2928C124.514 79.0848 122.986 79.7428 121.493 80.2888C123.059 80.9788 124.663 81.6218 126.303 82.2198C127.72 81.5488 129.148 80.7699 130.57 79.8779C128.987 79.3739 127.48 78.8438 126.048 78.2928Z" fill="#EA3D4E"/>
<path d="M131.476 83.9209C132.994 84.3659 134.542 84.7699 136.113 85.1419C137.291 84.2619 138.465 83.2899 139.616 82.2159C138.105 81.9079 136.648 81.5719 135.243 81.2129C133.992 82.2269 132.727 83.1259 131.476 83.9209Z" fill="#EA3D4E"/>
<path d="M142.367 86.4019C143.603 86.6099 144.851 86.8009 146.116 86.9659C146.263 86.9849 146.414 86.9999 146.562 87.0179C147.371 85.9699 148.158 84.8489 148.907 83.6539C147.534 83.5049 146.194 83.3339 144.891 83.1409C144.078 84.3119 143.229 85.3979 142.367 86.4019Z" fill="#EA3D4E"/>
<path d="M152.881 87.6299C154.164 87.7189 155.459 87.7899 156.769 87.8389C157.246 86.7089 157.69 85.5199 158.09 84.2759C156.805 84.2389 155.545 84.1829 154.311 84.1089C153.875 85.3459 153.393 86.5209 152.881 87.6299Z" fill="#EA3D4E"/>
<path d="M162.343 87.9219C163.576 87.9149 164.817 87.8949 166.072 87.8539C166.294 86.6959 166.475 85.4889 166.606 84.2389C165.362 84.2839 164.138 84.3129 162.936 84.3239C162.787 85.5729 162.585 86.7749 162.343 87.9219Z" fill="#EA3D4E"/>
<path d="M171.86 87.5449C173.066 87.4579 174.278 87.3599 175.502 87.2429C175.49 86.0919 175.431 84.8949 175.318 83.6619C174.089 83.7789 172.881 83.8789 171.689 83.9639C171.803 85.2009 171.854 86.3979 171.86 87.5449Z" fill="#EA3D4E"/>
<path d="M179.65 83.1888C179.958 84.3928 180.2 85.5659 180.388 86.6969C181.584 86.5469 182.787 86.3849 183.999 86.2079C183.815 85.0759 183.579 83.9059 183.284 82.7039C182.056 82.8809 180.845 83.0418 179.65 83.1888Z" fill="#EA3D4E"/>
<path d="M107.128 67.2759C104.809 67.0659 102.624 66.6519 100.595 66.1089C102.038 67.5869 103.741 69.1639 105.727 70.7699C107.726 70.9949 109.825 71.0809 112.013 70.9889C110.2 69.7509 108.579 68.5009 107.128 67.2759Z" fill="#EA3D4E"/>
<path d="M101.785 62.1229C99.8627 59.9909 98.5707 58.1949 97.8157 57.0409C96.4977 56.5059 95.2517 55.9139 94.0747 55.2819C93.5877 55.8169 93.4517 56.6139 93.8007 57.2959C93.8677 57.4269 94.3947 58.4289 95.4827 59.9919C97.4327 60.8329 99.5307 61.5619 101.785 62.1229Z" fill="#EA3D4E"/>
<path d="M193.815 92.0408C193.815 92.0408 194.555 93.5488 196.096 94.2208C191.921 94.7438 187.974 93.0148 185.49 89.9728C184.857 88.7958 184.484 87.3818 184.726 85.7428C184.726 85.7428 184.154 86.3978 183.892 87.3998C183.427 86.3758 183.1 85.2688 182.941 84.0968C182.728 82.5238 182.839 80.9818 183.218 79.5358C183.853 78.5918 184.848 77.6368 186.341 77.3878C186.341 77.3878 185.22 77.3007 183.934 77.5507C184.158 77.0697 184.413 76.6048 184.698 76.1598C185.392 76.1268 186.159 76.2527 186.767 76.7707C186.767 76.7707 186.759 75.7248 185.555 74.9838C187.378 72.7858 189.999 71.2387 193.052 70.8267C193.831 70.7217 194.602 70.6968 195.358 70.7428C196.927 71.0958 198.563 71.8078 199.458 73.2258C199.458 73.2258 199.138 72.2958 198.246 71.2858C202.089 72.5248 205.148 75.6998 206.113 79.8088C205.93 81.8978 205.228 84.8768 202.862 86.7498C202.862 86.7498 204.849 86.0378 206.312 84.1708C206.214 84.8738 206.053 85.5608 205.833 86.2228C204.793 87.0618 203.301 87.9747 201.885 87.7967C201.885 87.7967 202.83 88.8958 204.754 88.5718C203.426 90.7888 201.382 92.5547 198.893 93.5167C197.31 93.6387 195.277 93.4408 193.815 92.0408Z" fill="white"/>
<path d="M202.863 86.7508C202.863 86.7508 204.849 86.0388 206.313 84.1718C206.214 84.8748 206.054 85.5618 205.834 86.2238C204.794 87.0628 203.302 87.9758 201.886 87.7978C201.886 87.7978 202.831 88.8968 204.755 88.5728C203.427 90.7898 201.383 92.5558 198.894 93.5178C197.311 93.6388 195.277 93.4408 193.815 92.0408C193.815 92.0408 194.556 93.5488 196.097 94.2208C191.922 94.7438 187.975 93.0148 185.49 89.9728C184.857 88.7958 184.484 87.3818 184.726 85.7428C184.726 85.7428 184.155 86.3978 183.893 87.3998C183.428 86.3758 183.101 85.2688 182.942 84.0968L205.961 80.9858C205.631 82.9148 204.812 85.2078 202.863 86.7508Z" fill="#EBEFF2"/>
<path d="M16.6285 126.554C55.1475 114.876 73.0885 96.8568 81.3575 83.7978C90.2415 69.7658 90.1675 58.2938 90.1645 58.0858C90.1425 57.0998 90.9235 56.2828 91.9085 56.2598C91.9225 56.2598 91.9365 56.2598 91.9505 56.2598C92.9175 56.2598 93.7125 57.0328 93.7355 58.0048C93.7475 58.5088 93.9135 70.5148 84.5225 85.4758C79.0505 94.1928 71.4395 102.118 61.9015 109.031C50.0505 117.621 35.1665 124.667 17.6635 129.973C17.4905 130.025 17.3165 130.05 17.1455 130.05C16.3785 130.05 15.6705 129.553 15.4365 128.782C15.1515 127.838 15.6845 126.841 16.6285 126.554Z" fill="#C8D1D6"/>
<path d="M81.3573 83.7977C81.4153 83.7057 81.4693 83.6157 81.5263 83.5237C83.3593 83.0437 85.0833 82.4437 86.6943 81.7637C86.0333 82.9777 85.3143 84.2147 84.5233 85.4757C84.2743 85.8727 84.0153 86.2657 83.7573 86.6597C82.1273 87.1377 80.4083 87.5267 78.6073 87.8087C79.6253 86.4307 80.5393 85.0897 81.3573 83.7977Z" fill="#EA3D4E"/>
<path d="M75.4044 91.8377C77.1304 91.8027 78.7864 91.6517 80.3594 91.4197C79.3114 92.7727 78.2094 94.1037 77.0524 95.4107C75.4874 95.4967 73.8604 95.4927 72.1844 95.3867C73.3374 94.1897 74.4094 93.0047 75.4044 91.8377Z" fill="#EA3D4E"/>
<path d="M73.3184 99.3727C72.1964 100.488 71.0284 101.581 69.8244 102.658C68.3694 102.446 66.8743 102.152 65.3493 101.756C66.5303 100.765 67.6514 99.7747 68.7144 98.7887C70.2994 99.0847 71.8394 99.2697 73.3184 99.3727Z" fill="#EA3D4E"/>
<path d="M64.9282 106.748C63.9412 107.52 62.9352 108.283 61.9022 109.032C61.7822 109.119 61.6562 109.204 61.5352 109.291C60.3242 108.755 59.0982 108.146 57.8692 107.452C59.0052 106.666 60.1012 105.877 61.1542 105.086C62.4282 105.726 63.6922 106.277 64.9282 106.748Z" fill="#EA3D4E"/>
<path d="M56.2715 112.842C55.1855 113.532 54.0815 114.213 52.9535 114.88C51.9955 114.114 51.0385 113.281 50.0935 112.378C51.2055 111.732 52.2865 111.083 53.3355 110.429C54.3095 111.308 55.2935 112.111 56.2715 112.842Z" fill="#EA3D4E"/>
<path d="M48.0942 117.61C47.0062 118.192 45.9062 118.767 44.7842 119.329C44.0372 118.417 43.3022 117.443 42.5902 116.406C43.7052 115.852 44.7952 115.294 45.8562 114.731C46.5842 115.758 47.3352 116.718 48.0942 117.61Z" fill="#EA3D4E"/>
<path d="M39.5493 121.818C38.4473 122.317 37.3353 122.809 36.2043 123.29C35.6663 122.273 35.1463 121.192 34.6583 120.055C35.7943 119.572 36.9043 119.083 37.9923 118.59C38.4823 119.73 39.0083 120.807 39.5493 121.818Z" fill="#EA3D4E"/>
<path d="M30.6264 121.703C30.9294 122.908 31.2764 124.055 31.6504 125.139C30.5284 125.578 29.3924 126.009 28.2434 126.431C27.8654 125.348 27.5144 124.207 27.2014 123.01C28.3654 122.58 29.5054 122.145 30.6264 121.703Z" fill="#EA3D4E"/>
<path d="M86.7813 73.1317C88.7203 71.8417 90.4433 70.4357 91.9673 68.9907C91.4033 70.9777 90.6583 73.1757 89.6793 75.5357C88.0293 76.6877 86.2253 77.7637 84.2583 78.7257C85.2613 76.7717 86.0903 74.8997 86.7813 73.1317Z" fill="#EA3D4E"/>
<path d="M89.0214 66.0537C89.6944 63.2637 89.9734 61.0677 90.0864 59.6947C90.9894 58.5967 91.8024 57.4807 92.5354 56.3647C93.2184 56.6027 93.7184 57.2387 93.7364 58.0037C93.7394 58.1507 93.7544 59.2827 93.5434 61.1757C92.2304 62.8437 90.7344 64.4857 89.0214 66.0537Z" fill="#EA3D4E"/>
<path d="M22.3973 136.24C22.3973 136.24 22.4643 137.918 21.4313 139.245C25.3503 137.714 27.9953 134.312 28.7283 130.452C28.7243 129.116 28.3773 127.695 27.3823 126.37C27.3823 126.37 28.1963 126.673 28.9043 127.43C28.8243 126.308 28.5843 125.179 28.1643 124.073C27.6013 122.589 26.7693 121.286 25.7473 120.196C24.7383 119.67 23.4083 119.305 21.9763 119.798C21.9763 119.798 22.9213 119.186 24.1703 118.793C23.7443 118.477 23.2983 118.19 22.8353 117.935C22.2093 118.237 21.5963 118.713 21.3083 119.459C21.3083 119.459 20.8153 118.536 21.5203 117.311C18.8693 116.249 15.8283 116.139 12.9483 117.232C12.2133 117.511 11.5243 117.857 10.8813 118.257C9.67029 119.316 8.57229 120.722 8.46129 122.395C8.46129 122.395 8.29929 121.425 8.60229 120.111C5.81529 123.033 4.6393 127.283 5.7513 131.354C6.9083 133.103 8.9463 135.387 11.9193 135.905C11.9193 135.905 9.83429 136.226 7.65729 135.284C8.08029 135.855 8.5483 136.382 9.0573 136.86C10.3723 137.102 12.1173 137.192 13.2783 136.36C13.2783 136.36 12.9713 137.777 11.1263 138.409C13.3513 139.724 15.9893 140.302 18.6363 139.961C20.0863 139.312 21.7803 138.167 22.3973 136.24Z" fill="#F61323"/>
<path d="M11.9203 135.905C11.9203 135.905 9.83529 136.226 7.65829 135.284C8.08129 135.855 8.54929 136.382 9.05829 136.86C10.3733 137.102 12.1183 137.192 13.2793 136.36C13.2793 136.36 12.9723 137.777 11.1273 138.409C13.3523 139.724 15.9903 140.302 18.6373 139.961C20.0863 139.312 21.7803 138.168 22.3973 136.241C22.3973 136.241 22.4643 137.919 21.4313 139.246C25.3503 137.715 27.9953 134.313 28.7283 130.453C28.7243 129.117 28.3773 127.696 27.3823 126.371C27.3823 126.371 28.1963 126.674 28.9043 127.431C28.8243 126.309 28.5843 125.18 28.1643 124.074L6.4473 132.317C7.6593 133.854 9.47129 135.478 11.9203 135.905Z" fill="#B51226"/>
<path d="M75.9446 120.257C90.0166 97.6198 92.7086 80.7278 92.4896 70.5438C92.2536 59.5848 88.6846 53.8498 88.6526 53.7998C88.1936 53.0908 88.2946 52.1568 88.8946 51.5608C89.4946 50.9658 90.4296 50.8718 91.1346 51.3368C115.987 67.6898 134.116 106.639 134.876 108.289C135.288 109.185 134.897 110.246 134 110.659C133.104 111.072 132.043 110.68 131.63 109.783C131.461 109.416 115.692 75.5418 94.2396 58.0578C95.1186 61.0318 95.9146 65.0638 96.0536 70.1378C96.3466 80.8598 93.6236 98.5858 78.9796 122.144C78.6416 122.688 78.0576 122.988 77.4606 122.988C77.1386 122.988 76.8126 122.901 76.5196 122.718C75.6806 122.197 75.4236 121.095 75.9446 120.257Z" fill="#DFE4E8"/>
<path d="M132.912 104.267C132.373 105.659 131.738 107.063 131.001 108.471C130.55 107.547 129.862 106.167 128.958 104.436C129.626 102.889 130.166 101.35 130.595 99.8347C131.505 101.525 132.281 103.02 132.912 104.267Z" fill="#EA3D4E"/>
<path d="M128.105 95.3387C127.807 97.0207 127.396 98.7407 126.846 100.493C126.085 99.1067 125.241 97.6047 124.319 96.0137C124.74 94.0087 124.976 92.0547 125.066 90.1687C126.162 91.9757 127.176 93.7077 128.105 95.3387Z" fill="#EA3D4E"/>
<path d="M79.2207 114.726C80.7157 114.659 82.1617 114.503 83.5527 114.275C82.8567 115.559 82.1267 116.862 81.3567 118.186C79.9877 118.308 78.5717 118.358 77.1167 118.338C77.8527 117.116 78.5507 115.914 79.2207 114.726Z" fill="#EA3D4E"/>
<path d="M83.5044 106.505C84.9834 106.344 86.4084 106.1 87.7734 105.788C87.1764 107.11 86.5385 108.458 85.8595 109.831C84.4995 110.04 83.0945 110.191 81.6395 110.261C82.2985 108.987 82.9184 107.735 83.5044 106.505Z" fill="#EA3D4E"/>
<path d="M87.4047 97.3068C88.9307 96.8598 90.3737 96.3288 91.7417 95.7388C91.2487 97.2018 90.7057 98.7028 90.1047 100.244C88.7257 100.707 87.2817 101.107 85.7717 101.434C86.3617 100.027 86.9087 98.6488 87.4047 97.3068Z" fill="#EA3D4E"/>
<path d="M121.591 84.6368C121.535 86.5188 121.349 88.4648 120.998 90.4718C120.035 88.9178 119.014 87.3178 117.942 85.6918C118.076 83.3178 117.977 81.0468 117.707 78.9028C119.071 80.8368 120.367 82.7568 121.591 84.6368Z" fill="#EA3D4E"/>
<path d="M105.627 63.8887C105.87 65.7357 105.997 67.6667 105.974 69.6797C104.741 68.2467 103.477 66.8417 102.182 65.4797C101.948 63.2627 101.527 61.1687 100.975 59.2097C102.566 60.7067 104.118 62.2727 105.627 63.8887Z" fill="#EA3D4E"/>
<path d="M114.042 80.0087C112.876 78.3777 111.662 76.7417 110.407 75.1207C110.203 72.4967 109.731 70.0367 109.085 67.7607C110.755 69.7127 112.363 71.7087 113.902 73.7197C114.105 75.7207 114.158 77.8227 114.042 80.0087Z" fill="#EA3D4E"/>
<path d="M95.2974 58.9378C94.9464 58.6398 94.5934 58.3458 94.2394 58.0578C94.3944 58.5818 94.5444 59.1518 94.6914 59.7418C93.8474 60.8378 92.8754 61.9968 91.7694 63.1748C91.4704 61.5208 91.1094 60.0828 90.7394 58.8618C92.3944 56.8968 93.6294 55.0838 94.4784 53.7028C96.2934 55.0728 98.0664 56.5558 99.7964 58.1238C99.7404 59.5918 99.6074 61.0998 99.3794 62.6488C98.3104 61.6128 97.2234 60.6088 96.1204 59.6468C96.1754 58.9648 96.2164 58.2878 96.2334 57.6238C95.9444 58.0448 95.6314 58.4848 95.2974 58.9378Z" fill="#EA3D4E"/>
<path d="M92.3225 67.3937C93.7205 66.1387 94.8015 65.0077 95.5475 64.1667C95.7565 65.6207 95.9135 67.2007 95.9985 68.9087C95.0205 69.8647 93.8515 70.9197 92.4975 71.9997C92.5005 71.5027 92.4995 71.0137 92.4895 70.5447C92.4655 69.4407 92.4065 68.3917 92.3225 67.3937Z" fill="#EA3D4E"/>
<path d="M90.4738 87.3558C92.0518 86.4348 93.4808 85.4618 94.7568 84.4938C94.4278 86.1738 94.0308 87.9268 93.5468 89.7578C92.1928 90.6068 90.7228 91.4248 89.1438 92.1768C89.6568 90.5098 90.0958 88.9038 90.4738 87.3558Z" fill="#EA3D4E"/>
<path d="M92.2957 76.4208C93.8257 75.1838 95.0827 73.9998 96.0557 73.0028C96.0177 74.6408 95.9087 76.4068 95.7037 78.3028C94.5377 79.3148 93.1927 80.3768 91.6807 81.4228C91.9657 79.6538 92.1657 77.9858 92.2957 76.4208Z" fill="#EA3D4E"/>
<path d="M181.989 35.8348C180.825 44.2588 176.095 52.2458 168.309 58.9328C165.39 61.4398 162.304 63.5728 159.073 65.3258C147.491 71.6098 134.028 73.0248 119.551 69.3858C106.19 66.0268 96.6293 59.6078 95.5873 58.8898C94.1233 58.0648 92.4453 56.3908 92.5353 53.0668C92.8703 40.6588 119.927 12.7498 141.597 2.45479C155.484 -4.14221 169.947 3.47478 177.057 14.4098C181.254 20.8638 183.006 28.4728 181.989 35.8348ZM174.061 16.3558C167.798 6.72379 155.162 -0.0352268 143.129 5.68077C133.32 10.3428 121.553 19.2058 111.662 29.3918C102.199 39.1368 96.2393 48.2438 96.1063 53.1618C96.0613 54.8608 96.7653 55.4638 97.3833 55.7998C97.4433 55.8318 97.5003 55.8678 97.5563 55.9068C97.6523 55.9738 107.279 62.6388 120.529 65.9468C138.074 70.3278 153.368 67.0558 165.981 56.2218C182.067 42.4058 180.703 26.5698 174.061 16.3558Z" fill="#F4F7F9"/>
<path d="M167.06 4.51184C165.564 3.56084 163.99 2.73581 162.355 2.05981C163.009 3.65781 163.531 5.24382 163.938 6.79782C165.481 7.67182 166.945 8.69482 168.302 9.84082C168.016 8.11482 167.611 6.33184 167.06 4.51184Z" fill="#EA3D4E"/>
<path d="M158.308 4.43381C157.684 3.06681 156.967 1.6838 156.139 0.302801C154.667 0.0748014 153.168 -0.0262 151.652 0.0138C152.482 1.2178 153.215 2.4338 153.864 3.6468C155.375 3.7588 156.861 4.02681 158.308 4.43381Z" fill="#EA3D4E"/>
<path d="M149.02 3.84579C148.11 2.82479 147.117 1.81278 146.041 0.826782C144.736 1.17278 143.43 1.63479 142.126 2.21979C143.165 3.08579 144.128 3.9818 145.019 4.8938C146.353 4.4028 147.69 4.05679 149.02 3.84579Z" fill="#EA3D4E"/>
<path d="M140.03 7.26477C138.813 6.58077 137.522 5.93277 136.152 5.33777C134.872 6.08077 133.583 6.87178 132.291 7.70578C133.704 8.21278 135.041 8.78877 136.302 9.41077C137.563 8.64277 138.807 7.92577 140.03 7.26477Z" fill="#EA3D4E"/>
<path d="M122.717 14.6088C124.408 14.7748 126.018 15.0458 127.537 15.3838C128.818 14.4208 130.097 13.4968 131.37 12.6168C129.935 12.1898 128.402 11.8098 126.778 11.5098C125.416 12.5078 124.06 13.5428 122.717 14.6088Z" fill="#EA3D4E"/>
<path d="M113.633 22.4697C115.624 22.1927 117.537 22.0807 119.331 22.0837C120.674 20.8977 122.032 19.7437 123.397 18.6297C121.756 18.4797 119.975 18.4057 118.084 18.4547C116.567 19.7667 115.079 21.1087 113.633 22.4697Z" fill="#EA3D4E"/>
<path d="M104.759 31.6368C106.859 30.9988 108.894 30.5698 110.798 30.2908C111.083 29.9918 111.371 29.6928 111.662 29.3928C112.694 28.3298 113.751 27.2858 114.819 26.2548C113.093 26.3328 111.191 26.5158 109.171 26.8598C107.625 28.4498 106.148 30.0478 104.759 31.6368Z" fill="#EA3D4E"/>
<path d="M106.244 35.3478C104.209 35.9798 101.97 36.8298 99.6486 37.9698C97.8716 40.3868 96.3716 42.7168 95.2116 44.8938C97.4276 43.2648 99.6836 41.9728 101.852 40.9508C103.13 39.1638 104.601 37.2858 106.244 35.3478Z" fill="#EA3D4E"/>
<path d="M177.248 22.9068C177.737 24.3438 178.121 25.8368 178.375 27.3768C179.332 26.2328 180.28 24.9888 181.188 23.6338C180.783 22.1358 180.267 20.6618 179.642 19.2228C178.885 20.5408 178.079 21.7698 177.248 22.9068Z" fill="#EA3D4E"/>
<path d="M175.505 18.8418C175.828 17.0458 176.057 15.1198 176.148 13.0938C175.062 11.5918 173.838 10.1638 172.495 8.8418C172.601 10.6698 172.572 12.4338 172.441 14.1148C173.018 14.8408 173.561 15.5878 174.06 16.3558C174.578 17.1508 175.058 17.9828 175.505 18.8418Z" fill="#EA3D4E"/>
<path d="M178.39 36.0048C179.65 35.2908 180.93 34.4858 182.208 33.5738C182.301 32.0638 182.284 30.5508 182.152 29.0438C181.019 29.9668 179.872 30.7948 178.729 31.5368C178.741 33.0018 178.634 34.4938 178.39 36.0048Z" fill="#EA3D4E"/>
<path d="M175.67 44.2819C177.072 44.0399 178.511 43.7169 179.975 43.3029C180.538 41.9099 181.003 40.4979 181.36 39.0679C180.008 39.5429 178.67 39.9278 177.357 40.2328C176.913 41.5768 176.353 42.9289 175.67 44.2819Z" fill="#EA3D4E"/>
<path d="M169.409 52.9668C170.949 53.0328 172.551 53.0218 174.208 52.9048C175.259 51.6158 176.212 50.2948 177.064 48.9448C175.498 49.1808 173.969 49.3098 172.49 49.3528C171.579 50.5648 170.551 51.7698 169.409 52.9668Z" fill="#EA3D4E"/>
<path d="M160.719 60.1959C162.266 60.5849 163.894 60.8979 165.594 61.1149C166.514 60.4209 167.42 59.6959 168.309 58.9329C168.735 58.5669 169.149 58.1949 169.556 57.8219C167.859 57.7599 166.225 57.5829 164.662 57.3179C163.376 58.3539 162.06 59.3119 160.719 60.1959Z" fill="#EA3D4E"/>
<path d="M150.495 65.2778C151.853 66.0298 153.303 66.7328 154.843 67.3658C156.279 66.7548 157.689 66.0758 159.073 65.3248C159.17 65.2718 159.265 65.2158 159.361 65.1638C157.801 64.6728 156.326 64.0968 154.936 63.4578C153.483 64.1448 152.003 64.7528 150.495 65.2778Z" fill="#EA3D4E"/>
<path d="M130.675 67.6438C131.361 68.8748 132.128 70.1058 132.991 71.3258C134.502 71.3758 135.997 71.3638 137.476 71.2928C136.556 70.1538 135.733 68.9938 134.994 67.8268C133.572 67.8258 132.132 67.7628 130.675 67.6438Z" fill="#EA3D4E"/>
<path d="M140.11 67.5698C141.245 68.6188 142.474 69.6368 143.807 70.6068C145.452 70.3248 147.073 69.9638 148.667 69.5238C147.285 68.6868 146.006 67.7878 144.821 66.8468C143.276 67.1658 141.705 67.4058 140.11 67.5698Z" fill="#EA3D4E"/>
<path d="M96.1064 53.1618C96.1364 52.0508 96.4664 50.7238 97.0654 49.2258C95.5504 50.2388 94.0364 51.3938 92.5564 52.7098C92.5484 52.8288 92.5384 52.9498 92.5354 53.0658C92.4914 54.6848 92.8694 55.9108 93.4354 56.8388C94.3484 55.9388 95.2834 55.1148 96.2294 54.3518C96.1414 54.0288 96.0934 53.6398 96.1064 53.1618Z" fill="#EA3D4E"/>
<path d="M121.034 66.0668C121.528 67.4058 122.107 68.7578 122.782 70.1138C124.291 70.4178 125.789 70.6668 127.273 70.8588C126.513 69.5598 125.856 68.2558 125.29 66.9568C123.887 66.7118 122.468 66.4128 121.034 66.0668Z" fill="#EA3D4E"/>
<path d="M113.129 67.4618C114.36 67.8888 115.638 68.2998 116.962 68.6838C116.725 67.3638 116.569 66.0688 116.478 64.8018C115.2 64.3998 113.967 63.9748 112.785 63.5348C112.835 64.8138 112.947 66.1238 113.129 67.4618Z" fill="#EA3D4E"/>
<path d="M98.8245 56.7297C98.2985 57.7797 97.8075 58.8817 97.3535 60.0297C98.1645 60.5297 99.2265 61.1587 100.509 61.8617C100.95 60.7117 101.437 59.6147 101.958 58.5667C100.627 57.8317 99.5705 57.1967 98.8245 56.7297Z" fill="#EA3D4E"/>
<path d="M104.633 63.9719C105.71 64.4859 106.871 65.0098 108.103 65.5298C108.208 64.2598 108.379 63.0309 108.599 61.8409C107.387 61.3099 106.256 60.7799 105.215 60.2659C104.971 61.4609 104.773 62.6959 104.633 63.9719Z" fill="#EA3D4E"/>
<path d="M0.104309 60.0118C1.13831 47.0108 10.2193 33.4178 25.5713 32.5938C49.5283 31.3078 86.6203 42.9358 92.8313 53.6828C94.4953 56.5618 93.8193 58.8338 92.9253 60.2568C92.3513 61.3848 87.0093 71.5868 76.8673 80.9108C65.8783 91.0138 53.3693 96.1908 40.1923 96.1908C36.5163 96.1908 32.7873 95.7878 29.0253 94.9758C18.9933 92.8108 11.0263 88.0468 5.98631 81.1978C1.58231 75.2108 -0.506691 67.6868 0.104309 60.0118ZM29.7793 91.4828C46.0333 94.9908 61.0353 90.5728 74.3673 78.3548C84.4363 69.1278 89.7193 58.6788 89.7713 58.5748C89.8013 58.5138 89.8353 58.4558 89.8723 58.3988C90.2553 57.8088 90.5873 56.9418 89.7373 55.4708C87.2753 51.2118 77.6933 46.0488 64.7283 41.9968C51.1763 37.7608 36.6073 35.5818 25.7613 36.1618C12.4583 36.8758 4.57531 48.8438 3.66431 60.2958C2.69831 72.4398 9.05131 87.0098 29.7793 91.4828Z" fill="#F4F7F9"/>
<path d="M4.17235 46.5448C5.03335 44.9958 6.02335 43.5198 7.13835 42.1458C7.32535 43.8618 7.62335 45.5048 8.00635 47.0658C7.06635 48.5698 6.26834 50.1668 5.62234 51.8208C5.05034 50.1688 4.55535 48.4078 4.17235 46.5448Z" fill="#EA3D4E"/>
<path d="M11.8273 42.3026C11.7233 40.8036 11.6943 39.2466 11.7633 37.6376C12.9483 36.7346 14.2173 35.9317 15.5693 35.2437C15.4143 36.6977 15.3493 38.1156 15.3573 39.4916C14.0833 40.3106 12.9053 41.2546 11.8273 42.3026Z" fill="#EA3D4E"/>
<path d="M19.7101 37.3567C20.0231 36.0247 20.4131 34.6627 20.8891 33.2827C22.2011 32.9647 23.5701 32.7477 24.9941 32.6407C24.4931 33.8977 24.0751 35.1447 23.7261 36.3707C22.3201 36.5747 20.9801 36.9077 19.7101 37.3567Z" fill="#EA3D4E"/>
<path d="M29.2424 36.0757C29.9864 34.8947 30.8114 33.7087 31.7324 32.5327C33.2114 32.5757 34.7214 32.6557 36.2554 32.7737C35.2554 33.8937 34.3544 35.0367 33.5424 36.1847C32.0674 36.1097 30.6324 36.0737 29.2424 36.0757Z" fill="#EA3D4E"/>
<path d="M47.9624 34.2727C46.5554 35.2247 45.2694 36.2307 44.0954 37.2527C42.5104 37.0177 40.9454 36.8157 39.4064 36.6487C40.4644 35.5887 41.6304 34.5237 42.9144 33.4857C44.5884 33.7137 46.2744 33.9767 47.9624 34.2727Z" fill="#EA3D4E"/>
<path d="M59.6953 36.8507C57.8133 37.5567 56.0793 38.3707 54.5033 39.2287C52.7573 38.8267 51.0133 38.4597 49.2823 38.1317C50.6533 37.2177 52.1833 36.3027 53.8693 35.4447C55.8273 35.8747 57.7753 36.3447 59.6953 36.8507Z" fill="#EA3D4E"/>
<path d="M71.8672 40.6757C69.7172 41.1167 67.7242 41.7097 65.9172 42.3727C65.5242 42.2457 65.1292 42.1197 64.7292 41.9957C63.3152 41.5537 61.8882 41.1397 60.4572 40.7427C62.0112 39.9877 63.7702 39.2417 65.7102 38.5807C67.8282 39.2417 69.8882 39.9427 71.8672 40.6757Z" fill="#EA3D4E"/>
<path d="M72.332 44.6457C74.422 44.2307 76.7961 43.9097 79.3801 43.8057C82.0951 45.0827 84.5241 46.4157 86.5811 47.7757C83.8561 47.4007 81.257 47.3407 78.864 47.4767C76.889 46.5147 74.7 45.5657 72.332 44.6457Z" fill="#EA3D4E"/>
<path d="M3.9894 67.5727C4.2444 69.0687 4.61839 70.5647 5.12939 72.0397C3.74339 71.4907 2.31639 70.8497 0.872391 70.0907C0.513391 68.5817 0.264396 67.0397 0.127396 65.4757C1.4224 66.2737 2.7164 66.9687 3.9894 67.5727Z" fill="#EA3D4E"/>
<path d="M3.58102 63.1687C2.44002 61.7437 1.32102 60.1607 0.274017 58.4227C0.512017 56.5847 0.907023 54.7457 1.45802 52.9437C2.23602 54.6017 3.10402 56.1377 4.02002 57.5527C3.86002 58.4657 3.73802 59.3817 3.66502 60.2947C3.59002 61.2397 3.56502 62.2007 3.58102 63.1687Z" fill="#EA3D4E"/>
<path d="M9.23242 79.6297C7.78442 79.6037 6.27542 79.5057 4.71742 79.3137C3.91542 78.0307 3.20843 76.6927 2.60643 75.3057C4.04243 75.5767 5.44643 75.7577 6.80443 75.8647C7.49243 77.1577 8.29742 78.4177 9.23242 79.6297Z" fill="#EA3D4E"/>
<path d="M15.5693 85.6078C14.2213 86.0638 12.8033 86.4668 11.3193 86.8008C10.1603 85.8448 9.07834 84.8248 8.08134 83.7388C9.49534 83.5108 10.8563 83.2118 12.1553 82.8538C13.1863 83.8228 14.3233 84.7448 15.5693 85.6078Z" fill="#EA3D4E"/>
<path d="M25.2134 90.2557C23.8914 91.0487 22.4774 91.8027 20.9654 92.4897C19.4264 91.8577 17.9584 91.1507 16.5664 90.3717C18.0554 89.8327 19.4604 89.2167 20.7814 88.5487C22.1614 89.1797 23.6394 89.7487 25.2134 90.2557Z" fill="#EA3D4E"/>
<path d="M36.3013 92.4656C35.1263 93.5446 33.8453 94.5966 32.4543 95.5986C31.3153 95.4266 30.1723 95.2226 29.0263 94.9756C28.4773 94.8576 27.9363 94.7277 27.4003 94.5937C28.8623 93.7297 30.2143 92.7947 31.4613 91.8167C33.0873 92.1127 34.7003 92.3276 36.3013 92.4656Z" fill="#EA3D4E"/>
<path d="M47.709 92.0566C46.874 93.3656 45.935 94.6746 44.883 95.9656C43.33 96.1126 41.766 96.1886 40.192 96.1886C40.082 96.1886 39.972 96.1847 39.862 96.1837C40.999 95.0087 42.021 93.7986 42.938 92.5736C44.543 92.4866 46.134 92.3136 47.709 92.0566Z" fill="#EA3D4E"/>
<path d="M66.2603 84.6837C66.2443 86.0927 66.1573 87.5407 65.9813 89.0247C64.6773 89.7887 63.3573 90.4917 62.0233 91.1347C62.2893 89.6937 62.4593 88.2827 62.5523 86.9047C63.8003 86.2257 65.0363 85.4837 66.2603 84.6837Z" fill="#EA3D4E"/>
<path d="M57.9312 89.1187C57.4342 90.5817 56.8392 92.0636 56.1292 93.5506C54.5492 94.0866 52.9522 94.5427 51.3412 94.9167C52.1572 93.5227 52.8522 92.1226 53.4452 90.7296C54.9562 90.2736 56.4512 89.7357 57.9312 89.1187Z" fill="#EA3D4E"/>
<path d="M89.7382 55.4697C89.1822 54.5077 88.2592 53.4987 87.0182 52.4667C88.8332 52.6347 90.7152 52.9277 92.6422 53.3787C92.7062 53.4797 92.7722 53.5807 92.8302 53.6817C93.6412 55.0837 93.8932 56.3407 93.8392 57.4267C92.6082 57.0717 91.3932 56.7927 90.1972 56.5737C90.1202 56.2487 89.9772 55.8837 89.7382 55.4697Z" fill="#EA3D4E"/>
<path d="M73.981 78.7007C74.185 80.1137 74.321 81.5777 74.374 83.0917C73.192 84.0787 71.995 85.0117 70.782 85.8877C70.83 84.3837 70.786 82.9237 70.664 81.5117C71.781 80.6287 72.886 79.6887 73.981 78.7007Z" fill="#EA3D4E"/>
<path d="M81.5942 76.1567C80.7152 77.1197 79.7882 78.0897 78.8082 79.0587C78.3872 77.7857 77.9062 76.5727 77.3822 75.4167C78.3142 74.4537 79.1952 73.4927 80.0242 72.5417C80.5902 73.6897 81.1162 74.8937 81.5942 76.1567Z" fill="#EA3D4E"/>
<path d="M89.05 59.9017C90.013 60.5737 90.971 61.3077 91.917 62.1007C91.443 62.9267 90.809 63.9857 90.017 65.2167C89.081 64.4167 88.13 63.6837 87.171 63.0117C87.991 61.7307 88.617 60.6677 89.05 59.9017Z" fill="#EA3D4E"/>
<path d="M87.3984 69.0367C86.6964 70.0017 85.9264 71.0157 85.0914 72.0607C84.3934 70.9947 83.6564 69.9957 82.8954 69.0547C83.7074 68.0097 84.4484 67.0047 85.1194 66.0557C85.9044 66.9907 86.6674 67.9827 87.3984 69.0367Z" fill="#EA3D4E"/>
<path d="M86.4254 55.6368C90.1574 48.4368 96.2294 49.6778 96.4864 49.7348C97.4494 49.9468 98.0594 50.8988 97.8484 51.8628C97.6364 52.8268 96.6844 53.4368 95.7204 53.2238C95.6824 53.2168 92.0824 52.4868 89.5984 57.2798C89.2804 57.8928 88.6574 58.2448 88.0114 58.2448C87.7344 58.2448 87.4534 58.1798 87.1904 58.0438C86.3144 57.5908 85.9724 56.5128 86.4254 55.6368Z" fill="#F4F7F9"/>
<path d="M90.4074 51.0378C90.8324 52.2798 91.2894 53.4359 91.7544 54.4929C91.0154 55.1049 90.2664 55.9919 89.5984 57.2809C89.5094 57.4529 89.3944 57.6019 89.2634 57.7309C88.6844 56.5629 88.0974 55.2509 87.5424 53.8119C88.4494 52.5519 89.4344 51.6628 90.4074 51.0378Z" fill="#EA3D4E"/>
<path d="M95.7194 53.2249C95.6964 53.2209 94.3184 52.9428 92.6834 53.8528C92.5454 52.7138 92.4364 51.4499 92.3834 50.0829C93.9574 49.5509 95.3144 49.5878 96.0054 49.6628C96.0434 50.9668 96.1354 52.1699 96.2554 53.2519C96.0804 53.2669 95.9014 53.2649 95.7194 53.2249Z" fill="#EA3D4E"/>
<path d="M88.5245 58.9778C92.2555 51.7778 98.3285 53.0178 98.5845 53.0758C99.5475 53.2878 100.17 54.2428 99.9575 55.2058C99.7465 56.1688 98.8065 56.7818 97.8415 56.5698C97.4655 56.4978 94.0885 56.0038 91.6965 60.6208C91.3785 61.2338 90.7545 61.5858 90.1085 61.5858C89.8315 61.5858 89.5505 61.5208 89.2885 61.3848C88.4125 60.9318 88.0705 59.8538 88.5245 58.9778Z" fill="#F4F7F9"/>
<path d="M97.8413 56.5709C97.6113 56.5269 96.2533 56.3259 94.6863 57.2379C94.8483 55.8869 94.9393 54.5649 94.9563 53.2789C96.8203 52.7639 98.2913 53.0158 98.5493 53.0688C98.5373 54.2188 98.4723 55.3968 98.3563 56.5988C98.1883 56.6118 98.0163 56.6089 97.8413 56.5709Z" fill="#EA3D4E"/>
<path d="M92.5073 54.3779C93.0643 55.4179 93.5863 56.5089 94.0723 57.6489C93.2643 58.2629 92.4333 59.1989 91.6953 60.6229C91.6443 60.7209 91.5833 60.8089 91.5183 60.8929C91.0053 59.5029 90.4283 58.1869 89.7973 56.9439C90.6633 55.7959 91.5903 54.9669 92.5073 54.3779Z" fill="#EA3D4E"/>
<path d="M73.4778 102.418C71.0228 110.141 73.9598 122.587 81.6828 125.041C89.4058 127.496 98.9898 119.03 101.445 111.307C103.9 103.584 99.6288 95.3328 91.9058 92.8788C84.1828 90.4248 75.9328 94.6948 73.4778 102.418Z" fill="white"/>
<path d="M75.1136 106.928C73.1486 113.111 75.4996 123.076 81.6836 125.041C87.8666 127.007 95.5406 120.228 97.5056 114.045C99.4706 107.862 96.0516 101.256 89.8686 99.2898C83.6846 97.3258 77.0786 100.745 75.1136 106.928Z" fill="#EBEFF2"/>
<path d="M113.318 118.305C105.565 115.946 93.1568 119.036 90.7978 126.789C88.4388 134.542 97.0218 144.02 104.774 146.38C112.526 148.739 120.724 144.367 123.083 136.615C125.443 128.861 121.071 120.664 113.318 118.305Z" fill="white"/>
<path d="M108.829 119.996C102.622 118.107 92.6866 120.582 90.7976 126.789C88.9086 132.996 95.7806 140.585 101.988 142.474C108.195 144.363 114.758 140.862 116.647 134.655C118.536 128.448 115.036 121.885 108.829 119.996Z" fill="#EBEFF2"/>
<path d="M102.081 156.822C102.21 148.72 95.8156 137.645 87.7126 137.516C79.6096 137.387 72.8666 148.252 72.7386 156.355C72.6096 164.457 79.0736 171.13 87.1766 171.259C95.2796 171.389 101.952 164.925 102.081 156.822Z" fill="white"/>
<path d="M99.2167 152.974C99.3197 146.487 94.2007 137.62 87.7137 137.517C81.2267 137.414 75.8277 146.113 75.7247 152.6C75.6217 159.087 80.7967 164.43 87.2837 164.533C93.7707 164.636 99.1137 159.461 99.2167 152.974Z" fill="#EBEFF2"/>
<path d="M59.6807 101.256C67.3727 103.806 75.7197 113.494 73.1697 121.186C70.6197 128.878 58.1387 131.661 50.4467 129.111C42.7547 126.561 38.5867 118.258 41.1357 110.567C43.6857 102.874 51.9887 98.7059 59.6807 101.256Z" fill="white"/>
<path d="M62.3699 105.228C68.5289 107.27 75.2109 115.026 73.1699 121.185C71.1279 127.344 61.1359 129.572 54.9769 127.53C48.8179 125.488 45.4809 118.841 47.5229 112.682C49.5629 106.524 56.2109 103.187 62.3699 105.228Z" fill="#EBEFF2"/>
<path d="M46.6156 139.192C51.1886 132.502 62.8036 127.152 69.4936 131.725C76.1836 136.298 75.4156 149.063 70.8426 155.752C66.2696 162.442 57.1386 164.158 50.4496 159.585C43.7606 155.012 42.0426 145.882 46.6156 139.192Z" fill="white"/>
<path d="M51.1754 137.704C54.8364 132.348 64.1364 128.064 69.4924 131.726C74.8484 135.387 74.2334 145.607 70.5724 150.964C66.9114 156.32 59.6004 157.694 54.2444 154.033C48.8884 150.37 47.5144 143.06 51.1754 137.704Z" fill="#EBEFF2"/>
<path d="M69.7477 123.363C69.7477 123.363 67.6137 123.395 66.0047 124.798C67.6727 119.721 71.8027 116.129 76.6467 114.928C78.3417 114.84 80.1677 115.181 81.9177 116.35C81.9177 116.35 81.4757 115.339 80.4677 114.493C81.8957 114.515 83.3447 114.741 84.7767 115.196C86.6987 115.807 88.4087 116.771 89.8637 117.991C90.6017 119.233 91.1577 120.895 90.6327 122.746C90.6327 122.746 91.3417 121.505 91.7537 119.893C92.1847 120.412 92.5797 120.957 92.9357 121.526C92.5957 122.341 92.0347 123.152 91.1097 123.569C91.1097 123.569 92.3147 124.13 93.8197 123.15C95.3527 126.438 95.7047 130.287 94.5187 134.016C94.2167 134.967 93.8257 135.866 93.3627 136.709C92.1047 138.319 90.3977 139.81 88.2837 140.067C88.2837 140.067 89.5257 140.204 91.1697 139.729C87.6587 143.467 82.3507 145.256 77.1097 144.13C74.8107 142.785 71.7717 140.36 70.9067 136.625C70.9067 136.625 70.6457 139.292 71.9927 141.987C71.2397 141.491 70.5377 140.934 69.8967 140.322C69.4987 138.671 69.2617 136.464 70.2357 134.934C70.2357 134.934 68.4607 135.422 67.7867 137.806C65.9627 135.076 65.0457 131.77 65.2947 128.389C66.0137 126.508 67.3457 124.28 69.7477 123.363Z" fill="#F61323"/>
<path d="M70.9048 136.626C70.9048 136.626 70.6438 139.293 71.9908 141.988C71.2378 141.492 70.5358 140.935 69.8948 140.323C69.4968 138.672 69.2598 136.465 70.2338 134.935C70.2338 134.935 68.4588 135.423 67.7848 137.807C65.9608 135.077 65.0438 131.771 65.2928 128.39C66.0138 126.507 67.3468 124.279 69.7488 123.362C69.7488 123.362 67.6148 123.394 66.0058 124.797C67.6738 119.72 71.8038 116.128 76.6478 114.927C78.3428 114.839 80.1688 115.18 81.9188 116.349C81.9188 116.349 81.4768 115.338 80.4688 114.492C81.8968 114.514 83.3458 114.74 84.7778 115.195L75.8398 143.314C73.8038 141.888 71.6168 139.702 70.9048 136.626Z" fill="#B51226"/>
<path d="M113.322 92.7308C116.162 100.32 126.16 108.293 133.75 105.453C141.34 102.613 143.647 90.0348 140.806 82.4448C137.965 74.8548 129.511 71.0048 121.921 73.8458C114.332 76.6858 110.482 85.1408 113.322 92.7308Z" fill="#F61323"/>
<path d="M117.394 95.2668C119.668 101.344 127.673 107.727 133.749 105.453C139.825 103.179 141.673 93.1078 139.399 87.0318C137.125 80.9548 130.355 77.8728 124.279 80.1468C118.203 82.4198 115.12 89.1898 117.394 95.2668Z" fill="#B51226"/>
<path d="M154.466 80.6127C146.912 83.5467 139.063 93.6417 141.997 101.196C144.931 108.75 157.536 110.902 165.09 107.968C172.644 105.034 176.389 96.5317 173.455 88.9777C170.522 81.4237 162.02 77.6787 154.466 80.6127Z" fill="#F61323"/>
<path d="M151.98 84.7157C145.932 87.0647 139.648 95.1477 141.997 101.196C144.346 107.244 154.438 108.967 160.486 106.618C166.534 104.269 169.533 97.4617 167.184 91.4137C164.836 85.3657 158.029 82.3667 151.98 84.7157Z" fill="#B51226"/>
<path d="M169.423 117.843C164.519 111.392 152.65 106.633 146.199 111.537C139.748 116.441 141.157 129.15 146.061 135.602C150.965 142.053 160.17 143.308 166.622 138.404C173.073 133.5 174.327 124.295 169.423 117.843Z" fill="#F61323"/>
<path d="M164.794 116.586C160.868 111.421 151.365 107.611 146.199 111.537C141.034 115.463 142.162 125.639 146.088 130.804C150.014 135.969 157.385 136.974 162.55 133.047C167.716 129.122 168.72 121.752 164.794 116.586Z" fill="#B51226"/>
<path d="M101.754 100.339C109.378 97.5918 121.926 100.055 124.673 107.679C127.419 115.303 119.324 125.202 111.7 127.948C104.076 130.694 95.6694 126.74 92.9234 119.116C90.1764 111.493 94.1294 103.086 101.754 100.339Z" fill="#F61323"/>
<path d="M106.323 101.803C112.427 99.6037 122.474 101.575 124.673 107.68C126.872 113.784 120.39 121.71 114.286 123.909C108.182 126.108 101.451 122.942 99.2516 116.838C97.0526 110.733 100.219 104.001 106.323 101.803Z" fill="#B51226"/>
<path d="M114.915 138.243C114.379 130.157 120.207 118.775 128.293 118.239C136.379 117.703 143.66 128.215 144.196 136.3C144.732 144.386 138.613 151.376 130.527 151.912C122.442 152.448 115.452 146.329 114.915 138.243Z" fill="#F61323"/>
<path d="M117.582 134.255C117.152 127.781 121.819 118.668 128.293 118.239C134.767 117.809 140.597 126.226 141.026 132.7C141.456 139.174 136.556 144.77 130.082 145.2C123.608 145.629 118.012 140.729 117.582 134.255Z" fill="#B51226"/>
<path d="M123.328 111.505C123.328 111.505 121.67 112.848 121.271 114.946C119.447 109.923 120.475 104.547 123.543 100.611C124.822 99.4948 126.468 98.6348 128.566 98.4728C128.566 98.4728 127.594 97.9507 126.279 97.9087C127.416 97.0437 128.695 96.3268 130.102 95.7998C131.99 95.0928 133.931 94.7948 135.828 94.8558C137.176 95.3768 138.639 96.3397 139.37 98.1197C139.37 98.1197 139.161 96.7058 138.489 95.1838C139.148 95.3258 139.796 95.5108 140.427 95.7378C140.663 96.5888 140.723 97.5728 140.253 98.4728C140.253 98.4728 141.547 98.1698 142.125 96.4688C145.361 98.1078 148.016 100.917 149.387 104.582C149.737 105.517 149.985 106.465 150.141 107.414C150.146 109.457 149.725 111.684 148.221 113.193C148.221 113.193 149.282 112.534 150.282 111.144C149.83 116.253 146.761 120.938 141.944 123.291C139.305 123.653 135.417 123.624 132.43 121.221C132.43 121.221 133.872 123.48 136.596 124.767C135.697 124.842 134.802 124.838 133.919 124.752C132.586 123.7 131.036 122.11 130.857 120.306C130.857 120.306 129.762 121.786 130.705 124.078C127.584 123.058 124.821 121.025 122.928 118.213C122.334 116.285 122.006 113.71 123.328 111.505Z" fill="white"/>
<path d="M132.431 121.221C132.431 121.221 133.873 123.48 136.597 124.767C135.698 124.842 134.803 124.838 133.92 124.752C132.587 123.7 131.037 122.11 130.858 120.306C130.858 120.306 129.763 121.786 130.706 124.078C127.585 123.058 124.822 121.025 122.929 118.213C122.333 116.287 122.005 113.711 123.327 111.506C123.327 111.506 121.669 112.849 121.27 114.947C119.446 109.924 120.474 104.548 123.542 100.612C124.821 99.4958 126.467 98.6358 128.565 98.4738C128.565 98.4738 127.593 97.9518 126.278 97.9098C127.415 97.0448 128.694 96.3278 130.101 95.8008L140.442 123.434C137.961 123.567 134.892 123.2 132.431 121.221Z" fill="#EBEFF2"/>
</svg>
